if (_typeface_js && _typeface_js.loadFace) _typeface_js.loadFace({"glyphs":{"0":{"ha":926,"x_min":89,"x_max":838,"o":"m 188 851 q 237 921 188 851 q 464 992 286 992 q 740 851 642 992 q 838 488 838 710 q 740 122 838 264 q 464 -19 642 -19 q 188 122 286 -19 q 89 488 89 264 q 188 851 89 710 m 464 92 q 649 202 588 92 q 710 488 710 313 q 649 771 710 661 q 464 881 588 881 q 278 771 339 881 q 217 488 217 661 q 278 202 217 313 q 464 92 339 92 z "},"1":{"ha":600,"x_min":69,"x_max":476,"o":"m 336 111 l 476 111 l 476 0 l 69 0 l 69 111 l 210 111 l 329 856 l 104 821 l 104 933 l 474 992 l 336 111 z "},"2":{"ha":764,"x_min":69,"x_max":674,"o":"m 229 111 l 668 111 l 668 0 l 69 0 l 69 97 l 467 556 q 530 640 514 608 q 546 733 546 672 q 500 840 546 800 q 385 881 454 881 q 262 835 314 881 q 199 717 210 790 l 75 735 q 185 922 100 853 q 385 992 269 992 q 591 920 508 992 q 674 735 674 849 q 655 636 674 685 q 615 559 636 588 q 561 492 594 531 l 229 111 z "},"3":{"ha":818,"x_min":69,"x_max":721,"o":"m 421 572 q 633 489 544 572 q 721 276 721 406 q 625 60 721 140 q 392 -19 529 -19 q 181 42 271 -19 q 69 213 90 103 l 193 232 q 263 128 207 165 q 392 92 319 92 q 535 142 475 92 q 596 276 596 193 q 537 415 596 363 q 392 467 478 467 l 285 467 l 285 579 l 539 861 l 139 861 l 139 972 l 690 972 l 690 872 l 421 572 z "},"4":{"ha":856,"x_min":69,"x_max":786,"o":"m 610 249 l 571 0 l 450 0 l 490 249 l 69 249 l 69 357 l 585 972 l 733 972 l 210 357 l 506 357 l 539 565 l 660 565 l 626 357 l 786 357 l 786 249 l 610 249 z "},"5":{"ha":811,"x_min":63,"x_max":714,"o":"m 385 574 q 619 492 525 574 q 714 276 714 411 q 618 60 714 140 q 385 -19 522 -19 q 173 41 264 -19 q 63 213 82 101 l 186 232 q 255 128 199 164 q 385 92 311 92 q 528 142 468 92 q 589 276 589 192 q 530 414 589 363 q 385 465 471 465 l 164 465 l 244 972 l 704 972 l 704 861 l 349 861 l 303 574 l 385 574 z "},"6":{"ha":831,"x_min":83,"x_max":740,"o":"m 419 572 q 647 490 554 572 q 740 276 740 408 q 645 60 740 140 q 413 -19 550 -19 q 179 60 275 -19 q 83 276 83 140 q 103 381 83 336 q 163 482 122 425 l 507 972 l 650 972 l 360 565 q 419 572 385 572 m 413 89 q 556 140 497 89 q 615 276 615 192 q 556 414 615 361 q 413 467 496 467 q 267 414 325 467 q 208 276 208 361 q 267 140 208 192 q 413 89 325 89 z "},"7":{"ha":722,"x_min":69,"x_max":653,"o":"m 69 972 l 653 972 l 653 872 l 292 0 l 163 0 l 522 861 l 69 861 l 69 972 z "},"8":{"ha":846,"x_min":94,"x_max":751,"o":"m 592 525 q 709 424 667 490 q 751 276 751 357 q 658 60 751 139 q 424 -19 564 -19 q 189 60 283 -19 q 94 276 94 139 q 137 424 94 357 q 254 525 179 490 q 159 613 193 558 q 125 729 125 668 q 212 917 125 842 q 424 992 299 992 q 634 917 547 992 q 721 729 721 842 q 687 613 721 668 q 592 525 653 558 m 247 729 q 301 615 247 657 q 424 572 356 572 q 545 615 492 572 q 599 729 599 657 q 548 842 599 799 q 424 886 497 886 q 299 842 350 886 q 247 729 247 799 m 278 140 q 308 114 278 140 q 424 89 338 89 q 568 140 510 89 q 626 276 626 190 q 567 413 626 360 q 424 467 508 467 q 279 413 339 467 q 219 276 219 360 q 278 140 219 190 z "},"9":{"ha":831,"x_min":83,"x_max":740,"o":"m 404 401 q 176 483 269 401 q 83 696 83 565 q 178 912 83 832 q 411 992 274 992 q 644 912 549 992 q 740 696 740 832 q 721 592 740 636 q 661 490 701 547 l 317 0 l 174 0 l 464 407 q 404 401 443 401 m 411 883 q 267 832 326 883 q 208 696 208 781 q 268 560 208 613 q 411 507 328 507 q 557 559 499 507 q 615 696 615 611 q 557 832 615 781 q 411 883 499 883 z "}," ":{"ha":424,"x_min":0,"x_max":0,"o":""},"!":{"ha":439,"x_min":97,"x_max":369,"o":"m 369 972 l 261 289 l 138 289 l 246 972 l 369 972 m 257 8 q 271 22 257 8 q 285 75 285 36 q 258 142 285 114 q 190 169 231 169 q 124 142 151 169 q 97 75 97 114 q 124 8 97 36 q 190 -19 151 -19 q 257 8 229 -19 z "},"\"":{"ha":515,"x_min":76,"x_max":439,"o":"m 333 614 l 308 972 l 439 972 l 414 614 l 333 614 m 101 614 l 76 972 l 207 972 l 182 614 l 101 614 z "},"#":{"ha":1103,"x_min":83,"x_max":1019,"o":"m 1003 600 l 790 600 l 754 372 l 967 372 l 950 267 l 738 267 l 694 0 l 588 0 l 631 267 l 403 267 l 361 0 l 254 0 l 296 267 l 83 267 l 100 372 l 313 372 l 349 600 l 136 600 l 153 706 l 365 706 l 408 972 l 515 972 l 472 706 l 700 706 l 742 972 l 849 972 l 807 706 l 1019 706 l 1003 600 m 647 372 l 683 600 l 456 600 l 419 372 l 647 372 z "},"$":{"ha":856,"x_min":63,"x_max":793,"o":"m 486 494 q 678 407 607 469 q 750 238 750 344 q 649 46 750 111 q 406 -19 547 -19 l 386 -146 l 275 -146 l 297 -11 q 63 211 89 36 l 185 236 q 313 99 188 129 l 376 493 q 219 584 279 515 q 160 747 160 653 q 241 921 160 857 q 456 992 322 985 l 475 1119 l 585 1119 l 564 985 q 722 903 658 964 q 793 754 785 842 l 674 731 q 547 878 667 846 l 486 494 m 282 747 q 313 655 282 693 q 394 601 343 617 l 438 883 q 282 747 282 865 m 422 89 q 569 129 514 93 q 625 238 625 165 q 469 385 625 351 l 422 89 z "},"%":{"ha":1369,"x_min":83,"x_max":1286,"o":"m 974 947 l 482 -19 l 396 25 l 888 992 l 974 947 m 524 558 q 486 522 524 558 q 342 486 449 486 q 159 558 235 486 q 83 735 83 631 q 159 912 83 839 q 342 985 235 985 q 524 912 449 985 q 600 735 600 839 q 524 558 600 631 m 454 850 q 433 873 454 850 q 342 896 411 896 q 229 850 272 896 q 186 735 186 804 q 230 621 186 667 q 342 575 274 575 q 453 621 410 575 q 497 735 497 667 q 454 850 497 804 m 1210 60 q 1173 24 1210 60 q 1028 -12 1135 -12 q 845 60 921 -12 q 769 236 769 132 q 845 413 769 340 q 1028 486 921 486 q 1210 414 1135 486 q 1286 236 1286 342 q 1210 60 1286 132 m 1028 397 q 917 351 960 397 q 874 236 874 306 q 917 122 874 168 q 1028 76 960 76 q 1141 122 1097 76 q 1185 236 1185 168 q 1141 351 1185 306 q 1028 397 1097 397 z "},"&":{"ha":1011,"x_min":69,"x_max":949,"o":"m 949 357 q 830 325 875 357 q 746 232 785 293 l 872 47 l 776 -19 l 679 122 q 408 -19 583 -19 q 169 73 268 -19 q 69 303 69 165 q 147 509 69 422 q 342 618 224 596 l 174 863 l 174 972 l 740 972 l 740 861 l 315 861 l 678 331 q 949 468 776 468 l 949 357 m 408 92 q 527 125 481 92 q 614 219 574 158 l 414 513 q 260 453 322 513 q 197 303 197 394 q 257 151 197 210 q 408 92 317 92 z "},"'":{"ha":283,"x_min":76,"x_max":207,"o":"m 101 614 l 76 972 l 207 972 l 182 614 l 101 614 z "},"(":{"ha":453,"x_min":83,"x_max":439,"o":"m 439 1089 q 201 444 201 813 q 439 -199 201 78 l 361 -253 q 154 71 225 -112 q 83 444 83 254 q 154 819 83 636 q 361 1143 225 1003 l 439 1089 z "},")":{"ha":453,"x_min":14,"x_max":369,"o":"m 14 1089 l 92 1143 q 299 819 228 1003 q 369 444 369 636 q 299 71 369 254 q 92 -253 228 -112 l 14 -199 q 251 444 251 78 q 14 1089 251 813 z "},"*":{"ha":647,"x_min":76,"x_max":571,"o":"m 571 792 l 385 722 l 571 653 l 511 546 l 353 674 l 385 472 l 263 472 l 296 672 l 136 546 l 76 653 l 267 722 l 76 792 l 136 899 l 296 772 l 263 972 l 385 972 l 353 771 l 511 899 l 571 792 z "},"+":{"ha":819,"x_min":83,"x_max":736,"o":"m 463 774 l 463 500 l 736 500 l 736 394 l 463 394 l 463 121 l 357 121 l 357 394 l 83 394 l 83 500 l 357 500 l 357 774 l 463 774 z "},",":{"ha":403,"x_min":49,"x_max":299,"o":"m 299 139 l 142 -214 l 49 -178 l 172 189 l 299 139 z "},"-":{"ha":694,"x_min":118,"x_max":576,"o":"m 118 474 l 576 474 l 576 363 l 118 363 l 118 474 z "},".":{"ha":396,"x_min":104,"x_max":292,"o":"m 264 142 q 278 128 264 142 q 292 75 292 114 q 264 8 292 36 q 197 -19 236 -19 q 131 8 158 -19 q 104 75 104 36 q 131 142 104 114 q 197 169 158 169 q 264 142 236 169 z "},"/":{"ha":567,"x_min":7,"x_max":560,"o":"m 457 1143 l 560 1108 l 110 -253 l 7 -218 l 457 1143 z "},":":{"ha":396,"x_min":104,"x_max":292,"o":"m 264 714 q 278 700 264 714 q 292 647 292 686 q 264 581 292 608 q 197 553 236 553 q 131 581 158 553 q 104 647 104 608 q 131 714 104 686 q 197 742 158 742 q 264 714 236 742 m 264 142 q 278 128 264 142 q 292 75 292 114 q 264 8 292 36 q 197 -19 236 -19 q 131 8 158 -19 q 104 75 104 36 q 131 142 104 114 q 197 169 158 169 q 264 142 236 169 z "},";":{"ha":403,"x_min":49,"x_max":299,"o":"m 272 714 q 285 700 272 714 q 299 647 299 686 q 271 581 299 608 q 204 553 243 553 q 138 581 165 553 q 111 647 111 608 q 138 714 111 686 q 204 742 165 742 q 272 714 244 742 m 299 139 l 142 -214 l 49 -178 l 172 189 l 299 139 z "},"<":{"ha":819,"x_min":83,"x_max":736,"o":"m 83 503 l 693 783 l 736 682 l 197 444 l 736 206 l 693 106 l 83 383 l 83 503 z "},"=":{"ha":819,"x_min":83,"x_max":736,"o":"m 83 367 l 736 367 l 736 261 l 83 261 l 83 367 m 83 633 l 736 633 l 736 528 l 83 528 l 83 633 z "},">":{"ha":819,"x_min":83,"x_max":736,"o":"m 126 783 l 736 503 l 736 383 l 126 106 l 83 206 l 622 444 l 83 682 l 126 783 z "},"?":{"ha":726,"x_min":49,"x_max":657,"o":"m 657 717 q 588 533 657 600 q 406 454 518 465 l 379 286 l 258 286 l 303 561 q 478 594 425 561 q 532 717 532 628 q 481 838 532 794 q 349 881 431 881 q 237 852 285 881 q 172 772 189 824 l 49 800 q 157 942 75 893 q 349 992 239 992 q 569 920 482 992 q 657 717 657 849 m 375 8 q 389 22 375 8 q 403 75 403 36 q 375 142 403 114 q 308 169 347 169 q 242 142 269 169 q 215 75 215 114 q 242 8 215 36 q 308 -19 269 -19 q 375 8 347 -19 z "},"@":{"ha":1338,"x_min":90,"x_max":1247,"o":"m 1143 231 l 1247 208 q 1033 -33 1174 58 q 703 -124 892 -124 q 260 37 431 -124 q 90 456 90 197 q 174 753 90 622 q 395 951 258 883 q 696 1019 532 1019 q 1095 853 944 1019 q 1246 438 1246 688 l 896 310 l 919 185 l 811 185 l 794 272 l 506 167 q 404 401 404 264 q 490 618 404 528 q 704 721 576 708 l 689 799 l 797 799 l 876 404 l 1140 499 q 1003 812 1122 694 q 696 929 883 929 q 344 799 493 929 q 196 456 196 668 q 336 101 196 235 q 703 -33 476 -33 q 967 38 853 -33 q 1143 231 1081 110 m 546 283 l 775 367 l 724 626 q 576 558 635 622 q 518 401 518 494 q 546 283 518 335 z "},"A":{"ha":992,"x_min":43,"x_max":949,"o":"m 817 0 l 686 340 l 301 340 l 172 0 l 43 0 l 435 981 l 557 981 l 949 0 l 817 0 m 342 449 l 647 449 l 494 840 l 342 449 z "},"B":{"ha":843,"x_min":76,"x_max":760,"o":"m 715 722 q 681 600 715 658 q 589 511 647 542 q 760 271 760 428 q 664 70 760 140 q 424 0 568 0 l 76 0 l 229 972 l 421 972 q 634 908 553 972 q 715 722 715 844 m 333 864 l 285 558 l 404 558 q 540 601 486 558 q 593 717 593 644 q 547 826 593 789 q 421 864 500 864 l 333 864 m 424 108 q 574 149 514 108 q 635 271 635 190 q 569 401 635 353 q 404 450 504 450 l 268 450 l 214 108 l 424 108 z "},"C":{"ha":1114,"x_min":86,"x_max":1044,"o":"m 594 94 q 917 292 818 94 l 1044 267 q 865 57 983 133 q 594 -19 747 -19 q 234 131 382 -19 q 86 494 86 282 q 235 848 86 704 q 594 992 383 992 q 864 917 747 992 q 1042 713 981 842 l 914 688 q 594 878 815 878 q 324 768 432 878 q 217 494 217 658 q 324 210 217 326 q 594 94 431 94 z "},"D":{"ha":1000,"x_min":76,"x_max":914,"o":"m 914 494 q 758 148 914 296 q 401 0 603 0 l 76 0 l 231 972 l 453 972 q 782 833 650 972 q 914 494 914 694 m 400 111 q 668 226 553 111 q 783 494 783 342 q 690 756 783 651 q 444 861 596 861 l 336 861 l 218 111 l 400 111 z "},"E":{"ha":793,"x_min":139,"x_max":710,"o":"m 264 111 l 710 111 l 710 0 l 139 0 l 139 972 l 701 972 l 701 861 l 264 861 l 264 560 l 686 560 l 686 449 l 264 449 l 264 111 z "},"F":{"ha":719,"x_min":139,"x_max":643,"o":"m 139 972 l 643 972 l 643 861 l 264 861 l 264 560 l 625 560 l 625 449 l 264 449 l 264 0 l 139 0 l 139 972 z "},"G":{"ha":1181,"x_min":86,"x_max":1076,"o":"m 563 489 l 1076 489 l 1076 414 q 940 100 1076 219 q 601 -19 803 -19 q 237 130 388 -19 q 86 494 86 279 q 237 847 86 703 q 594 992 388 992 q 853 927 742 992 q 1028 744 965 863 l 901 719 q 778 835 857 793 q 594 878 699 878 q 325 767 436 878 q 214 494 214 657 q 325 210 214 329 q 596 92 436 92 q 837 166 736 92 q 956 378 938 240 l 563 378 l 563 489 z "},"H":{"ha":996,"x_min":139,"x_max":857,"o":"m 732 972 l 857 972 l 857 0 l 732 0 l 732 449 l 264 449 l 264 0 l 139 0 l 139 972 l 264 972 l 264 560 l 732 560 l 732 972 z "},"I":{"ha":403,"x_min":139,"x_max":264,"o":"m 139 972 l 264 972 l 264 0 l 139 0 l 139 972 z "},"J":{"ha":711,"x_min":49,"x_max":579,"o":"m 454 972 l 579 972 l 579 260 q 508 56 579 131 q 313 -19 436 -19 q 130 44 200 -19 q 49 217 60 108 l 169 242 q 313 94 186 94 q 454 256 454 94 l 454 972 z "},"K":{"ha":853,"x_min":76,"x_max":807,"o":"m 731 992 l 796 896 l 213 508 l 807 76 l 738 -19 l 274 326 l 274 0 l 149 0 l 149 413 l 76 465 l 76 549 l 149 596 l 149 972 l 274 972 l 274 679 l 731 992 z "},"L":{"ha":639,"x_min":76,"x_max":583,"o":"m 218 111 l 583 111 l 583 0 l 76 0 l 231 972 l 354 972 l 218 111 z "},"M":{"ha":1142,"x_min":139,"x_max":1003,"o":"m 896 972 l 1003 972 l 1003 0 l 878 0 l 878 767 l 610 396 l 529 396 l 261 767 l 261 0 l 139 0 l 139 972 l 246 972 l 571 528 l 896 972 z "},"N":{"ha":1076,"x_min":139,"x_max":938,"o":"m 815 972 l 938 972 l 938 0 l 838 0 l 261 793 l 261 0 l 139 0 l 139 972 l 268 972 l 815 218 l 815 972 z "},"O":{"ha":1204,"x_min":86,"x_max":1118,"o":"m 239 844 q 315 918 239 844 q 603 992 392 992 q 966 844 814 992 q 1118 486 1118 696 q 966 128 1118 276 q 603 -19 814 -19 q 239 128 392 -19 q 86 486 86 276 q 239 844 86 696 m 603 94 q 876 208 765 94 q 988 486 988 321 q 876 764 988 650 q 603 878 765 878 q 328 764 439 878 q 217 486 217 650 q 328 208 217 321 q 603 94 439 94 z "},"P":{"ha":839,"x_min":76,"x_max":776,"o":"m 231 972 l 456 972 q 685 897 594 972 q 776 692 776 821 q 686 473 776 557 q 456 389 596 389 l 261 389 l 200 0 l 76 0 l 231 972 m 279 500 l 456 500 q 597 552 544 500 q 649 692 649 604 q 596 816 649 771 q 456 861 543 861 l 336 861 l 279 500 z "},"Q":{"ha":1204,"x_min":86,"x_max":1118,"o":"m 1118 488 q 978 142 1118 289 l 1082 18 l 997 -54 l 892 69 q 601 -19 761 -19 q 238 129 390 -19 q 86 488 86 278 q 238 844 86 697 q 601 992 390 992 q 966 844 814 992 q 1118 488 1118 697 m 601 94 q 817 158 719 94 l 536 489 l 621 561 l 900 233 q 990 488 990 342 q 878 765 990 653 q 601 878 765 878 q 326 765 438 878 q 214 488 214 653 q 326 209 214 324 q 601 94 439 94 z "},"R":{"ha":853,"x_min":76,"x_max":775,"o":"m 775 71 l 707 -19 l 250 325 l 199 0 l 76 0 l 231 972 l 453 972 q 663 901 579 972 q 747 711 747 831 q 660 522 747 593 q 446 450 574 450 l 267 450 l 775 71 m 335 864 l 288 558 l 446 558 q 572 599 522 558 q 622 711 622 640 q 575 824 622 783 q 453 864 528 864 l 335 864 z "},"S":{"ha":832,"x_min":63,"x_max":776,"o":"m 597 52 q 552 16 597 52 q 374 -19 508 -19 q 151 52 239 -19 q 63 256 63 124 q 101 388 63 324 l 219 363 q 189 249 189 301 q 242 133 189 175 q 374 92 296 92 q 506 135 456 92 q 557 254 557 178 q 532 339 557 293 q 470 428 507 385 q 397 519 433 472 q 336 620 361 565 q 311 728 311 675 q 389 923 311 854 q 597 992 467 992 q 776 946 700 992 l 728 844 q 603 881 671 881 q 479 844 519 881 q 439 728 439 808 q 477 624 439 683 q 562 512 515 564 q 647 389 608 460 q 685 256 685 318 q 597 52 685 124 z "},"T":{"ha":792,"x_min":56,"x_max":736,"o":"m 56 972 l 736 972 l 736 861 l 458 861 l 458 0 l 333 0 l 333 861 l 56 861 l 56 972 z "},"U":{"ha":1000,"x_min":129,"x_max":871,"o":"m 746 972 l 871 972 l 871 306 q 761 72 871 163 q 500 -19 651 -19 q 238 72 347 -19 q 129 306 129 163 l 129 972 l 254 972 l 254 306 q 327 153 254 213 q 500 94 400 94 q 673 153 600 94 q 746 306 746 213 l 746 972 z "},"V":{"ha":992,"x_min":47,"x_max":949,"o":"m 819 972 l 949 972 l 597 0 l 471 0 l 150 861 l 47 861 l 47 972 l 394 972 l 394 861 l 281 861 l 535 157 l 819 972 z "},"W":{"ha":1290,"x_min":50,"x_max":1240,"o":"m 1111 972 l 1240 972 l 964 0 l 836 0 l 647 543 l 454 0 l 326 0 l 50 972 l 183 972 l 400 163 l 588 704 l 494 972 l 615 972 l 894 163 l 1111 972 z "},"X":{"ha":1008,"x_min":49,"x_max":960,"o":"m 960 63 l 867 -19 l 501 415 l 140 -19 l 49 60 l 428 504 l 76 913 l 167 992 l 503 592 l 840 992 l 929 915 l 578 507 l 960 63 z "},"Y":{"ha":815,"x_min":35,"x_max":783,"o":"m 783 972 l 367 111 l 500 111 l 500 0 l 229 0 l 229 94 l 378 396 l 321 396 l 35 972 l 174 972 l 414 474 l 650 972 l 783 972 z "},"Z":{"ha":857,"x_min":75,"x_max":767,"o":"m 651 499 q 767 278 767 410 q 669 63 767 146 q 424 -19 571 -19 q 190 59 286 -19 q 75 276 93 138 l 563 861 l 133 861 l 133 972 l 708 972 l 708 860 l 206 256 q 281 133 222 175 q 424 92 339 92 q 581 142 522 92 q 639 278 639 192 q 578 408 639 354 l 651 499 z "},"[":{"ha":428,"x_min":111,"x_max":372,"o":"m 372 1017 l 226 1017 l 226 -128 l 372 -128 l 372 -229 l 111 -229 l 111 1118 l 372 1118 l 372 1017 z "},"\\":{"ha":567,"x_min":7,"x_max":560,"o":"m 7 1108 l 110 1143 l 560 -218 l 457 -253 l 7 1108 z "},"]":{"ha":428,"x_min":56,"x_max":317,"o":"m 201 1017 l 56 1017 l 56 1118 l 317 1118 l 317 -229 l 56 -229 l 56 -128 l 201 -128 l 201 1017 z "},"^":{"ha":854,"x_min":83,"x_max":771,"o":"m 467 972 l 771 519 l 676 461 l 426 847 l 176 461 l 83 519 l 386 972 l 467 972 z "},"_":{"ha":736,"x_min":0,"x_max":736,"o":"m 0 -324 l 736 -324 l 736 -418 l 0 -418 l 0 -324 z "},"`":{"ha":276,"x_min":4,"x_max":272,"o":"m 272 1144 l 210 1079 l 4 1256 l 94 1349 l 272 1144 z "},"a":{"ha":769,"x_min":71,"x_max":711,"o":"m 568 722 l 711 0 l 592 0 l 574 100 l 196 -19 q 106 85 142 25 q 71 210 71 146 q 156 404 71 329 q 368 479 242 479 q 504 442 447 479 l 469 617 l 94 617 l 94 722 l 568 722 m 236 103 l 551 203 l 531 301 q 461 353 510 332 q 368 374 413 374 q 242 328 292 374 q 192 210 192 283 q 236 103 192 150 z "},"b":{"ha":899,"x_min":63,"x_max":825,"o":"m 476 742 q 722 649 619 742 q 825 417 825 557 q 721 183 825 276 q 476 89 617 89 q 215 219 313 89 l 182 0 l 63 0 l 243 1140 l 363 1140 l 285 672 q 476 742 368 742 m 476 194 q 635 259 568 194 q 703 417 703 324 q 637 574 703 511 q 476 636 571 636 q 315 573 382 636 q 249 415 249 510 q 315 258 249 321 q 476 194 381 194 z "},"c":{"ha":874,"x_min":76,"x_max":808,"o":"m 461 89 q 686 229 619 89 l 808 206 q 671 41 763 101 q 461 -19 579 -19 q 189 93 301 -19 q 76 365 76 206 q 189 633 76 525 q 461 742 301 742 q 667 683 578 742 q 804 521 757 624 l 682 497 q 461 633 614 633 q 275 558 349 633 q 201 365 201 482 q 274 169 201 249 q 461 89 347 89 z "},"d":{"ha":917,"x_min":74,"x_max":885,"o":"m 765 1140 l 885 1140 l 706 0 l 586 0 l 615 156 q 424 89 535 89 q 178 183 282 89 q 74 418 74 278 q 176 650 74 558 q 424 742 279 742 q 685 613 586 742 l 765 1140 m 424 194 q 584 258 518 194 q 650 415 650 321 q 584 573 650 510 q 424 636 518 636 q 262 574 328 636 q 196 418 196 513 q 263 260 196 325 q 424 194 331 194 z "},"e":{"ha":971,"x_min":76,"x_max":929,"o":"m 465 742 q 681 675 588 742 q 818 497 775 608 l 914 513 l 929 408 l 350 314 l 335 418 l 697 478 q 465 636 629 636 q 273 558 347 636 q 199 361 199 481 q 275 166 199 246 q 467 86 351 86 q 674 196 606 86 l 792 171 q 658 29 743 78 q 467 -19 574 -19 q 191 92 306 -19 q 76 361 76 203 q 189 632 76 522 q 465 742 301 742 z "},"f":{"ha":561,"x_min":42,"x_max":532,"o":"m 346 1150 q 532 1100 454 1150 l 485 999 q 346 1042 424 1042 q 247 1008 286 1042 q 207 914 207 974 q 240 814 207 865 q 329 722 272 763 l 519 722 l 519 614 l 328 614 l 328 0 l 207 0 l 207 614 l 42 614 l 42 722 l 175 722 q 82 914 82 813 q 158 1086 82 1022 q 346 1150 233 1150 z "},"g":{"ha":832,"x_min":40,"x_max":790,"o":"m 542 147 q 681 36 628 106 q 733 -128 733 -33 q 636 -353 733 -267 q 393 -439 539 -439 q 143 -351 246 -439 q 40 -128 40 -264 q 93 32 40 -54 l 200 -17 q 165 -128 165 -71 q 230 -276 165 -221 q 393 -331 294 -331 q 549 -276 490 -331 q 608 -128 608 -221 q 496 46 608 -10 l 438 -92 l 335 -47 l 421 158 q 389 156 401 156 q 171 239 261 156 q 81 449 81 322 q 172 658 81 575 q 397 742 264 742 q 626 643 536 742 l 688 789 l 790 744 l 542 147 m 474 274 l 578 525 q 503 606 553 575 q 397 636 453 636 q 260 582 317 636 q 203 449 203 528 q 258 315 203 368 q 397 261 314 261 q 474 274 439 261 z "},"h":{"ha":839,"x_min":118,"x_max":749,"o":"m 449 742 q 667 640 586 742 q 749 393 749 539 q 617 0 749 190 l 488 0 q 626 394 626 215 q 578 567 626 500 q 438 633 531 633 q 327 595 381 633 q 239 493 274 557 l 239 0 l 118 0 l 118 1140 l 239 1140 l 239 647 q 330 715 272 688 q 449 742 388 742 z "},"i":{"ha":357,"x_min":96,"x_max":261,"o":"m 118 722 l 239 722 l 239 0 l 118 0 l 118 722 m 179 854 q 120 878 144 854 q 96 936 96 901 q 120 995 96 971 q 179 1019 144 1019 q 238 995 214 1019 q 261 936 261 971 q 237 878 261 901 q 179 854 213 854 z "},"j":{"ha":357,"x_min":-40,"x_max":256,"o":"m 118 722 l 239 722 l 239 -196 q 184 -374 239 -310 q 24 -437 129 -437 q -40 -428 -11 -437 l -24 -319 q 24 -326 -1 -326 q 118 -196 118 -326 l 118 722 m 174 854 q 115 878 139 854 q 90 936 90 901 q 115 995 90 971 q 174 1019 139 1019 q 232 995 208 1019 q 256 936 256 971 q 231 878 256 901 q 174 854 207 854 z "},"k":{"ha":744,"x_min":57,"x_max":706,"o":"m 706 76 l 647 -19 l 260 204 l 260 0 l 139 0 l 139 272 l 57 319 l 57 413 l 139 460 l 139 1140 l 260 1140 l 260 526 l 647 742 l 703 644 l 181 367 l 706 76 z "},"l":{"ha":401,"x_min":63,"x_max":363,"o":"m 363 1140 l 199 106 l 313 106 l 313 0 l 63 0 l 243 1140 l 363 1140 z "},"m":{"ha":1125,"x_min":118,"x_max":1007,"o":"m 118 722 l 1007 722 l 1007 0 l 886 0 l 886 614 l 622 614 l 622 0 l 501 0 l 501 614 l 239 614 l 239 0 l 118 0 l 118 722 z "},"n":{"ha":847,"x_min":118,"x_max":729,"o":"m 118 0 l 118 722 l 729 722 l 729 0 l 608 0 l 608 614 l 239 614 l 239 0 l 118 0 z "},"o":{"ha":933,"x_min":76,"x_max":857,"o":"m 191 631 q 248 686 191 631 q 467 742 306 742 q 742 631 628 742 q 857 361 857 521 q 742 92 857 203 q 467 -19 628 -19 q 191 92 306 -19 q 76 361 76 203 q 191 631 76 521 m 276 167 q 314 128 276 167 q 467 89 351 89 q 657 167 582 89 q 732 361 732 246 q 657 556 732 478 q 467 633 582 633 q 276 556 351 633 q 201 361 201 478 q 276 167 201 246 z "},"p":{"ha":894,"x_min":-10,"x_max":821,"o":"m 483 742 q 722 649 622 742 q 821 415 821 556 q 717 182 821 275 q 472 89 613 89 q 210 218 300 89 l 113 -418 l -10 -418 l 131 450 q 247 661 151 581 q 483 742 343 742 m 472 194 q 631 258 564 194 q 699 415 699 322 q 635 573 699 510 q 481 636 572 636 q 315 572 385 636 q 244 415 244 508 q 310 258 244 321 q 472 194 376 194 z "},"q":{"ha":881,"x_min":74,"x_max":818,"o":"m 700 722 l 818 722 l 638 -418 l 519 -418 l 613 154 q 422 90 526 90 q 178 185 282 90 q 74 419 74 279 q 176 651 74 560 q 422 742 278 742 q 685 617 585 742 l 700 722 m 422 196 q 583 259 517 196 q 649 417 649 322 q 583 574 649 511 q 422 636 517 636 q 262 574 328 636 q 196 419 196 513 q 263 261 196 326 q 422 196 331 196 z "},"r":{"ha":653,"x_min":118,"x_max":599,"o":"m 406 742 q 548 658 497 724 q 599 494 599 593 q 590 421 599 456 l 469 443 q 476 494 476 471 q 458 578 476 542 q 403 625 439 614 l 239 533 l 239 0 l 118 0 l 118 722 l 239 722 l 239 649 l 406 742 z "},"s":{"ha":682,"x_min":51,"x_max":643,"o":"m 506 636 q 415 611 444 636 q 386 525 386 586 q 427 438 386 493 q 509 317 468 382 q 550 193 550 251 q 479 37 550 93 q 301 -19 408 -19 q 123 37 194 -19 q 51 193 51 93 q 88 303 51 250 l 203 279 q 174 188 174 229 q 210 113 174 140 q 301 86 247 86 q 393 115 358 86 q 428 192 428 143 q 387 285 428 229 q 305 403 346 340 q 264 524 264 467 q 333 688 264 635 q 499 742 403 742 q 643 703 582 742 l 597 604 q 506 636 558 636 z "},"t":{"ha":532,"x_min":42,"x_max":490,"o":"m 490 722 l 490 614 l 288 614 l 288 0 l 167 0 l 167 614 l 42 614 l 42 722 l 167 722 l 167 931 l 288 931 l 288 722 l 490 722 z "},"u":{"ha":833,"x_min":111,"x_max":722,"o":"m 722 722 l 722 281 q 638 63 722 146 q 417 -19 553 -19 q 196 63 281 -19 q 111 281 111 146 l 111 722 l 232 722 l 232 281 q 283 142 232 194 q 417 89 333 89 q 551 142 500 89 q 601 281 601 194 l 601 722 l 722 722 z "},"v":{"ha":850,"x_min":35,"x_max":822,"o":"m 694 722 l 822 722 l 513 0 l 404 0 l 132 617 l 35 617 l 35 722 l 367 722 l 367 617 l 260 617 l 460 147 l 694 722 z "},"w":{"ha":1064,"x_min":35,"x_max":1029,"o":"m 913 722 l 1029 722 l 806 0 l 693 0 l 531 425 l 371 0 l 257 0 l 35 722 l 156 722 l 324 147 l 472 560 l 413 722 l 529 722 l 742 147 l 913 722 z "},"x":{"ha":800,"x_min":44,"x_max":756,"o":"m 756 57 l 671 -19 l 400 294 l 128 -19 l 44 54 l 329 372 l 63 665 l 150 742 l 401 451 l 650 742 l 735 668 l 472 374 l 756 57 z "},"y":{"ha":793,"x_min":31,"x_max":765,"o":"m 638 722 l 765 722 l 285 -418 l 156 -418 l 374 86 l 299 86 l 31 722 l 164 722 l 400 149 l 638 722 z "},"z":{"ha":726,"x_min":60,"x_max":644,"o":"m 571 429 q 644 250 644 356 q 559 56 644 132 q 349 -19 474 -19 q 163 42 243 -19 q 60 196 83 103 l 450 617 l 114 617 l 114 722 l 592 722 l 592 618 l 192 185 q 349 86 235 86 q 474 132 424 86 q 524 250 524 178 q 490 343 524 300 l 571 429 z "},"{":{"ha":526,"x_min":63,"x_max":471,"o":"m 324 622 q 221 444 324 501 q 324 265 324 386 l 324 0 q 355 -97 324 -67 q 454 -128 386 -128 l 471 -128 l 471 -229 l 451 -229 q 208 0 208 -229 l 208 265 q 178 362 208 332 q 83 393 149 392 l 63 393 l 63 496 l 83 496 q 178 526 149 496 q 208 622 208 556 l 208 888 q 451 1118 208 1118 l 471 1118 l 471 1017 l 454 1017 q 355 986 386 1017 q 324 888 324 956 l 324 622 z "},"|":{"ha":407,"x_min":146,"x_max":261,"o":"m 146 1140 l 261 1140 l 261 -418 l 146 -418 l 146 1140 z "},"}":{"ha":526,"x_min":56,"x_max":464,"o":"m 203 622 l 203 888 q 172 986 203 956 q 72 1017 140 1017 l 56 1017 l 56 1118 l 75 1118 q 318 888 318 1118 l 318 622 q 348 526 318 556 q 443 496 378 496 l 464 496 l 464 393 l 443 393 q 348 362 378 392 q 318 265 318 332 l 318 0 q 75 -229 318 -229 l 56 -229 l 56 -128 l 72 -128 q 172 -97 140 -128 q 203 0 203 -67 l 203 265 q 306 444 203 386 q 203 622 203 501 z "},"~":{"ha":839,"x_min":76,"x_max":763,"o":"m 694 524 l 763 443 q 574 350 661 350 q 421 389 521 350 q 267 428 321 428 q 210 413 235 428 q 144 364 185 399 l 76 443 q 267 536 178 536 q 419 497 319 536 q 574 458 518 458 q 694 524 625 458 z "},"¡":{"ha":439,"x_min":69,"x_max":342,"o":"m 69 -250 l 178 433 l 301 433 l 193 -250 l 69 -250 m 181 581 q 168 594 181 581 q 154 647 154 608 q 182 714 154 686 q 249 742 210 742 q 315 714 288 742 q 342 647 342 686 q 315 581 342 608 q 249 553 288 553 q 181 581 208 553 z "},"¢":{"ha":882,"x_min":83,"x_max":813,"o":"m 693 354 l 813 331 q 676 166 767 226 q 468 106 586 106 q 452 106 463 106 q 436 107 442 107 l 415 -19 l 311 -3 l 332 131 q 152 271 221 172 q 83 490 83 369 q 190 752 83 644 q 449 867 296 860 l 469 992 l 574 976 l 554 858 q 808 646 729 821 l 689 622 q 538 753 638 725 l 453 211 l 468 211 q 693 354 625 211 m 206 490 q 244 342 206 410 q 350 240 283 275 l 432 760 q 269 672 333 747 q 206 490 206 596 z "},"£":{"ha":811,"x_min":76,"x_max":742,"o":"m 582 92 q 742 121 644 92 l 742 7 q 582 -19 665 -19 q 426 4 525 -19 q 268 28 326 28 q 76 -19 168 28 l 76 90 q 229 138 140 128 l 229 457 l 76 457 l 76 565 l 204 565 q 115 756 115 657 q 203 927 115 863 q 415 992 290 992 q 628 927 540 992 q 715 756 715 863 q 701 676 715 718 l 582 703 q 590 756 590 731 q 540 846 590 811 q 415 881 490 881 q 291 846 342 881 q 240 756 240 811 q 272 656 240 707 q 358 565 304 604 l 529 565 l 529 457 l 354 457 l 354 131 q 424 115 378 126 q 508 98 471 104 q 582 92 546 92 z "},"¤":{"ha":924,"x_min":83,"x_max":840,"o":"m 750 486 q 697 319 750 394 l 840 176 l 772 108 l 629 251 q 463 197 553 197 q 294 251 371 197 l 151 108 l 83 176 l 226 319 q 174 486 174 394 q 226 653 174 581 l 83 797 l 151 865 l 294 722 q 463 775 369 775 q 629 722 554 775 l 772 865 l 840 797 l 697 653 q 750 486 750 581 m 271 486 q 327 351 271 407 q 463 294 383 294 q 597 351 540 294 q 653 486 653 408 q 597 622 653 565 q 463 678 542 678 q 326 622 382 678 q 271 486 271 567 z "},"¥":{"ha":818,"x_min":56,"x_max":763,"o":"m 763 972 l 493 496 l 708 496 l 708 393 l 472 393 l 472 267 l 708 267 l 708 164 l 472 164 l 472 0 l 347 0 l 347 164 l 111 164 l 111 267 l 347 267 l 347 393 l 111 393 l 111 496 l 326 496 l 56 972 l 197 972 l 411 576 l 626 972 l 763 972 z "},"¦":{"ha":407,"x_min":146,"x_max":261,"o":"m 146 221 l 261 221 l 261 -418 l 146 -418 l 146 221 m 146 1140 l 261 1140 l 261 503 l 146 503 l 146 1140 z "},"§":{"ha":840,"x_min":90,"x_max":750,"o":"m 610 46 q 717 -164 717 -29 q 628 -368 717 -296 q 406 -440 539 -440 q 209 -388 292 -440 q 103 -237 126 -336 l 226 -212 q 290 -299 240 -268 q 406 -329 339 -329 q 538 -285 488 -329 q 589 -164 589 -242 q 540 -47 589 -93 q 418 0 492 0 q 185 74 279 0 q 90 276 90 147 q 128 414 90 354 q 231 507 167 474 q 125 717 125 579 q 213 920 125 849 q 435 992 301 992 q 632 940 549 992 q 739 790 715 888 l 615 765 q 551 850 601 819 q 435 881 501 881 q 303 838 354 881 q 253 717 253 794 q 301 598 253 646 q 424 550 350 550 q 656 477 563 550 q 750 276 750 404 q 711 138 750 199 q 610 46 672 78 m 408 108 q 622 276 622 108 q 568 397 622 353 q 432 442 514 442 q 218 276 218 442 q 273 153 218 199 q 408 108 328 108 z "},"¨":{"ha":439,"x_min":7,"x_max":432,"o":"m 90 1094 q 31 1118 56 1094 q 7 1176 7 1142 q 31 1235 7 1211 q 90 1260 56 1260 q 149 1235 125 1260 q 172 1176 172 1211 q 148 1118 172 1142 q 90 1094 124 1094 m 350 1094 q 291 1118 315 1094 q 267 1176 267 1142 q 291 1235 267 1211 q 350 1260 315 1260 q 408 1235 385 1260 q 432 1176 432 1211 q 408 1118 432 1142 q 350 1094 383 1094 z "},"©":{"ha":1011,"x_min":90,"x_max":921,"o":"m 513 393 q 656 486 608 393 l 732 471 q 642 367 701 407 q 513 326 583 326 q 339 399 410 326 q 268 569 268 471 q 339 737 268 668 q 513 806 410 806 q 641 767 582 806 q 731 664 700 728 l 654 649 q 513 739 608 739 q 394 690 440 739 q 347 569 347 640 q 393 445 347 497 q 513 393 439 393 m 212 860 q 273 921 212 860 q 506 982 333 982 q 799 860 678 982 q 921 567 921 739 q 799 272 921 394 q 506 150 678 150 q 212 272 333 150 q 90 567 90 394 q 212 860 90 739 m 506 217 q 750 320 649 217 q 851 567 851 424 q 750 813 851 711 q 506 915 649 915 q 260 813 361 915 q 160 567 160 710 q 262 319 160 422 q 506 217 364 217 z "},"ª":{"ha":626,"x_min":83,"x_max":543,"o":"m 442 972 l 543 460 l 446 460 l 433 528 l 175 446 q 83 611 83 519 q 146 747 83 694 q 296 799 208 799 q 383 779 346 799 l 363 889 l 99 889 l 99 972 l 442 972 m 207 543 l 415 610 l 403 674 q 296 718 367 718 q 213 689 246 718 q 181 611 181 660 q 207 543 181 572 m 90 322 l 543 322 l 543 229 l 90 229 l 90 322 z "},"«":{"ha":836,"x_min":97,"x_max":753,"o":"m 97 415 l 383 699 l 458 624 l 203 376 l 458 128 l 383 54 l 97 339 l 97 415 m 446 340 l 446 413 l 678 642 l 753 568 l 551 376 l 753 185 l 678 110 l 446 340 z "},"¬":{"ha":826,"x_min":83,"x_max":736,"o":"m 83 589 l 736 589 l 736 315 l 639 315 l 639 483 l 83 483 l 83 589 z "},"­":{"ha":694,"x_min":118,"x_max":576,"o":"m 118 474 l 576 474 l 576 363 l 118 363 l 118 474 z "},"®":{"ha":1013,"x_min":90,"x_max":922,"o":"m 683 385 l 463 549 l 521 549 q 625 583 582 549 q 668 676 668 618 q 626 769 668 735 q 524 804 585 804 l 414 804 l 340 343 l 414 343 l 435 485 l 643 331 l 683 385 m 475 740 l 524 740 q 574 723 556 740 q 593 676 593 706 q 572 629 593 647 q 521 611 551 611 l 454 611 l 475 740 m 506 915 q 260 813 361 915 q 160 567 160 710 q 262 321 160 424 q 506 218 364 218 q 751 321 650 218 q 853 567 853 424 q 751 813 853 711 q 506 915 649 915 m 212 860 q 273 921 212 860 q 506 982 333 982 q 800 860 678 982 q 922 567 922 739 q 800 273 922 394 q 506 151 678 151 q 212 273 333 151 q 90 567 90 394 q 212 860 90 739 z "},"¯":{"ha":442,"x_min":8,"x_max":433,"o":"m 8 1215 l 433 1215 l 433 1117 l 8 1117 l 8 1215 z "},"°":{"ha":565,"x_min":69,"x_max":496,"o":"m 373 868 q 355 887 373 868 q 283 906 336 906 q 193 869 231 906 q 156 779 156 832 q 193 689 156 726 q 283 651 231 651 q 373 689 336 651 q 410 779 410 726 q 373 868 410 831 m 132 930 q 163 961 132 930 q 283 992 194 992 q 434 930 372 992 q 496 779 496 868 q 434 628 496 690 q 283 565 372 565 q 132 628 194 565 q 69 779 69 690 q 132 930 69 868 z "},"±":{"ha":819,"x_min":83,"x_max":736,"o":"m 83 175 l 736 175 l 736 69 l 83 69 l 83 175 m 463 815 l 463 606 l 736 606 l 736 500 l 463 500 l 463 290 l 357 290 l 357 500 l 83 500 l 83 606 l 357 606 l 357 815 l 463 815 z "},"²":{"ha":492,"x_min":56,"x_max":429,"o":"m 186 629 l 426 629 l 426 542 l 56 542 l 56 614 l 286 876 q 320 920 311 901 q 329 969 329 939 q 307 1020 329 1001 q 250 1039 285 1039 q 156 944 171 1039 l 57 960 q 123 1083 74 1038 q 250 1128 172 1128 q 377 1084 325 1128 q 429 969 429 1040 q 358 824 429 906 l 186 629 z "},"³":{"ha":532,"x_min":60,"x_max":463,"o":"m 463 710 q 404 579 463 629 q 260 529 346 529 q 129 572 185 529 q 60 683 74 614 l 157 699 q 260 617 174 617 q 333 643 304 617 q 363 710 363 669 q 333 778 363 751 q 260 806 304 806 l 190 806 l 190 885 l 319 1029 l 101 1029 l 101 1115 l 444 1115 l 444 1042 l 303 886 q 417 826 372 876 q 463 710 463 776 z "},"´":{"ha":271,"x_min":1,"x_max":269,"o":"m 64 1079 l 1 1144 l 179 1349 l 269 1256 l 64 1079 z "},"µ":{"ha":840,"x_min":118,"x_max":729,"o":"m 608 722 l 729 722 l 729 281 q 644 63 729 146 q 424 -19 560 -19 q 239 43 304 -19 l 239 -418 l 118 -418 l 118 722 l 239 722 l 239 281 q 290 142 239 194 q 424 89 340 89 q 558 142 507 89 q 608 281 608 194 l 608 722 z "},"¶":{"ha":849,"x_min":83,"x_max":772,"o":"m 772 972 l 772 886 l 639 886 l 639 -229 l 539 -229 l 539 886 l 404 886 l 404 -229 l 307 -229 l 307 525 q 149 590 215 525 q 83 749 83 656 q 149 907 83 842 q 307 972 215 972 l 772 972 z "},"·":{"ha":319,"x_min":69,"x_max":250,"o":"m 250 494 q 224 431 250 458 q 160 404 197 404 q 96 431 122 404 q 69 494 69 458 q 96 559 69 533 q 160 585 122 585 q 224 559 197 585 q 250 494 250 533 z "},"¸":{"ha":235,"x_min":6,"x_max":229,"o":"m 229 -247 q 166 -344 229 -312 q 6 -378 103 -375 l 19 -287 q 125 -235 125 -286 q 38 -178 125 -193 l 49 -106 q 229 -247 229 -132 z "},"¹":{"ha":413,"x_min":63,"x_max":322,"o":"m 242 628 l 322 628 l 322 542 l 63 542 l 63 628 l 144 628 l 208 1022 l 82 1003 l 82 1090 l 322 1128 l 242 628 z "},"º":{"ha":724,"x_min":83,"x_max":640,"o":"m 489 583 q 514 609 489 583 q 539 713 539 636 q 490 842 539 789 q 361 896 440 896 q 234 842 283 896 q 185 713 185 789 q 235 583 185 636 q 361 529 285 529 q 489 583 439 529 m 559 903 q 600 863 559 903 q 640 713 640 824 q 559 522 640 601 q 361 443 478 443 q 165 522 246 443 q 83 713 83 601 q 165 903 83 824 q 361 982 246 982 q 559 903 478 982 m 83 322 l 640 322 l 640 229 l 83 229 l 83 322 z "},"»":{"ha":836,"x_min":83,"x_max":739,"o":"m 453 699 l 739 415 l 739 339 l 453 54 l 378 128 l 633 376 l 378 624 l 453 699 m 390 413 l 390 340 l 158 110 l 83 185 l 285 376 l 83 568 l 158 642 l 390 413 z "},"¼":{"ha":1103,"x_min":69,"x_max":1040,"o":"m 835 947 l 343 -19 l 256 25 l 747 992 l 835 947 m 249 486 l 329 486 l 329 400 l 69 400 l 69 486 l 151 486 l 215 881 l 89 861 l 89 949 l 329 986 l 249 486 m 949 211 l 1040 211 l 1040 126 l 935 126 l 915 0 l 822 0 l 842 126 l 593 126 l 593 206 l 883 574 l 996 574 l 706 211 l 856 211 l 875 324 l 968 324 l 949 211 z "},"½":{"ha":1164,"x_min":69,"x_max":1088,"o":"m 833 947 l 342 -19 l 256 25 l 747 992 l 833 947 m 249 486 l 329 486 l 329 400 l 69 400 l 69 486 l 151 486 l 215 881 l 89 861 l 89 949 l 329 986 l 249 486 m 844 88 l 1085 88 l 1085 0 l 714 0 l 714 72 l 944 335 q 978 378 969 360 q 988 428 988 397 q 965 478 988 460 q 908 497 943 497 q 814 403 829 497 l 715 418 q 781 541 732 496 q 908 586 831 586 q 1035 542 983 586 q 1088 428 1088 499 q 1017 282 1088 364 l 844 88 z "},"¾":{"ha":1192,"x_min":69,"x_max":1129,"o":"m 472 567 q 414 436 472 486 q 269 386 356 386 q 139 428 194 386 q 69 540 83 471 l 167 556 q 269 474 183 474 q 343 500 314 474 q 372 567 372 526 q 343 635 372 608 q 269 663 314 663 l 200 663 l 200 742 l 329 886 l 111 886 l 111 972 l 454 972 l 454 899 l 313 743 q 427 683 382 733 q 472 567 472 633 m 922 947 l 432 -19 l 344 25 l 836 992 l 922 947 m 1038 211 l 1129 211 l 1129 126 l 1024 126 l 1004 0 l 911 0 l 931 126 l 682 126 l 682 206 l 972 574 l 1085 574 l 794 211 l 944 211 l 964 324 l 1057 324 l 1038 211 z "},"¿":{"ha":726,"x_min":69,"x_max":678,"o":"m 69 6 q 139 190 69 122 q 321 268 208 257 l 347 436 l 468 436 l 424 161 q 248 128 301 161 q 194 6 194 94 q 245 -115 194 -72 q 378 -158 296 -158 q 490 -130 442 -158 q 554 -50 538 -101 l 678 -78 q 569 -220 651 -171 q 378 -269 488 -269 q 157 -198 244 -269 q 69 6 69 -126 m 351 581 q 337 594 351 581 q 324 647 324 608 q 351 714 324 686 q 418 742 379 742 q 484 714 457 742 q 511 647 511 686 q 484 581 511 608 q 418 553 457 553 q 351 581 378 553 z "},"À":{"ha":992,"x_min":43,"x_max":949,"o":"m 544 1144 l 482 1079 l 276 1256 l 367 1349 l 544 1144 m 817 0 l 686 340 l 301 340 l 172 0 l 43 0 l 435 981 l 557 981 l 949 0 l 817 0 m 342 449 l 647 449 l 494 840 l 342 449 z "},"Á":{"ha":992,"x_min":43,"x_max":949,"o":"m 510 1079 l 447 1144 l 625 1349 l 715 1256 l 510 1079 m 817 0 l 686 340 l 301 340 l 172 0 l 43 0 l 435 981 l 557 981 l 949 0 l 817 0 m 342 449 l 647 449 l 494 840 l 342 449 z "},"Â":{"ha":992,"x_min":43,"x_max":949,"o":"m 546 1307 l 692 1139 l 628 1079 l 494 1199 l 360 1079 l 297 1139 l 442 1307 l 546 1307 m 817 0 l 686 340 l 301 340 l 172 0 l 43 0 l 435 981 l 557 981 l 949 0 l 817 0 m 342 449 l 647 449 l 494 840 l 342 449 z "},"Ã":{"ha":992,"x_min":43,"x_max":949,"o":"m 621 1256 l 715 1242 q 578 1094 683 1094 q 488 1126 543 1094 q 407 1158 433 1158 q 361 1094 375 1158 l 267 1108 q 404 1256 299 1256 q 494 1224 439 1256 q 575 1192 549 1192 q 621 1256 608 1192 m 817 0 l 686 340 l 301 340 l 172 0 l 43 0 l 435 981 l 557 981 l 949 0 l 817 0 m 342 449 l 647 449 l 494 840 l 342 449 z "},"Ä":{"ha":992,"x_min":43,"x_max":949,"o":"m 367 1094 q 308 1118 332 1094 q 283 1176 283 1142 q 308 1235 283 1211 q 367 1260 332 1260 q 425 1235 401 1260 q 449 1176 449 1211 q 424 1118 449 1142 q 367 1094 400 1094 m 626 1094 q 567 1118 592 1094 q 543 1176 543 1142 q 567 1235 543 1211 q 626 1260 592 1260 q 685 1235 661 1260 q 708 1176 708 1211 q 684 1118 708 1142 q 626 1094 660 1094 m 817 0 l 686 340 l 301 340 l 172 0 l 43 0 l 435 981 l 557 981 l 949 0 l 817 0 m 342 449 l 647 449 l 494 840 l 342 449 z "},"Å":{"ha":992,"x_min":43,"x_max":949,"o":"m 576 935 l 949 0 l 817 0 l 686 340 l 301 340 l 172 0 l 43 0 l 417 935 q 344 1064 344 979 q 389 1169 344 1126 q 496 1213 433 1213 q 604 1169 560 1213 q 649 1064 649 1126 q 576 935 649 979 m 556 1123 q 543 1135 556 1123 q 496 1147 531 1147 q 437 1123 461 1147 q 413 1064 413 1099 q 437 1005 413 1029 q 496 981 461 981 q 556 1005 531 981 q 581 1064 581 1029 q 556 1123 581 1099 m 342 449 l 647 449 l 494 840 l 342 449 z "},"Æ":{"ha":1275,"x_min":43,"x_max":1192,"o":"m 746 111 l 1192 111 l 1192 0 l 621 0 l 621 339 l 300 339 l 171 0 l 43 0 l 431 972 l 1185 972 l 1185 861 l 746 861 l 746 558 l 1168 558 l 1168 447 l 746 447 l 746 111 m 501 861 l 340 447 l 621 447 l 621 861 l 501 861 z "},"Ç":{"ha":1114,"x_min":86,"x_max":1044,"o":"m 768 -247 q 705 -344 768 -312 q 544 -378 642 -375 l 558 -287 q 664 -235 664 -286 q 576 -178 664 -193 l 588 -106 q 768 -247 768 -132 m 594 94 q 917 292 818 94 l 1044 267 q 865 57 983 133 q 594 -19 747 -19 q 234 131 382 -19 q 86 494 86 282 q 235 848 86 704 q 594 992 383 992 q 864 917 747 992 q 1042 713 981 842 l 914 688 q 594 878 815 878 q 324 768 432 878 q 217 494 217 658 q 324 210 217 326 q 594 94 431 94 z "},"È":{"ha":793,"x_min":139,"x_max":710,"o":"m 513 1144 l 450 1079 l 244 1256 l 335 1349 l 513 1144 m 710 111 l 264 111 l 264 449 l 686 449 l 686 560 l 264 560 l 264 861 l 701 861 l 701 972 l 139 972 l 139 0 l 710 0 l 710 111 z "},"É":{"ha":793,"x_min":139,"x_max":710,"o":"m 424 1079 l 361 1144 l 539 1349 l 629 1256 l 424 1079 m 710 111 l 264 111 l 264 449 l 686 449 l 686 560 l 264 560 l 264 861 l 701 861 l 701 972 l 139 972 l 139 0 l 710 0 l 710 111 z "},"Ê":{"ha":793,"x_min":139,"x_max":710,"o":"m 485 1307 l 631 1139 l 567 1079 l 433 1199 l 299 1079 l 236 1139 l 381 1307 l 485 1307 m 710 111 l 264 111 l 264 449 l 686 449 l 686 560 l 264 560 l 264 861 l 701 861 l 701 972 l 139 972 l 139 0 l 710 0 l 710 111 z "},"Ë":{"ha":793,"x_min":139,"x_max":710,"o":"m 294 1094 q 235 1118 260 1094 q 211 1176 211 1142 q 235 1235 211 1211 q 294 1260 260 1260 q 353 1235 329 1260 q 376 1176 376 1211 q 352 1118 376 1142 q 294 1094 328 1094 m 569 1094 q 510 1118 535 1094 q 486 1176 486 1142 q 510 1235 486 1211 q 569 1260 535 1260 q 628 1235 604 1260 q 651 1176 651 1211 q 627 1118 651 1142 q 569 1094 603 1094 m 264 111 l 710 111 l 710 0 l 139 0 l 139 972 l 701 972 l 701 861 l 264 861 l 264 560 l 686 560 l 686 449 l 264 449 l 264 111 z "},"Ì":{"ha":403,"x_min":1,"x_max":269,"o":"m 269 1144 l 207 1079 l 1 1256 l 92 1349 l 269 1144 m 139 972 l 264 972 l 264 0 l 139 0 l 139 972 z "},"Í":{"ha":403,"x_min":133,"x_max":401,"o":"m 196 1079 l 133 1144 l 311 1349 l 401 1256 l 196 1079 m 139 972 l 264 972 l 264 0 l 139 0 l 139 972 z "},"Î":{"ha":403,"x_min":4,"x_max":399,"o":"m 253 1307 l 399 1139 l 335 1079 l 201 1199 l 67 1079 l 4 1139 l 149 1307 l 253 1307 m 139 972 l 264 972 l 264 0 l 139 0 l 139 972 z "},"Ï":{"ha":403,"x_min":0,"x_max":403,"o":"m 81 1094 q 23 1118 46 1094 q 0 1176 0 1142 q 23 1235 0 1211 q 81 1260 46 1260 q 137 1235 114 1260 q 160 1176 160 1211 q 137 1118 160 1142 q 81 1094 114 1094 m 324 1094 q 266 1118 289 1094 q 243 1176 243 1142 q 266 1235 243 1211 q 324 1260 289 1260 q 380 1235 357 1260 q 403 1176 403 1211 q 380 1118 403 1142 q 324 1094 357 1094 m 139 972 l 264 972 l 264 0 l 139 0 l 139 972 z "},"Ð":{"ha":1053,"x_min":56,"x_max":967,"o":"m 506 972 q 835 833 703 972 q 967 494 967 694 q 811 148 967 296 q 454 0 656 0 l 129 0 l 200 450 l 56 450 l 56 558 l 218 558 l 283 972 l 506 972 m 453 111 q 722 226 607 111 q 836 494 836 342 q 742 756 836 651 q 497 861 649 861 l 389 861 l 342 558 l 483 558 l 483 450 l 324 450 l 271 111 l 453 111 z "},"Ñ":{"ha":1076,"x_min":139,"x_max":938,"o":"m 675 1256 l 769 1242 q 632 1094 738 1094 q 542 1126 597 1094 q 461 1158 488 1158 q 415 1094 429 1158 l 321 1108 q 458 1256 353 1256 q 548 1224 493 1256 q 629 1192 603 1192 q 675 1256 663 1192 m 815 972 l 938 972 l 938 0 l 838 0 l 261 793 l 261 0 l 139 0 l 139 972 l 268 972 l 815 218 l 815 972 z "},"Ò":{"ha":1204,"x_min":86,"x_max":1118,"o":"m 660 1144 l 597 1079 l 392 1256 l 482 1349 l 660 1144 m 239 844 q 315 918 239 844 q 603 992 392 992 q 966 844 814 992 q 1118 486 1118 696 q 966 128 1118 276 q 603 -19 814 -19 q 239 128 392 -19 q 86 486 86 276 q 239 844 86 696 m 603 94 q 876 208 765 94 q 988 486 988 321 q 876 764 988 650 q 603 878 765 878 q 328 764 439 878 q 217 486 217 650 q 328 208 217 321 q 603 94 439 94 z "},"Ó":{"ha":1204,"x_min":86,"x_max":1118,"o":"m 607 1079 l 544 1144 l 722 1349 l 813 1256 l 607 1079 m 239 844 q 315 918 239 844 q 603 992 392 992 q 966 844 814 992 q 1118 486 1118 696 q 966 128 1118 276 q 603 -19 814 -19 q 239 128 392 -19 q 86 486 86 276 q 239 844 86 696 m 603 94 q 876 208 765 94 q 988 486 988 321 q 876 764 988 650 q 603 878 765 878 q 328 764 439 878 q 217 486 217 650 q 328 208 217 321 q 603 94 439 94 z "},"Ô":{"ha":1204,"x_min":86,"x_max":1118,"o":"m 653 1307 l 799 1139 l 735 1079 l 601 1199 l 467 1079 l 404 1139 l 549 1307 l 653 1307 m 239 844 q 315 918 239 844 q 603 992 392 992 q 966 844 814 992 q 1118 486 1118 696 q 966 128 1118 276 q 603 -19 814 -19 q 239 128 392 -19 q 86 486 86 276 q 239 844 86 696 m 603 94 q 876 208 765 94 q 988 486 988 321 q 876 764 988 650 q 603 878 765 878 q 328 764 439 878 q 217 486 217 650 q 328 208 217 321 q 603 94 439 94 z "},"Õ":{"ha":1204,"x_min":86,"x_max":1118,"o":"m 732 1256 l 826 1242 q 689 1094 794 1094 q 599 1126 654 1094 q 518 1158 544 1158 q 472 1094 486 1158 l 378 1108 q 515 1256 410 1256 q 605 1224 550 1256 q 686 1192 660 1192 q 732 1256 719 1192 m 239 844 q 315 918 239 844 q 603 992 392 992 q 966 844 814 992 q 1118 486 1118 696 q 966 128 1118 276 q 603 -19 814 -19 q 239 128 392 -19 q 86 486 86 276 q 239 844 86 696 m 603 94 q 876 208 765 94 q 988 486 988 321 q 876 764 988 650 q 603 878 765 878 q 328 764 439 878 q 217 486 217 650 q 328 208 217 321 q 603 94 439 94 z "},"Ö":{"ha":1204,"x_min":86,"x_max":1118,"o":"m 451 1094 q 392 1118 417 1094 q 368 1176 368 1142 q 392 1235 368 1211 q 451 1260 417 1260 q 510 1235 486 1260 q 533 1176 533 1211 q 509 1118 533 1142 q 451 1094 485 1094 m 754 1094 q 695 1118 719 1094 q 671 1176 671 1142 q 695 1235 671 1211 q 754 1260 719 1260 q 813 1235 789 1260 q 836 1176 836 1211 q 812 1118 836 1142 q 754 1094 788 1094 m 239 844 q 315 918 239 844 q 603 992 392 992 q 966 844 814 992 q 1118 486 1118 696 q 966 128 1118 276 q 603 -19 814 -19 q 239 128 392 -19 q 86 486 86 276 q 239 844 86 696 m 603 94 q 876 208 765 94 q 988 486 988 321 q 876 764 988 650 q 603 878 765 878 q 328 764 439 878 q 217 486 217 650 q 328 208 217 321 q 603 94 439 94 z "},"×":{"ha":703,"x_min":83,"x_max":619,"o":"m 619 639 l 425 444 l 619 251 l 544 176 l 351 371 l 157 176 l 83 251 l 276 444 l 83 639 l 157 713 l 351 519 l 544 713 l 619 639 z "},"Ø":{"ha":1204,"x_min":57,"x_max":1146,"o":"m 1146 951 l 1000 807 q 1118 486 1118 667 q 965 128 1118 276 q 601 -19 813 -19 q 283 89 422 -19 l 136 -57 l 57 21 l 203 165 q 86 486 86 304 q 238 844 86 696 q 601 992 390 992 q 921 883 779 992 l 1067 1029 l 1146 951 m 217 486 q 289 253 217 356 l 836 800 q 601 878 733 878 q 328 764 439 878 q 217 486 217 650 m 988 486 q 914 719 988 615 l 367 172 q 601 94 467 94 q 876 208 764 94 q 988 486 988 322 z "},"Ù":{"ha":1000,"x_min":129,"x_max":871,"o":"m 567 1144 l 504 1079 l 299 1256 l 389 1349 l 567 1144 m 746 972 l 871 972 l 871 306 q 761 72 871 163 q 500 -19 651 -19 q 238 72 347 -19 q 129 306 129 163 l 129 972 l 254 972 l 254 306 q 327 153 254 213 q 500 94 400 94 q 673 153 600 94 q 746 306 746 213 l 746 972 z "},"Ú":{"ha":1000,"x_min":129,"x_max":871,"o":"m 496 1079 l 433 1144 l 611 1349 l 701 1256 l 496 1079 m 746 972 l 871 972 l 871 306 q 761 72 871 163 q 500 -19 651 -19 q 238 72 347 -19 q 129 306 129 163 l 129 972 l 254 972 l 254 306 q 327 153 254 213 q 500 94 400 94 q 673 153 600 94 q 746 306 746 213 l 746 972 z "},"Û":{"ha":1000,"x_min":129,"x_max":871,"o":"m 551 1307 l 697 1139 l 633 1079 l 500 1199 l 365 1079 l 303 1139 l 447 1307 l 551 1307 m 746 972 l 871 972 l 871 306 q 761 72 871 163 q 500 -19 651 -19 q 238 72 347 -19 q 129 306 129 163 l 129 972 l 254 972 l 254 306 q 327 153 254 213 q 500 94 400 94 q 673 153 600 94 q 746 306 746 213 l 746 972 z "},"Ü":{"ha":1000,"x_min":129,"x_max":871,"o":"m 357 1094 q 298 1118 322 1094 q 274 1176 274 1142 q 298 1235 274 1211 q 357 1260 322 1260 q 415 1235 392 1260 q 439 1176 439 1211 q 415 1118 439 1142 q 357 1094 390 1094 m 644 1094 q 585 1118 610 1094 q 561 1176 561 1142 q 585 1235 561 1211 q 644 1260 610 1260 q 703 1235 679 1260 q 726 1176 726 1211 q 702 1118 726 1142 q 644 1094 678 1094 m 746 972 l 871 972 l 871 306 q 761 72 871 163 q 500 -19 651 -19 q 238 72 347 -19 q 129 306 129 163 l 129 972 l 254 972 l 254 306 q 327 153 254 213 q 500 94 400 94 q 673 153 600 94 q 746 306 746 213 l 746 972 z "},"Ý":{"ha":815,"x_min":35,"x_max":783,"o":"m 431 1079 l 368 1144 l 546 1349 l 636 1256 l 431 1079 m 783 972 l 367 111 l 500 111 l 500 0 l 229 0 l 229 94 l 378 396 l 321 396 l 35 972 l 174 972 l 414 474 l 650 972 l 783 972 z "},"Þ":{"ha":846,"x_min":76,"x_max":776,"o":"m 457 789 q 686 714 596 789 q 776 510 776 639 q 686 290 776 375 q 457 206 596 206 l 233 206 l 200 0 l 76 0 l 231 972 l 356 972 l 326 789 l 457 789 m 457 317 q 597 369 544 317 q 649 508 649 422 q 597 633 649 589 q 457 678 544 678 l 308 678 l 251 317 l 457 317 z "},"ß":{"ha":954,"x_min":42,"x_max":906,"o":"m 615 617 q 645 537 615 575 q 718 466 675 499 q 803 397 761 433 q 876 306 846 361 q 906 183 906 250 q 841 36 906 92 q 681 -19 776 -19 q 519 36 585 -19 q 453 183 453 92 q 467 246 453 214 l 583 222 q 576 178 576 206 q 606 110 576 135 q 681 86 635 86 q 756 111 729 86 q 782 182 782 136 q 752 273 782 231 q 680 349 722 315 q 595 419 638 383 q 523 506 553 456 q 493 618 493 557 q 513 697 493 658 q 556 763 532 736 q 600 829 581 790 q 619 908 619 868 q 561 1006 619 969 q 413 1043 503 1043 q 265 1005 324 1043 q 206 906 206 967 q 329 722 206 810 l 329 0 l 208 0 l 208 614 l 42 614 l 42 722 l 176 722 q 82 906 82 817 q 177 1083 82 1015 q 413 1151 272 1151 q 647 1085 553 1151 q 742 908 742 1018 q 722 815 742 860 q 678 743 703 771 q 635 681 654 715 q 615 617 615 647 z "},"à":{"ha":769,"x_min":71,"x_max":711,"o":"m 399 914 l 339 851 l 142 1021 l 228 1110 l 399 914 m 568 722 l 711 0 l 592 0 l 574 100 l 196 -19 q 106 85 142 25 q 71 210 71 146 q 156 404 71 329 q 368 479 242 479 q 504 442 447 479 l 469 617 l 94 617 l 94 722 l 568 722 m 236 103 l 551 203 l 531 301 q 461 353 510 332 q 368 374 413 374 q 242 328 292 374 q 192 210 192 283 q 236 103 192 150 z "},"á":{"ha":769,"x_min":71,"x_max":711,"o":"m 357 849 l 297 911 l 468 1107 l 554 1018 l 357 849 m 568 722 l 711 0 l 592 0 l 574 100 l 196 -19 q 106 85 142 25 q 71 210 71 146 q 156 404 71 329 q 368 479 242 479 q 504 442 447 479 l 469 617 l 94 617 l 94 722 l 568 722 m 236 103 l 551 203 l 531 301 q 461 353 510 332 q 368 374 413 374 q 242 328 292 374 q 192 210 192 283 q 236 103 192 150 z "},"â":{"ha":769,"x_min":71,"x_max":711,"o":"m 393 1067 l 533 906 l 472 849 l 344 963 l 215 849 l 154 906 l 293 1067 l 393 1067 m 568 722 l 711 0 l 592 0 l 574 100 l 196 -19 q 106 85 142 25 q 71 210 71 146 q 156 404 71 329 q 368 479 242 479 q 504 442 447 479 l 469 617 l 94 617 l 94 722 l 568 722 m 236 103 l 551 203 l 531 301 q 461 353 510 332 q 368 374 413 374 q 242 328 292 374 q 192 210 192 283 q 236 103 192 150 z "},"ã":{"ha":769,"x_min":71,"x_max":711,"o":"m 460 1008 l 550 994 q 418 854 518 854 q 332 885 385 854 q 254 915 279 915 q 226 901 235 915 q 210 854 217 886 l 119 867 q 251 1008 149 1008 q 337 978 285 1008 q 415 947 389 947 q 460 1008 449 947 m 568 722 l 711 0 l 592 0 l 574 100 l 196 -19 q 106 85 142 25 q 71 210 71 146 q 156 404 71 329 q 368 479 242 479 q 504 442 447 479 l 469 617 l 94 617 l 94 722 l 568 722 m 236 103 l 551 203 l 531 301 q 461 353 510 332 q 368 374 413 374 q 242 328 292 374 q 192 210 192 283 q 236 103 192 150 z "},"ä":{"ha":769,"x_min":71,"x_max":711,"o":"m 200 854 q 143 877 167 854 q 119 933 119 900 q 143 990 119 967 q 200 1013 167 1013 q 255 990 232 1013 q 278 933 278 967 q 255 877 278 900 q 200 854 232 854 m 458 854 q 401 877 425 854 q 378 933 378 900 q 401 990 378 967 q 458 1013 425 1013 q 513 990 490 1013 q 536 933 536 967 q 513 877 536 900 q 458 854 490 854 m 568 722 l 711 0 l 592 0 l 574 100 l 196 -19 q 106 85 142 25 q 71 210 71 146 q 156 404 71 329 q 368 479 242 479 q 504 442 447 479 l 469 617 l 94 617 l 94 722 l 568 722 m 236 103 l 551 203 l 531 301 q 461 353 510 332 q 368 374 413 374 q 242 328 292 374 q 192 210 192 283 q 236 103 192 150 z "},"å":{"ha":769,"x_min":71,"x_max":711,"o":"m 395 1027 q 383 1039 395 1027 q 336 1051 371 1051 q 277 1027 301 1051 q 253 968 253 1003 q 277 909 253 933 q 336 885 301 885 q 395 909 371 885 q 419 968 419 933 q 395 1027 419 1003 m 336 1117 q 444 1074 400 1117 q 488 968 488 1031 q 444 863 488 906 q 336 819 400 819 q 229 863 274 819 q 185 968 185 906 q 229 1074 185 1031 q 336 1117 274 1117 m 568 722 l 711 0 l 592 0 l 574 100 l 196 -19 q 106 85 142 25 q 71 210 71 146 q 156 404 71 329 q 368 479 242 479 q 504 442 447 479 l 469 617 l 94 617 l 94 722 l 568 722 m 236 103 l 551 203 l 531 301 q 461 353 510 332 q 368 374 413 374 q 242 328 292 374 q 192 210 192 283 q 236 103 192 150 z "},"æ":{"ha":1417,"x_min":71,"x_max":1375,"o":"m 914 86 q 1036 117 978 86 q 1125 203 1094 149 l 1239 171 q 1106 29 1190 78 q 914 -19 1021 -19 q 622 107 739 -19 l 196 -19 q 106 85 142 25 q 71 210 71 146 q 156 404 71 329 q 368 479 242 479 q 504 443 449 479 l 469 617 l 94 617 l 94 722 l 568 722 l 599 572 q 728 697 644 651 q 913 742 813 742 q 1115 684 1026 742 q 1251 529 1204 626 l 1344 557 l 1375 456 l 804 289 l 775 390 l 1135 493 q 913 636 1065 636 q 720 558 794 636 q 646 361 646 481 q 722 167 646 247 q 914 86 799 86 m 238 103 l 554 197 l 531 303 q 461 354 510 333 q 368 375 413 375 q 242 329 292 375 q 193 210 193 283 q 238 103 193 150 z "},"ç":{"ha":874,"x_min":76,"x_max":808,"o":"m 639 -242 q 578 -334 639 -304 q 424 -367 517 -364 l 438 -279 q 539 -229 539 -278 q 456 -175 539 -187 l 465 -106 q 639 -242 639 -129 m 461 89 q 686 229 619 89 l 808 206 q 671 41 763 101 q 461 -19 579 -19 q 189 93 301 -19 q 76 365 76 206 q 189 633 76 525 q 461 742 301 742 q 667 683 578 742 q 804 521 757 624 l 682 497 q 461 633 614 633 q 275 558 349 633 q 201 365 201 482 q 274 169 201 249 q 461 89 347 89 z "},"è":{"ha":971,"x_min":76,"x_max":929,"o":"m 518 911 l 458 849 l 261 1018 l 347 1107 l 518 911 m 465 742 q 681 675 588 742 q 818 497 775 608 l 914 513 l 929 408 l 350 314 l 335 418 l 697 478 q 465 636 629 636 q 273 558 347 636 q 199 361 199 481 q 275 166 199 246 q 467 86 351 86 q 674 196 606 86 l 792 171 q 658 29 743 78 q 467 -19 574 -19 q 191 92 306 -19 q 76 361 76 203 q 189 632 76 522 q 465 742 301 742 z "},"é":{"ha":971,"x_min":76,"x_max":929,"o":"m 469 849 l 410 911 l 581 1107 l 667 1018 l 469 849 m 465 742 q 681 675 588 742 q 818 497 775 608 l 914 513 l 929 408 l 350 314 l 335 418 l 697 478 q 465 636 629 636 q 273 558 347 636 q 199 361 199 481 q 275 166 199 246 q 467 86 351 86 q 674 196 606 86 l 792 171 q 658 29 743 78 q 467 -19 574 -19 q 191 92 306 -19 q 76 361 76 203 q 189 632 76 522 q 465 742 301 742 z "},"ê":{"ha":971,"x_min":76,"x_max":929,"o":"m 515 1067 l 656 906 l 594 849 l 467 963 l 338 849 l 276 906 l 415 1067 l 515 1067 m 465 742 q 681 675 588 742 q 818 497 775 608 l 914 513 l 929 408 l 350 314 l 335 418 l 697 478 q 465 636 629 636 q 273 558 347 636 q 199 361 199 481 q 275 166 199 246 q 467 86 351 86 q 674 196 606 86 l 792 171 q 658 29 743 78 q 467 -19 574 -19 q 191 92 306 -19 q 76 361 76 203 q 189 632 76 522 q 465 742 301 742 z "},"ë":{"ha":971,"x_min":76,"x_max":929,"o":"m 319 854 q 263 877 286 854 q 239 933 239 900 q 263 990 239 967 q 319 1013 286 1013 q 374 990 351 1013 q 397 933 397 967 q 374 877 397 900 q 319 854 351 854 m 608 854 q 551 877 575 854 q 528 933 528 900 q 551 990 528 967 q 608 1013 575 1013 q 663 990 640 1013 q 686 933 686 967 q 663 877 686 900 q 608 854 640 854 m 465 742 q 681 675 588 742 q 818 497 775 608 l 914 513 l 929 408 l 350 314 l 335 418 l 697 478 q 465 636 629 636 q 273 558 347 636 q 199 361 199 481 q 275 166 199 246 q 467 86 351 86 q 674 196 606 86 l 792 171 q 658 29 743 78 q 467 -19 574 -19 q 191 92 306 -19 q 76 361 76 203 q 189 632 76 522 q 465 742 301 742 z "},"ì":{"ha":357,"x_min":-10,"x_max":247,"o":"m 247 911 l 188 849 l -10 1018 l 76 1107 l 247 911 m 118 722 l 239 722 l 239 0 l 118 0 l 118 722 z "},"í":{"ha":357,"x_min":110,"x_max":367,"o":"m 169 849 l 110 911 l 281 1107 l 367 1018 l 169 849 m 118 722 l 239 722 l 239 0 l 118 0 l 118 722 z "},"î":{"ha":357,"x_min":-11,"x_max":368,"o":"m 228 1067 l 368 906 l 307 849 l 179 963 l 50 849 l -11 906 l 128 1067 l 228 1067 m 118 722 l 239 722 l 239 0 l 118 0 l 118 722 z "},"ï":{"ha":357,"x_min":-12,"x_max":369,"o":"m 64 854 q 9 877 31 854 q -12 933 -12 900 q 9 990 -12 967 q 64 1013 31 1013 q 119 990 97 1013 q 140 933 140 967 q 118 877 140 900 q 64 854 96 854 m 347 877 q 336 866 347 877 q 293 854 325 854 q 239 877 261 854 q 217 933 217 900 q 239 990 217 967 q 293 1013 261 1013 q 348 990 326 1013 q 369 933 369 967 q 347 877 369 900 m 118 722 l 239 722 l 239 0 l 118 0 l 118 722 z "},"ð":{"ha":847,"x_min":74,"x_max":771,"o":"m 717 538 q 771 310 771 382 q 665 73 771 165 q 422 -19 560 -19 q 177 74 281 -19 q 74 307 74 167 q 178 540 74 447 q 422 633 282 633 q 575 599 506 633 l 485 861 l 208 772 l 175 874 l 450 961 l 397 1117 l 510 1151 l 561 997 l 733 1053 l 765 953 l 596 897 l 717 538 m 422 86 q 584 149 518 86 q 650 307 650 213 q 583 464 650 400 q 422 528 515 528 q 263 464 331 528 q 196 307 196 400 q 263 150 196 214 q 422 86 331 86 z "},"ñ":{"ha":847,"x_min":118,"x_max":729,"o":"m 547 1008 l 638 994 q 506 854 606 854 q 419 885 472 854 q 342 915 367 915 q 313 901 322 915 q 297 854 304 886 l 207 867 q 339 1008 236 1008 q 424 978 372 1008 q 503 947 476 947 q 547 1008 536 947 m 118 0 l 118 722 l 729 722 l 729 0 l 608 0 l 608 614 l 239 614 l 239 0 l 118 0 z "},"ò":{"ha":933,"x_min":76,"x_max":857,"o":"m 517 911 l 457 849 l 260 1018 l 346 1107 l 517 911 m 191 631 q 248 686 191 631 q 467 742 306 742 q 742 631 628 742 q 857 361 857 521 q 742 92 857 203 q 467 -19 628 -19 q 191 92 306 -19 q 76 361 76 203 q 191 631 76 521 m 276 167 q 314 128 276 167 q 467 89 351 89 q 657 167 582 89 q 732 361 732 246 q 657 556 732 478 q 467 633 582 633 q 276 556 351 633 q 201 361 201 478 q 276 167 201 246 z "},"ó":{"ha":933,"x_min":76,"x_max":857,"o":"m 476 849 l 417 911 l 588 1107 l 674 1018 l 476 849 m 191 631 q 248 686 191 631 q 467 742 306 742 q 742 631 628 742 q 857 361 857 521 q 742 92 857 203 q 467 -19 628 -19 q 191 92 306 -19 q 76 361 76 203 q 191 631 76 521 m 276 167 q 314 128 276 167 q 467 89 351 89 q 657 167 582 89 q 732 361 732 246 q 657 556 732 478 q 467 633 582 633 q 276 556 351 633 q 201 361 201 478 q 276 167 201 246 z "},"ô":{"ha":933,"x_min":76,"x_max":857,"o":"m 517 1067 l 657 906 l 596 849 l 468 963 l 339 849 l 278 906 l 417 1067 l 517 1067 m 191 631 q 248 686 191 631 q 467 742 306 742 q 742 631 628 742 q 857 361 857 521 q 742 92 857 203 q 467 -19 628 -19 q 191 92 306 -19 q 76 361 76 203 q 191 631 76 521 m 276 167 q 314 128 276 167 q 467 89 351 89 q 657 167 582 89 q 732 361 732 246 q 657 556 732 478 q 467 633 582 633 q 276 556 351 633 q 201 361 201 478 q 276 167 201 246 z "},"õ":{"ha":933,"x_min":76,"x_max":857,"o":"m 596 1008 l 686 994 q 554 854 654 854 q 468 885 521 854 q 390 915 415 915 q 362 901 371 915 q 346 854 353 886 l 256 867 q 388 1008 285 1008 q 473 978 421 1008 q 551 947 525 947 q 596 1008 585 947 m 191 631 q 248 686 191 631 q 467 742 306 742 q 742 631 628 742 q 857 361 857 521 q 742 92 857 203 q 467 -19 628 -19 q 191 92 306 -19 q 76 361 76 203 q 191 631 76 521 m 276 167 q 314 128 276 167 q 467 89 351 89 q 657 167 582 89 q 732 361 732 246 q 657 556 732 478 q 467 633 582 633 q 276 556 351 633 q 201 361 201 478 q 276 167 201 246 z "},"ö":{"ha":933,"x_min":76,"x_max":857,"o":"m 324 854 q 267 877 290 854 q 243 933 243 900 q 267 990 243 967 q 324 1013 290 1013 q 378 990 356 1013 q 401 933 401 967 q 378 877 401 900 q 324 854 356 854 m 613 854 q 556 877 579 854 q 532 933 532 900 q 556 990 532 967 q 613 1013 579 1013 q 667 990 644 1013 q 690 933 690 967 q 667 877 690 900 q 613 854 644 854 m 191 631 q 248 686 191 631 q 467 742 306 742 q 742 631 628 742 q 857 361 857 521 q 742 92 857 203 q 467 -19 628 -19 q 191 92 306 -19 q 76 361 76 203 q 191 631 76 521 m 276 167 q 314 128 276 167 q 467 89 351 89 q 657 167 582 89 q 732 361 732 246 q 657 556 732 478 q 467 633 582 633 q 276 556 351 633 q 201 361 201 478 q 276 167 201 246 z "},"÷":{"ha":819,"x_min":83,"x_max":736,"o":"m 499 192 q 473 129 499 156 q 408 103 447 103 q 347 129 372 103 q 321 192 321 156 q 347 256 321 231 q 408 282 372 282 q 473 256 447 282 q 499 192 499 231 m 499 701 q 473 638 499 664 q 408 613 447 613 q 347 639 372 613 q 321 701 321 665 q 347 766 321 740 q 408 792 372 792 q 473 766 447 792 q 499 701 499 740 m 83 500 l 736 500 l 736 394 l 83 394 l 83 500 z "},"ø":{"ha":933,"x_min":50,"x_max":882,"o":"m 882 704 l 775 596 q 857 361 857 494 q 742 92 857 203 q 467 -19 628 -19 q 233 56 338 -19 l 124 -54 l 50 18 l 160 126 q 76 361 76 228 q 191 631 76 521 q 467 742 306 742 q 700 667 596 742 l 810 778 l 882 704 m 199 361 q 243 210 199 282 l 619 588 q 467 633 554 633 q 275 556 351 633 q 199 361 199 478 m 735 361 q 690 513 735 440 l 314 136 q 467 89 378 89 q 658 167 582 89 q 735 361 735 246 z "},"ù":{"ha":833,"x_min":111,"x_max":722,"o":"m 457 911 l 397 849 l 200 1018 l 286 1107 l 457 911 m 722 722 l 722 281 q 638 63 722 146 q 417 -19 553 -19 q 196 63 281 -19 q 111 281 111 146 l 111 722 l 232 722 l 232 281 q 283 142 232 194 q 417 89 333 89 q 551 142 500 89 q 601 281 601 194 l 601 722 l 722 722 z "},"ú":{"ha":833,"x_min":111,"x_max":722,"o":"m 436 849 l 376 911 l 547 1107 l 633 1018 l 436 849 m 722 722 l 722 281 q 638 63 722 146 q 417 -19 553 -19 q 196 63 281 -19 q 111 281 111 146 l 111 722 l 232 722 l 232 281 q 283 142 232 194 q 417 89 333 89 q 551 142 500 89 q 601 281 601 194 l 601 722 l 722 722 z "},"û":{"ha":833,"x_min":111,"x_max":722,"o":"m 465 1067 l 606 906 l 544 849 l 417 963 l 288 849 l 226 906 l 365 1067 l 465 1067 m 722 722 l 722 281 q 638 63 722 146 q 417 -19 553 -19 q 196 63 281 -19 q 111 281 111 146 l 111 722 l 232 722 l 232 281 q 283 142 232 194 q 417 89 333 89 q 551 142 500 89 q 601 281 601 194 l 601 722 l 722 722 z "},"ü":{"ha":833,"x_min":111,"x_max":722,"o":"m 281 854 q 224 877 247 854 q 200 933 200 900 q 224 990 200 967 q 281 1013 247 1013 q 335 990 313 1013 q 358 933 358 967 q 335 877 358 900 q 281 854 313 854 m 556 854 q 499 877 522 854 q 475 933 475 900 q 499 990 475 967 q 556 1013 522 1013 q 610 990 588 1013 q 633 933 633 967 q 610 877 633 900 q 556 854 588 854 m 722 722 l 722 281 q 638 63 722 146 q 417 -19 553 -19 q 196 63 281 -19 q 111 281 111 146 l 111 722 l 232 722 l 232 281 q 283 142 232 194 q 417 89 333 89 q 551 142 500 89 q 601 281 601 194 l 601 722 l 722 722 z "},"ý":{"ha":790,"x_min":31,"x_max":765,"o":"m 413 849 l 353 911 l 524 1107 l 610 1018 l 413 849 m 638 722 l 765 722 l 285 -418 l 156 -418 l 374 86 l 299 86 l 31 722 l 164 722 l 400 149 l 638 722 z "},"þ":{"ha":894,"x_min":-10,"x_max":821,"o":"m 472 742 q 718 650 615 742 q 821 417 821 558 q 717 183 821 276 q 472 89 613 89 q 211 219 308 89 l 108 -426 l -10 -426 l 239 1140 l 357 1140 l 281 672 q 472 742 364 742 m 472 194 q 631 259 564 194 q 699 417 699 324 q 633 574 699 511 q 472 636 567 636 q 311 573 378 636 q 244 415 244 510 q 310 258 244 321 q 472 194 376 194 z "},"ÿ":{"ha":790,"x_min":31,"x_max":765,"o":"m 261 854 q 204 877 228 854 q 181 933 181 900 q 204 990 181 967 q 261 1013 228 1013 q 316 990 293 1013 q 339 933 339 967 q 316 877 339 900 q 261 854 293 854 m 544 854 q 488 877 511 854 q 464 933 464 900 q 488 990 464 967 q 544 1013 511 1013 q 599 990 576 1013 q 622 933 622 967 q 599 877 622 900 q 544 854 576 854 m 638 722 l 765 722 l 285 -418 l 156 -418 l 374 86 l 299 86 l 31 722 l 164 722 l 400 149 l 638 722 z "},"Ā":{"ha":992,"x_min":43,"x_max":949,"o":"m 283 1215 l 708 1215 l 708 1117 l 283 1117 l 283 1215 m 817 0 l 686 340 l 301 340 l 172 0 l 43 0 l 435 981 l 557 981 l 949 0 l 817 0 m 342 449 l 647 449 l 494 840 l 342 449 z "},"ā":{"ha":769,"x_min":71,"x_max":711,"o":"m 124 961 l 532 961 l 532 868 l 124 868 l 124 961 m 568 722 l 711 0 l 592 0 l 574 100 l 196 -19 q 106 85 142 25 q 71 210 71 146 q 156 404 71 329 q 368 479 242 479 q 504 442 447 479 l 469 617 l 94 617 l 94 722 l 568 722 m 236 103 l 551 203 l 531 301 q 461 353 510 332 q 368 374 413 374 q 242 328 292 374 q 192 210 192 283 q 236 103 192 150 z "},"Ă":{"ha":992,"x_min":43,"x_max":949,"o":"m 579 1274 l 690 1256 q 626 1133 682 1182 q 493 1085 569 1085 q 360 1133 417 1085 q 296 1256 304 1182 l 407 1274 q 431 1207 407 1233 q 493 1181 454 1181 q 556 1207 532 1181 q 579 1274 579 1233 m 817 0 l 686 340 l 301 340 l 172 0 l 43 0 l 435 981 l 557 981 l 949 0 l 817 0 m 342 449 l 647 449 l 494 840 l 342 449 z "},"ă":{"ha":769,"x_min":71,"x_max":711,"o":"m 411 1025 l 518 1007 q 456 890 510 936 q 329 843 403 843 q 202 890 256 843 q 140 1007 149 936 l 247 1025 q 270 960 247 986 q 329 933 293 933 q 388 960 365 933 q 411 1025 411 986 m 568 722 l 711 0 l 592 0 l 574 100 l 196 -19 q 106 85 142 25 q 71 210 71 146 q 156 404 71 329 q 368 479 242 479 q 504 442 447 479 l 469 617 l 94 617 l 94 722 l 568 722 m 236 103 l 551 203 l 531 301 q 461 353 510 332 q 368 374 413 374 q 242 328 292 374 q 192 210 192 283 q 236 103 192 150 z "},"Ą":{"ha":992,"x_min":43,"x_max":949,"o":"m 794 -181 q 911 -253 794 -253 l 911 -349 q 744 -308 806 -349 q 683 -192 683 -268 q 722 -94 683 -150 q 817 0 761 -39 l 686 340 l 301 340 l 172 0 l 43 0 l 435 981 l 557 981 l 949 0 l 907 0 q 794 -181 794 -103 m 342 449 l 647 449 l 494 840 l 342 449 z "},"ą":{"ha":769,"x_min":71,"x_max":711,"o":"m 571 -175 q 685 -246 571 -243 l 685 -339 q 522 -299 582 -339 q 463 -185 463 -260 q 501 -92 463 -144 q 592 0 539 -39 l 574 100 l 196 -19 q 106 85 142 25 q 71 210 71 146 q 156 404 71 329 q 368 479 242 479 q 504 442 447 479 l 469 617 l 94 617 l 94 722 l 568 722 l 711 0 l 681 0 q 571 -175 571 -101 m 236 103 l 551 203 l 531 301 q 461 353 510 332 q 368 374 413 374 q 242 328 292 374 q 192 210 192 283 q 236 103 192 150 z "},"Ć":{"ha":1114,"x_min":86,"x_max":1044,"o":"m 599 1079 l 536 1144 l 714 1349 l 804 1256 l 599 1079 m 594 94 q 917 292 818 94 l 1044 267 q 865 57 983 133 q 594 -19 747 -19 q 234 131 382 -19 q 86 494 86 282 q 235 848 86 704 q 594 992 383 992 q 864 917 747 992 q 1042 713 981 842 l 914 688 q 594 878 815 878 q 324 768 432 878 q 217 494 217 658 q 324 210 217 326 q 594 94 431 94 z "},"ć":{"ha":874,"x_min":76,"x_max":808,"o":"m 474 849 l 414 911 l 585 1107 l 671 1018 l 474 849 m 461 89 q 686 229 619 89 l 808 206 q 671 41 763 101 q 461 -19 579 -19 q 189 93 301 -19 q 76 365 76 206 q 189 633 76 525 q 461 742 301 742 q 667 683 578 742 q 804 521 757 624 l 682 497 q 461 633 614 633 q 275 558 349 633 q 201 365 201 482 q 274 169 201 249 q 461 89 347 89 z "},"Ĉ":{"ha":1114,"x_min":86,"x_max":1044,"o":"m 647 1307 l 793 1139 l 729 1079 l 596 1199 l 461 1079 l 399 1139 l 543 1307 l 647 1307 m 594 94 q 917 292 818 94 l 1044 267 q 865 57 983 133 q 594 -19 747 -19 q 234 131 382 -19 q 86 494 86 282 q 235 848 86 704 q 594 992 383 992 q 864 917 747 992 q 1042 713 981 842 l 914 688 q 594 878 815 878 q 324 768 432 878 q 217 494 217 658 q 324 210 217 326 q 594 94 431 94 z "},"ĉ":{"ha":874,"x_min":76,"x_max":808,"o":"m 511 1067 l 651 906 l 590 849 l 463 963 l 333 849 l 272 906 l 411 1067 l 511 1067 m 461 89 q 686 229 619 89 l 808 206 q 671 41 763 101 q 461 -19 579 -19 q 189 93 301 -19 q 76 365 76 206 q 189 633 76 525 q 461 742 301 742 q 667 683 578 742 q 804 521 757 624 l 682 497 q 461 633 614 633 q 275 558 349 633 q 201 365 201 482 q 274 169 201 249 q 461 89 347 89 z "},"Ċ":{"ha":1114,"x_min":86,"x_max":1044,"o":"m 593 1093 q 533 1117 557 1093 q 508 1176 508 1142 q 533 1236 508 1211 q 593 1261 558 1261 q 652 1236 628 1261 q 676 1176 676 1211 q 651 1117 676 1142 q 593 1093 626 1093 m 594 94 q 917 292 818 94 l 1044 267 q 865 57 983 133 q 594 -19 747 -19 q 234 131 382 -19 q 86 494 86 282 q 235 848 86 704 q 594 992 383 992 q 864 917 747 992 q 1042 713 981 842 l 914 688 q 594 878 815 878 q 324 768 432 878 q 217 494 217 658 q 324 210 217 326 q 594 94 431 94 z "},"ċ":{"ha":874,"x_min":76,"x_max":808,"o":"m 463 854 q 403 878 428 854 q 379 936 379 901 q 403 995 379 971 q 463 1019 428 1019 q 521 995 497 1019 q 544 936 544 971 q 520 878 544 901 q 463 854 496 854 m 461 89 q 686 229 619 89 l 808 206 q 671 41 763 101 q 461 -19 579 -19 q 189 93 301 -19 q 76 365 76 206 q 189 633 76 525 q 461 742 301 742 q 667 683 578 742 q 804 521 757 624 l 682 497 q 461 633 614 633 q 275 558 349 633 q 201 365 201 482 q 274 169 201 249 q 461 89 347 89 z "},"Č":{"ha":1114,"x_min":86,"x_max":1044,"o":"m 793 1251 l 647 1083 l 543 1083 l 399 1251 l 461 1311 l 596 1192 l 729 1311 l 793 1251 m 594 94 q 917 292 818 94 l 1044 267 q 865 57 983 133 q 594 -19 747 -19 q 234 131 382 -19 q 86 494 86 282 q 235 848 86 704 q 594 992 383 992 q 864 917 747 992 q 1042 713 981 842 l 914 688 q 594 878 815 878 q 324 768 432 878 q 217 494 217 658 q 324 210 217 326 q 594 94 431 94 z "},"č":{"ha":874,"x_min":76,"x_max":808,"o":"m 651 1018 l 511 857 l 411 857 l 272 1018 l 333 1075 l 463 961 l 590 1075 l 651 1018 m 461 89 q 686 229 619 89 l 808 206 q 671 41 763 101 q 461 -19 579 -19 q 189 93 301 -19 q 76 365 76 206 q 189 633 76 525 q 461 742 301 742 q 667 683 578 742 q 804 521 757 624 l 682 497 q 461 633 614 633 q 275 558 349 633 q 201 365 201 482 q 274 169 201 249 q 461 89 347 89 z "},"Ď":{"ha":1000,"x_min":76,"x_max":914,"o":"m 596 1251 l 450 1083 l 346 1083 l 201 1251 l 264 1311 l 399 1192 l 532 1311 l 596 1251 m 914 494 q 758 148 914 296 q 401 0 603 0 l 76 0 l 231 972 l 453 972 q 782 833 650 972 q 914 494 914 694 m 400 111 q 668 226 553 111 q 783 494 783 342 q 690 756 783 651 q 444 861 596 861 l 336 861 l 218 111 l 400 111 z "},"ď":{"ha":1107,"x_min":74,"x_max":1106,"o":"m 1106 946 l 1032 703 l 946 722 l 986 974 l 1106 946 m 765 1140 l 885 1140 l 706 0 l 586 0 l 615 156 q 424 89 535 89 q 178 183 282 89 q 74 418 74 278 q 176 650 74 558 q 424 742 279 742 q 685 613 586 742 l 765 1140 m 424 194 q 584 258 518 194 q 650 415 650 321 q 584 573 650 510 q 424 636 518 636 q 262 574 328 636 q 196 418 196 513 q 263 260 196 325 q 424 194 331 194 z "},"Đ":{"ha":1053,"x_min":56,"x_max":967,"o":"m 506 972 q 835 833 703 972 q 967 494 967 694 q 811 148 967 296 q 454 0 656 0 l 129 0 l 200 450 l 56 450 l 56 558 l 218 558 l 283 972 l 506 972 m 453 111 q 722 226 607 111 q 836 494 836 342 q 742 756 836 651 q 497 861 649 861 l 389 861 l 342 558 l 483 558 l 483 450 l 324 450 l 271 111 l 453 111 z "},"đ":{"ha":917,"x_min":74,"x_max":885,"o":"m 765 1140 l 885 1140 l 706 0 l 586 0 l 615 156 q 424 89 535 89 q 178 183 282 89 q 74 418 74 278 q 176 650 74 558 q 424 742 279 742 q 685 613 586 742 l 728 896 l 283 896 l 283 1001 l 744 1001 l 765 1140 m 424 194 q 584 258 518 194 q 650 415 650 321 q 584 573 650 510 q 424 636 518 636 q 262 574 328 636 q 196 418 196 513 q 263 260 196 325 q 424 194 331 194 z "},"Ē":{"ha":793,"x_min":139,"x_max":710,"o":"m 219 1215 l 644 1215 l 644 1117 l 219 1117 l 219 1215 m 710 111 l 264 111 l 264 449 l 686 449 l 686 560 l 264 560 l 264 861 l 701 861 l 701 972 l 139 972 l 139 0 l 710 0 l 710 111 z "},"ē":{"ha":971,"x_min":76,"x_max":929,"o":"m 258 961 l 667 961 l 667 868 l 258 868 l 258 961 m 465 742 q 681 675 588 742 q 818 497 775 608 l 914 513 l 929 408 l 350 314 l 335 418 l 697 478 q 465 636 629 636 q 273 558 347 636 q 199 361 199 481 q 275 166 199 246 q 467 86 351 86 q 674 196 606 86 l 792 171 q 658 29 743 78 q 467 -19 574 -19 q 191 92 306 -19 q 76 361 76 203 q 189 632 76 522 q 465 742 301 742 z "},"Ė":{"ha":793,"x_min":139,"x_max":710,"o":"m 424 1093 q 363 1117 388 1093 q 339 1176 339 1142 q 364 1236 339 1211 q 424 1261 389 1261 q 483 1236 458 1261 q 507 1176 507 1211 q 482 1117 507 1142 q 424 1093 457 1093 m 264 111 l 710 111 l 710 0 l 139 0 l 139 972 l 701 972 l 701 861 l 264 861 l 264 560 l 686 560 l 686 449 l 264 449 l 264 111 z "},"ė":{"ha":971,"x_min":76,"x_max":929,"o":"m 463 854 q 403 878 428 854 q 379 936 379 901 q 403 995 379 971 q 463 1019 428 1019 q 521 995 497 1019 q 544 936 544 971 q 520 878 544 901 q 463 854 496 854 m 465 742 q 681 675 588 742 q 818 497 775 608 l 914 513 l 929 408 l 350 314 l 335 418 l 697 478 q 465 636 629 636 q 273 558 347 636 q 199 361 199 481 q 275 166 199 246 q 467 86 351 86 q 674 196 606 86 l 792 171 q 658 29 743 78 q 467 -19 574 -19 q 191 92 306 -19 q 76 361 76 203 q 189 632 76 522 q 465 742 301 742 z "},"Ę":{"ha":793,"x_min":139,"x_max":714,"o":"m 596 -181 q 714 -253 596 -253 l 714 -349 q 547 -308 608 -349 q 486 -192 486 -268 q 525 -94 486 -150 q 618 0 564 -39 l 139 0 l 139 972 l 701 972 l 701 861 l 264 861 l 264 560 l 686 560 l 686 449 l 264 449 l 264 111 l 710 111 l 710 0 q 596 -181 596 -103 z "},"ę":{"ha":971,"x_min":76,"x_max":929,"o":"m 467 86 q 674 196 606 86 l 792 171 q 749 105 775 133 q 683 44 724 76 q 624 -4 642 13 q 517 -175 517 -103 q 631 -246 517 -243 l 631 -339 q 469 -299 528 -339 q 410 -185 410 -260 q 440 -102 410 -149 q 517 -17 471 -56 q 467 -19 483 -19 q 191 92 306 -19 q 76 361 76 203 q 189 632 76 522 q 465 742 301 742 q 681 675 588 742 q 818 497 775 608 l 914 513 l 929 408 l 350 314 l 335 418 l 697 478 q 465 636 629 636 q 273 558 347 636 q 199 361 199 481 q 275 166 199 246 q 467 86 351 86 z "},"Ě":{"ha":793,"x_min":139,"x_max":710,"o":"m 631 1251 l 485 1083 l 381 1083 l 236 1251 l 299 1311 l 433 1192 l 567 1311 l 631 1251 m 710 111 l 264 111 l 264 449 l 686 449 l 686 560 l 264 560 l 264 861 l 701 861 l 701 972 l 139 972 l 139 0 l 710 0 l 710 111 z "},"ě":{"ha":971,"x_min":76,"x_max":929,"o":"m 656 1018 l 515 857 l 415 857 l 276 1018 l 338 1075 l 467 961 l 594 1075 l 656 1018 m 465 742 q 681 675 588 742 q 818 497 775 608 l 914 513 l 929 408 l 350 314 l 335 418 l 697 478 q 465 636 629 636 q 273 558 347 636 q 199 361 199 481 q 275 166 199 246 q 467 86 351 86 q 674 196 606 86 l 792 171 q 658 29 743 78 q 467 -19 574 -19 q 191 92 306 -19 q 76 361 76 203 q 189 632 76 522 q 465 742 301 742 z "},"Ĝ":{"ha":1181,"x_min":86,"x_max":1076,"o":"m 651 1307 l 797 1139 l 733 1079 l 600 1199 l 465 1079 l 403 1139 l 547 1307 l 651 1307 m 563 489 l 1076 489 l 1076 414 q 940 100 1076 219 q 601 -19 803 -19 q 237 130 388 -19 q 86 494 86 279 q 237 847 86 703 q 594 992 388 992 q 853 927 742 992 q 1028 744 965 863 l 901 719 q 778 835 857 793 q 594 878 699 878 q 325 767 436 878 q 214 494 214 657 q 325 210 214 329 q 596 92 436 92 q 837 166 736 92 q 956 378 938 240 l 563 378 l 563 489 z "},"ĝ":{"ha":832,"x_min":40,"x_max":790,"o":"m 446 1067 l 586 906 l 525 849 l 397 963 l 268 849 l 207 906 l 346 1067 l 446 1067 m 542 147 q 681 36 628 106 q 733 -128 733 -33 q 636 -353 733 -267 q 393 -439 539 -439 q 143 -351 246 -439 q 40 -128 40 -264 q 93 32 40 -54 l 200 -17 q 165 -128 165 -71 q 230 -276 165 -221 q 393 -331 294 -331 q 549 -276 490 -331 q 608 -128 608 -221 q 496 46 608 -10 l 438 -92 l 335 -47 l 421 158 q 389 156 401 156 q 171 239 261 156 q 81 449 81 322 q 172 658 81 575 q 397 742 264 742 q 626 643 536 742 l 688 789 l 790 744 l 542 147 m 474 274 l 578 525 q 503 606 553 575 q 397 636 453 636 q 260 582 317 636 q 203 449 203 528 q 258 315 203 368 q 397 261 314 261 q 474 274 439 261 z "},"Ğ":{"ha":1181,"x_min":86,"x_max":1076,"o":"m 685 1274 l 796 1256 q 731 1133 788 1182 q 599 1085 675 1085 q 466 1133 522 1085 q 401 1256 410 1182 l 513 1274 q 536 1207 513 1233 q 599 1181 560 1181 q 661 1207 638 1181 q 685 1274 685 1233 m 563 489 l 1076 489 l 1076 414 q 940 100 1076 219 q 601 -19 803 -19 q 237 130 388 -19 q 86 494 86 279 q 237 847 86 703 q 594 992 388 992 q 853 927 742 992 q 1028 744 965 863 l 901 719 q 778 835 857 793 q 594 878 699 878 q 325 767 436 878 q 214 494 214 657 q 325 210 214 329 q 596 92 436 92 q 837 166 736 92 q 956 378 938 240 l 563 378 l 563 489 z "},"ğ":{"ha":832,"x_min":40,"x_max":790,"o":"m 479 1025 l 586 1007 q 524 890 578 936 q 397 843 471 843 q 270 890 324 843 q 208 1007 217 936 l 315 1025 q 338 960 315 986 q 397 933 361 933 q 456 960 433 933 q 479 1025 479 986 m 542 147 q 681 36 628 106 q 733 -128 733 -33 q 636 -353 733 -267 q 393 -439 539 -439 q 143 -351 246 -439 q 40 -128 40 -264 q 93 32 40 -54 l 200 -17 q 165 -128 165 -71 q 230 -276 165 -221 q 393 -331 294 -331 q 549 -276 490 -331 q 608 -128 608 -221 q 496 46 608 -10 l 438 -92 l 335 -47 l 421 158 q 389 156 401 156 q 171 239 261 156 q 81 449 81 322 q 172 658 81 575 q 397 742 264 742 q 626 643 536 742 l 688 789 l 790 744 l 542 147 m 474 274 l 578 525 q 503 606 553 575 q 397 636 453 636 q 260 582 317 636 q 203 449 203 528 q 258 315 203 368 q 397 261 314 261 q 474 274 439 261 z "},"Ġ":{"ha":1181,"x_min":86,"x_max":1076,"o":"m 597 1093 q 537 1117 561 1093 q 513 1176 513 1142 q 538 1236 513 1211 q 597 1261 563 1261 q 656 1236 632 1261 q 681 1176 681 1211 q 656 1117 681 1142 q 597 1093 631 1093 m 563 489 l 1076 489 l 1076 414 q 940 100 1076 219 q 601 -19 803 -19 q 237 130 388 -19 q 86 494 86 279 q 237 847 86 703 q 594 992 388 992 q 853 927 742 992 q 1028 744 965 863 l 901 719 q 778 835 857 793 q 594 878 699 878 q 325 767 436 878 q 214 494 214 657 q 325 210 214 329 q 596 92 436 92 q 837 166 736 92 q 956 378 938 240 l 563 378 l 563 489 z "},"ġ":{"ha":832,"x_min":40,"x_max":790,"o":"m 399 854 q 340 878 364 854 q 315 936 315 901 q 340 995 315 971 q 399 1019 364 1019 q 457 995 433 1019 q 481 936 481 971 q 456 878 481 901 q 399 854 432 854 m 542 147 q 681 36 628 106 q 733 -128 733 -33 q 636 -353 733 -267 q 393 -439 539 -439 q 143 -351 246 -439 q 40 -128 40 -264 q 93 32 40 -54 l 200 -17 q 165 -128 165 -71 q 230 -276 165 -221 q 393 -331 294 -331 q 549 -276 490 -331 q 608 -128 608 -221 q 496 46 608 -10 l 438 -92 l 335 -47 l 421 158 q 389 156 401 156 q 171 239 261 156 q 81 449 81 322 q 172 658 81 575 q 397 742 264 742 q 626 643 536 742 l 688 789 l 790 744 l 542 147 m 474 274 l 578 525 q 503 606 553 575 q 397 636 453 636 q 260 582 317 636 q 203 449 203 528 q 258 315 203 368 q 397 261 314 261 q 474 274 439 261 z "},"Ģ":{"ha":1181,"x_min":86,"x_max":1076,"o":"m 535 -365 l 635 -150 l 515 -103 l 442 -329 l 535 -365 m 563 489 l 1076 489 l 1076 414 q 940 100 1076 219 q 601 -19 803 -19 q 237 130 388 -19 q 86 494 86 279 q 237 847 86 703 q 594 992 388 992 q 853 927 742 992 q 1028 744 965 863 l 901 719 q 778 835 857 793 q 594 878 699 878 q 325 767 436 878 q 214 494 214 657 q 325 210 214 329 q 596 92 436 92 q 837 166 736 92 q 956 378 938 240 l 563 378 l 563 489 z "},"ģ":{"ha":832,"x_min":40,"x_max":790,"o":"m 376 894 l 472 1100 l 561 1065 l 490 849 l 376 894 m 542 147 q 681 36 628 106 q 733 -128 733 -33 q 636 -353 733 -267 q 393 -439 539 -439 q 143 -351 246 -439 q 40 -128 40 -264 q 93 32 40 -54 l 200 -17 q 165 -128 165 -71 q 230 -276 165 -221 q 393 -331 294 -331 q 549 -276 490 -331 q 608 -128 608 -221 q 496 46 608 -10 l 438 -92 l 335 -47 l 421 158 q 389 156 401 156 q 171 239 261 156 q 81 449 81 322 q 172 658 81 575 q 397 742 264 742 q 626 643 536 742 l 688 789 l 790 744 l 542 147 m 474 274 l 578 525 q 503 606 553 575 q 397 636 453 636 q 260 582 317 636 q 203 449 203 528 q 258 315 203 368 q 397 261 314 261 q 474 274 439 261 z "},"Ĥ":{"ha":996,"x_min":139,"x_max":857,"o":"m 549 1307 l 694 1139 l 631 1079 l 497 1199 l 363 1079 l 300 1139 l 444 1307 l 549 1307 m 732 972 l 857 972 l 857 0 l 732 0 l 732 449 l 264 449 l 264 0 l 139 0 l 139 972 l 264 972 l 264 560 l 732 560 l 732 972 z "},"ĥ":{"ha":839,"x_min":1,"x_max":749,"o":"m 240 1454 l 381 1293 l 319 1236 l 192 1350 l 63 1236 l 1 1293 l 140 1454 l 240 1454 m 449 742 q 667 640 586 742 q 749 393 749 539 q 617 0 749 190 l 488 0 q 626 394 626 215 q 578 567 626 500 q 438 633 531 633 q 327 595 381 633 q 239 493 274 557 l 239 0 l 118 0 l 118 1140 l 239 1140 l 239 647 q 330 715 272 688 q 449 742 388 742 z "},"Ħ":{"ha":1093,"x_min":49,"x_max":1044,"o":"m 1044 838 l 1044 735 l 906 735 l 906 0 l 781 0 l 781 449 l 313 449 l 313 0 l 188 0 l 188 735 l 49 735 l 49 838 l 188 838 l 188 972 l 313 972 l 313 838 l 781 838 l 781 972 l 906 972 l 906 838 l 1044 838 m 781 557 l 781 735 l 313 735 l 313 557 l 781 557 z "},"ħ":{"ha":839,"x_min":118,"x_max":749,"o":"m 449 742 q 667 640 586 742 q 749 393 749 539 q 617 0 749 190 l 488 0 q 626 394 626 215 q 578 567 626 500 q 438 633 531 633 q 327 595 381 633 q 239 493 274 557 l 239 0 l 118 0 l 118 1140 l 239 1140 l 239 1001 l 640 1001 l 640 896 l 239 896 l 239 647 q 330 715 272 688 q 449 742 388 742 z "},"Ī":{"ha":403,"x_min":4,"x_max":399,"o":"m 4 1215 l 399 1215 l 399 1117 l 4 1117 l 4 1215 m 139 972 l 264 972 l 264 0 l 139 0 l 139 972 z "},"ī":{"ha":357,"x_min":0,"x_max":357,"o":"m 0 961 l 357 961 l 357 868 l 0 868 l 0 961 m 118 722 l 239 722 l 239 0 l 118 0 l 118 722 z "},"Į":{"ha":403,"x_min":39,"x_max":268,"o":"m 150 -181 q 268 -253 150 -253 l 268 -349 q 101 -308 163 -349 q 39 -192 39 -268 q 78 -95 39 -150 q 172 0 118 -40 l 139 0 l 139 972 l 264 972 l 264 0 q 150 -181 150 -104 z "},"į":{"ha":357,"x_min":22,"x_max":261,"o":"m 179 854 q 120 878 144 854 q 96 936 96 901 q 120 995 96 971 q 179 1019 144 1019 q 238 995 214 1019 q 261 936 261 971 q 237 878 261 901 q 179 854 213 854 m 129 -175 q 244 -246 129 -243 l 244 -339 q 81 -299 140 -339 q 22 -185 22 -260 q 60 -92 22 -144 q 150 0 97 -39 l 118 0 l 118 722 l 239 722 l 239 0 q 129 -175 129 -103 z "},"İ":{"ha":403,"x_min":118,"x_max":286,"o":"m 203 1093 q 142 1117 167 1093 q 118 1176 118 1142 q 143 1236 118 1211 q 203 1261 168 1261 q 262 1236 238 1261 q 286 1176 286 1211 q 261 1117 286 1142 q 203 1093 236 1093 m 139 972 l 264 972 l 264 0 l 139 0 l 139 972 z "},"ı":{"ha":357,"x_min":118,"x_max":239,"o":"m 118 722 l 239 722 l 239 0 l 118 0 l 118 722 z "},"Ĳ":{"ha":1114,"x_min":139,"x_max":982,"o":"m 139 972 l 264 972 l 264 0 l 139 0 l 139 972 m 857 972 l 982 972 l 982 260 q 910 56 982 131 q 715 -19 839 -19 q 533 44 603 -19 q 451 217 463 108 l 572 242 q 715 94 589 94 q 857 256 857 94 l 857 972 z "},"ĳ":{"ha":714,"x_min":96,"x_max":613,"o":"m 118 722 l 239 722 l 239 0 l 118 0 l 118 722 m 179 854 q 120 878 144 854 q 96 936 96 901 q 120 995 96 971 q 179 1019 144 1019 q 238 995 214 1019 q 261 936 261 971 q 237 878 261 901 q 179 854 213 854 m 475 722 l 596 722 l 596 -196 q 541 -374 596 -310 q 381 -437 486 -437 q 317 -428 346 -437 l 333 -319 q 381 -326 356 -326 q 475 -196 475 -326 l 475 722 m 531 854 q 472 878 496 854 q 447 936 447 901 q 472 995 447 971 q 531 1019 496 1019 q 589 995 565 1019 q 613 936 613 971 q 588 878 613 901 q 531 854 564 854 z "},"Ĵ":{"ha":711,"x_min":49,"x_max":713,"o":"m 567 1307 l 713 1139 l 649 1079 l 515 1199 l 381 1079 l 318 1139 l 463 1307 l 567 1307 m 454 972 l 579 972 l 579 260 q 508 56 579 131 q 313 -19 436 -19 q 130 44 200 -19 q 49 217 60 108 l 169 242 q 313 94 186 94 q 454 256 454 94 l 454 972 z "},"ĵ":{"ha":357,"x_min":-40,"x_max":368,"o":"m 228 1067 l 368 906 l 307 849 l 179 963 l 50 849 l -11 906 l 128 1067 l 228 1067 m 118 722 l 239 722 l 239 -196 q 184 -374 239 -310 q 24 -437 129 -437 q -40 -428 -11 -437 l -24 -319 q 24 -326 -1 -326 q 118 -196 118 -326 l 118 722 z "},"Ķ":{"ha":853,"x_min":76,"x_max":807,"o":"m 426 -365 l 526 -150 l 407 -103 l 333 -329 l 426 -365 m 731 992 l 796 896 l 213 508 l 807 76 l 738 -19 l 274 326 l 274 0 l 149 0 l 149 413 l 76 465 l 76 549 l 149 596 l 149 972 l 274 972 l 274 679 l 731 992 z "},"ķ":{"ha":744,"x_min":57,"x_max":706,"o":"m 361 -354 l 457 -149 l 343 -103 l 272 -319 l 361 -354 m 706 76 l 647 -19 l 260 204 l 260 0 l 139 0 l 139 272 l 57 319 l 57 413 l 139 460 l 139 1140 l 260 1140 l 260 526 l 647 742 l 703 644 l 181 367 l 706 76 z "},"Ĺ":{"ha":639,"x_min":76,"x_max":583,"o":"m 314 1079 l 251 1144 l 429 1349 l 519 1256 l 314 1079 m 218 111 l 583 111 l 583 0 l 76 0 l 231 972 l 354 972 l 218 111 z "},"ĺ":{"ha":400,"x_min":63,"x_max":515,"o":"m 318 1238 l 258 1300 l 429 1496 l 515 1407 l 318 1238 m 363 1140 l 199 106 l 313 106 l 313 0 l 63 0 l 243 1140 l 363 1140 z "},"Ļ":{"ha":639,"x_min":76,"x_max":583,"o":"m 343 -365 l 443 -150 l 324 -103 l 250 -329 l 343 -365 m 218 111 l 583 111 l 583 0 l 76 0 l 231 972 l 354 972 l 218 111 z "},"ļ":{"ha":401,"x_min":63,"x_max":363,"o":"m 178 -354 l 274 -149 l 160 -103 l 89 -319 l 178 -354 m 363 1140 l 199 106 l 313 106 l 313 0 l 63 0 l 243 1140 l 363 1140 z "},"Ľ":{"ha":639,"x_min":76,"x_max":608,"o":"m 608 947 l 531 694 l 442 715 l 483 976 l 608 947 m 218 111 l 583 111 l 583 0 l 76 0 l 231 972 l 354 972 l 218 111 z "},"ľ":{"ha":585,"x_min":63,"x_max":583,"o":"m 583 946 l 510 703 l 424 722 l 464 974 l 583 946 m 363 1140 l 199 106 l 313 106 l 313 0 l 63 0 l 243 1140 l 363 1140 z "},"Ŀ":{"ha":639,"x_min":76,"x_max":599,"o":"m 514 411 q 574 436 549 411 q 599 497 599 461 q 574 559 599 533 q 514 585 550 585 q 452 559 478 585 q 426 497 426 533 q 452 436 426 461 q 514 411 478 411 m 218 111 l 583 111 l 583 0 l 76 0 l 231 972 l 354 972 l 218 111 z "},"ŀ":{"ha":539,"x_min":63,"x_max":525,"o":"m 357 475 q 382 415 357 439 q 442 390 407 390 q 501 415 476 390 q 525 475 525 440 q 501 535 525 510 q 442 560 476 560 q 382 535 407 560 q 357 475 357 510 m 363 1140 l 199 106 l 313 106 l 313 0 l 63 0 l 243 1140 l 363 1140 z "},"Ł":{"ha":710,"x_min":56,"x_max":654,"o":"m 290 111 l 654 111 l 654 0 l 147 0 l 196 307 l 56 283 l 56 393 l 214 419 l 301 972 l 425 972 l 342 440 l 540 474 l 540 363 l 324 328 l 290 111 z "},"ł":{"ha":521,"x_min":51,"x_max":472,"o":"m 472 325 l 290 296 l 260 106 l 374 106 l 374 0 l 125 0 l 168 276 l 51 257 l 51 364 l 186 386 l 306 1140 l 425 1140 l 308 407 l 472 433 l 472 325 z "},"Ń":{"ha":1076,"x_min":139,"x_max":938,"o":"m 558 1079 l 496 1144 l 674 1349 l 764 1256 l 558 1079 m 815 972 l 938 972 l 938 0 l 838 0 l 261 793 l 261 0 l 139 0 l 139 972 l 268 972 l 815 218 l 815 972 z "},"ń":{"ha":847,"x_min":118,"x_max":729,"o":"m 429 849 l 369 911 l 540 1107 l 626 1018 l 429 849 m 118 0 l 118 722 l 729 722 l 729 0 l 608 0 l 608 614 l 239 614 l 239 0 l 118 0 z "},"Ņ":{"ha":1076,"x_min":139,"x_max":938,"o":"m 513 -365 l 613 -150 l 493 -103 l 419 -329 l 513 -365 m 815 972 l 938 972 l 938 0 l 838 0 l 261 793 l 261 0 l 139 0 l 139 972 l 268 972 l 815 218 l 815 972 z "},"ņ":{"ha":847,"x_min":118,"x_max":729,"o":"m 389 -354 l 485 -149 l 371 -103 l 300 -319 l 389 -354 m 118 0 l 118 722 l 729 722 l 729 0 l 608 0 l 608 614 l 239 614 l 239 0 l 118 0 z "},"Ň":{"ha":1076,"x_min":139,"x_max":938,"o":"m 732 1251 l 586 1083 l 482 1083 l 338 1251 l 400 1311 l 535 1192 l 668 1311 l 732 1251 m 815 972 l 938 972 l 938 0 l 838 0 l 261 793 l 261 0 l 139 0 l 139 972 l 268 972 l 815 218 l 815 972 z "},"ň":{"ha":847,"x_min":118,"x_max":729,"o":"m 614 1018 l 474 857 l 374 857 l 235 1018 l 296 1075 l 425 961 l 553 1075 l 614 1018 m 118 0 l 118 722 l 729 722 l 729 0 l 608 0 l 608 614 l 239 614 l 239 0 l 118 0 z "},"Ő":{"ha":1204,"x_min":86,"x_max":1118,"o":"m 460 1079 l 397 1144 l 575 1349 l 665 1256 l 460 1079 m 779 1079 l 717 1144 l 894 1349 l 985 1256 l 779 1079 m 239 844 q 315 918 239 844 q 603 992 392 992 q 966 844 814 992 q 1118 486 1118 696 q 966 128 1118 276 q 603 -19 814 -19 q 239 128 392 -19 q 86 486 86 276 q 239 844 86 696 m 603 94 q 876 208 765 94 q 988 486 988 321 q 876 764 988 650 q 603 878 765 878 q 328 764 439 878 q 217 486 217 650 q 328 208 217 321 q 603 94 439 94 z "},"ő":{"ha":933,"x_min":76,"x_max":857,"o":"m 326 849 l 267 911 l 438 1107 l 524 1018 l 326 849 m 617 849 l 557 911 l 728 1107 l 814 1018 l 617 849 m 191 631 q 248 686 191 631 q 467 742 306 742 q 742 631 628 742 q 857 361 857 521 q 742 92 857 203 q 467 -19 628 -19 q 191 92 306 -19 q 76 361 76 203 q 191 631 76 521 m 276 167 q 314 128 276 167 q 467 89 351 89 q 657 167 582 89 q 732 361 732 246 q 657 556 732 478 q 467 633 582 633 q 276 556 351 633 q 201 361 201 478 q 276 167 201 246 z "},"Œ":{"ha":1400,"x_min":86,"x_max":1317,"o":"m 1317 111 l 1317 0 l 746 0 q 601 -19 675 -19 q 238 128 390 -19 q 86 486 86 276 q 238 844 86 696 q 601 992 390 992 q 746 972 682 992 l 1308 972 l 1308 861 l 871 861 l 871 560 l 1293 560 l 1293 449 l 871 449 l 871 111 l 1317 111 m 217 486 q 328 208 217 322 q 601 94 439 94 q 746 121 675 94 l 746 851 q 601 878 681 878 q 328 765 439 878 q 217 486 217 651 z "},"œ":{"ha":1624,"x_min":76,"x_max":1582,"o":"m 1114 86 q 1235 116 1179 86 q 1325 200 1292 146 l 1439 171 q 1306 29 1390 78 q 1114 -19 1221 -19 q 924 30 1011 -19 q 790 161 836 79 q 655 30 742 79 q 467 -19 568 -19 q 191 92 306 -19 q 76 361 76 203 q 191 631 76 521 q 467 742 306 742 q 656 692 568 742 q 789 561 743 643 q 921 692 833 643 q 1113 742 1008 742 q 1327 676 1233 742 q 1464 500 1421 610 l 1560 522 l 1582 417 l 1001 292 l 979 394 l 1346 472 q 1113 636 1275 636 q 923 558 994 636 q 851 361 851 481 q 926 165 851 244 q 1114 86 1000 86 m 277 166 q 315 126 277 166 q 467 86 353 86 q 653 165 581 86 q 726 361 726 244 q 653 557 726 478 q 467 636 581 636 q 276 557 351 636 q 201 361 201 478 q 277 166 201 246 z "},"Ŕ":{"ha":853,"x_min":76,"x_max":775,"o":"m 428 1079 l 365 1144 l 543 1349 l 633 1256 l 428 1079 m 775 71 l 707 -19 l 250 325 l 199 0 l 76 0 l 231 972 l 453 972 q 663 901 579 972 q 747 711 747 831 q 660 522 747 593 q 446 450 574 450 l 267 450 l 775 71 m 335 864 l 288 558 l 446 558 q 572 599 522 558 q 622 711 622 640 q 575 824 622 783 q 453 864 528 864 l 335 864 z "},"ŕ":{"ha":653,"x_min":118,"x_max":599,"o":"m 315 849 l 256 911 l 426 1107 l 513 1018 l 315 849 m 406 742 q 548 658 497 724 q 599 494 599 593 q 590 421 599 456 l 469 443 q 476 494 476 471 q 458 578 476 542 q 403 625 439 614 l 239 533 l 239 0 l 118 0 l 118 722 l 239 722 l 239 649 l 406 742 z "},"Ŗ":{"ha":853,"x_min":76,"x_max":775,"o":"m 360 -365 l 460 -150 l 340 -103 l 267 -329 l 360 -365 m 775 71 l 707 -19 l 250 325 l 199 0 l 76 0 l 231 972 l 453 972 q 663 901 579 972 q 747 711 747 831 q 660 522 747 593 q 446 450 574 450 l 267 450 l 775 71 m 335 864 l 288 558 l 446 558 q 572 599 522 558 q 622 711 622 640 q 575 824 622 783 q 453 864 528 864 l 335 864 z "},"ŗ":{"ha":653,"x_min":83,"x_max":599,"o":"m 172 -354 l 268 -149 l 154 -103 l 83 -319 l 172 -354 m 406 742 q 548 658 497 724 q 599 494 599 593 q 590 421 599 456 l 469 443 q 476 494 476 471 q 458 578 476 542 q 403 625 439 614 l 239 533 l 239 0 l 118 0 l 118 722 l 239 722 l 239 649 l 406 742 z "},"Ř":{"ha":853,"x_min":76,"x_max":775,"o":"m 599 1251 l 453 1083 l 349 1083 l 204 1251 l 267 1311 l 401 1192 l 535 1311 l 599 1251 m 775 71 l 707 -19 l 250 325 l 199 0 l 76 0 l 231 972 l 453 972 q 663 901 579 972 q 747 711 747 831 q 660 522 747 593 q 446 450 574 450 l 267 450 l 775 71 m 335 864 l 288 558 l 446 558 q 572 599 522 558 q 622 711 622 640 q 575 824 622 783 q 453 864 528 864 l 335 864 z "},"ř":{"ha":651,"x_min":118,"x_max":599,"o":"m 511 1018 l 371 857 l 271 857 l 132 1018 l 193 1075 l 322 961 l 450 1075 l 511 1018 m 406 742 q 548 658 497 724 q 599 494 599 593 q 590 421 599 456 l 469 443 q 476 494 476 471 q 458 578 476 542 q 403 625 439 614 l 239 533 l 239 0 l 118 0 l 118 722 l 239 722 l 239 649 l 406 742 z "},"Ś":{"ha":832,"x_min":63,"x_max":776,"o":"m 560 1079 l 497 1144 l 675 1349 l 765 1256 l 560 1079 m 151 52 q 195 16 151 52 q 374 -19 239 -19 q 597 52 508 -19 q 685 256 685 124 q 647 389 685 318 q 562 512 608 460 q 477 624 515 564 q 439 728 439 683 q 479 844 439 808 q 603 881 519 881 q 728 844 671 881 l 776 946 q 597 992 699 992 q 389 923 467 992 q 311 728 311 854 q 336 620 311 675 q 397 519 361 565 q 470 428 433 472 q 532 339 507 385 q 557 254 557 293 q 506 135 557 178 q 374 92 456 92 q 242 133 296 92 q 189 249 189 175 q 219 363 189 301 l 101 388 q 63 256 63 324 q 151 52 63 124 z "},"ś":{"ha":682,"x_min":51,"x_max":665,"o":"m 468 849 l 408 911 l 579 1107 l 665 1018 l 468 849 m 506 636 q 415 611 444 636 q 386 525 386 586 q 427 438 386 493 q 509 317 468 382 q 550 193 550 251 q 479 37 550 93 q 301 -19 408 -19 q 123 37 194 -19 q 51 193 51 93 q 88 303 51 250 l 203 279 q 174 188 174 229 q 210 113 174 140 q 301 86 247 86 q 393 115 358 86 q 428 192 428 143 q 387 285 428 229 q 305 403 346 340 q 264 524 264 467 q 333 688 264 635 q 499 742 403 742 q 643 703 582 742 l 597 604 q 506 636 558 636 z "},"Ŝ":{"ha":832,"x_min":63,"x_max":776,"o":"m 631 1307 l 776 1139 l 713 1079 l 579 1199 l 444 1079 l 382 1139 l 526 1307 l 631 1307 m 151 52 q 195 16 151 52 q 374 -19 239 -19 q 597 52 508 -19 q 685 256 685 124 q 647 389 685 318 q 562 512 608 460 q 477 624 515 564 q 439 728 439 683 q 479 844 439 808 q 603 881 519 881 q 728 844 671 881 l 776 946 q 597 992 699 992 q 389 923 467 992 q 311 728 311 854 q 336 620 311 675 q 397 519 361 565 q 470 428 433 472 q 532 339 507 385 q 557 254 557 293 q 506 135 557 178 q 374 92 456 92 q 242 133 296 92 q 189 249 189 175 q 219 363 189 301 l 101 388 q 63 256 63 324 q 151 52 63 124 z "},"ŝ":{"ha":682,"x_min":51,"x_max":685,"o":"m 544 1067 l 685 906 l 624 849 l 496 963 l 367 849 l 306 906 l 444 1067 l 544 1067 m 506 636 q 415 611 444 636 q 386 525 386 586 q 427 438 386 493 q 509 317 468 382 q 550 193 550 251 q 479 37 550 93 q 301 -19 408 -19 q 123 37 194 -19 q 51 193 51 93 q 88 303 51 250 l 203 279 q 174 188 174 229 q 210 113 174 140 q 301 86 247 86 q 393 115 358 86 q 428 192 428 143 q 387 285 428 229 q 305 403 346 340 q 264 524 264 467 q 333 688 264 635 q 499 742 403 742 q 643 703 582 742 l 597 604 q 506 636 558 636 z "},"Ş":{"ha":832,"x_min":63,"x_max":776,"o":"m 540 -247 q 477 -344 540 -312 q 317 -378 414 -375 l 331 -287 q 436 -235 436 -286 q 349 -178 436 -193 l 360 -106 q 540 -247 540 -132 m 597 52 q 552 16 597 52 q 374 -19 508 -19 q 151 52 239 -19 q 63 256 63 124 q 101 388 63 324 l 219 363 q 189 249 189 301 q 242 133 189 175 q 374 92 296 92 q 506 135 456 92 q 557 254 557 178 q 532 339 557 293 q 470 428 507 385 q 397 519 433 472 q 336 620 361 565 q 311 728 311 675 q 389 923 311 854 q 597 992 467 992 q 776 946 700 992 l 728 844 q 603 881 671 881 q 479 844 519 881 q 439 728 439 808 q 477 624 439 683 q 562 512 515 564 q 647 389 608 460 q 685 256 685 318 q 597 52 685 124 z "},"ş":{"ha":682,"x_min":51,"x_max":643,"o":"m 471 -242 q 410 -334 471 -304 q 256 -367 349 -364 l 269 -279 q 371 -229 371 -278 q 288 -175 371 -187 l 297 -106 q 471 -242 471 -129 m 506 636 q 415 611 444 636 q 386 525 386 586 q 427 438 386 493 q 509 317 468 382 q 550 193 550 251 q 479 37 550 93 q 301 -19 408 -19 q 123 37 194 -19 q 51 193 51 93 q 88 303 51 250 l 203 279 q 174 188 174 229 q 210 113 174 140 q 301 86 247 86 q 393 115 358 86 q 428 192 428 143 q 387 285 428 229 q 305 403 346 340 q 264 524 264 467 q 333 688 264 635 q 499 742 403 742 q 643 703 582 742 l 597 604 q 506 636 558 636 z "},"Š":{"ha":832,"x_min":63,"x_max":776,"o":"m 776 1251 l 631 1083 l 526 1083 l 382 1251 l 444 1311 l 579 1192 l 713 1311 l 776 1251 m 151 52 q 195 16 151 52 q 374 -19 239 -19 q 597 52 508 -19 q 685 256 685 124 q 647 389 685 318 q 562 512 608 460 q 477 624 515 564 q 439 728 439 683 q 479 844 439 808 q 603 881 519 881 q 728 844 671 881 l 776 946 q 597 992 699 992 q 389 923 467 992 q 311 728 311 854 q 336 620 311 675 q 397 519 361 565 q 470 428 433 472 q 532 339 507 385 q 557 254 557 293 q 506 135 557 178 q 374 92 456 92 q 242 133 296 92 q 189 249 189 175 q 219 363 189 301 l 101 388 q 63 256 63 324 q 151 52 63 124 z "},"š":{"ha":682,"x_min":51,"x_max":688,"o":"m 688 1018 l 547 857 l 447 857 l 308 1018 l 369 1075 l 499 961 l 626 1075 l 688 1018 m 506 636 q 415 611 444 636 q 386 525 386 586 q 427 438 386 493 q 509 317 468 382 q 550 193 550 251 q 479 37 550 93 q 301 -19 408 -19 q 123 37 194 -19 q 51 193 51 93 q 88 303 51 250 l 203 279 q 174 188 174 229 q 210 113 174 140 q 301 86 247 86 q 393 115 358 86 q 428 192 428 143 q 387 285 428 229 q 305 403 346 340 q 264 524 264 467 q 333 688 264 635 q 499 742 403 742 q 643 703 582 742 l 597 604 q 506 636 558 636 z "},"Ţ":{"ha":792,"x_min":56,"x_max":736,"o":"m 56 972 l 736 972 l 736 861 l 458 861 l 458 0 l 333 0 l 333 861 l 56 861 l 56 972 m 563 -247 q 499 -344 563 -312 q 339 -378 436 -375 l 353 -287 q 458 -235 458 -286 q 371 -178 458 -193 l 382 -106 q 563 -247 563 -132 z "},"ţ":{"ha":532,"x_min":42,"x_max":490,"o":"m 490 722 l 490 614 l 288 614 l 288 0 l 167 0 l 167 614 l 42 614 l 42 722 l 167 722 l 167 931 l 288 931 l 288 722 l 490 722 m 388 -242 q 326 -334 388 -304 q 172 -367 265 -364 l 186 -279 q 288 -229 288 -278 q 204 -175 288 -187 l 214 -106 q 388 -242 388 -129 z "},"Ť":{"ha":792,"x_min":56,"x_max":736,"o":"m 593 1251 l 447 1083 l 343 1083 l 199 1251 l 261 1311 l 396 1192 l 529 1311 l 593 1251 m 56 972 l 736 972 l 736 861 l 458 861 l 458 0 l 333 0 l 333 861 l 56 861 l 56 972 z "},"ť":{"ha":532,"x_min":42,"x_max":528,"o":"m 528 1071 l 454 828 l 368 847 l 408 1099 l 528 1071 m 490 722 l 490 614 l 288 614 l 288 0 l 167 0 l 167 614 l 42 614 l 42 722 l 167 722 l 167 931 l 288 931 l 288 722 l 490 722 z "},"Ū":{"ha":1000,"x_min":129,"x_max":871,"o":"m 288 1215 l 713 1215 l 713 1117 l 288 1117 l 288 1215 m 746 972 l 871 972 l 871 306 q 761 72 871 163 q 500 -19 651 -19 q 238 72 347 -19 q 129 306 129 163 l 129 972 l 254 972 l 254 306 q 327 153 254 213 q 500 94 400 94 q 673 153 600 94 q 746 306 746 213 l 746 972 z "},"ū":{"ha":833,"x_min":111,"x_max":722,"o":"m 213 961 l 621 961 l 621 868 l 213 868 l 213 961 m 722 722 l 722 281 q 638 63 722 146 q 417 -19 553 -19 q 196 63 281 -19 q 111 281 111 146 l 111 722 l 232 722 l 232 281 q 283 142 232 194 q 417 89 333 89 q 551 142 500 89 q 601 281 601 194 l 601 722 l 722 722 z "},"Ŭ":{"ha":1000,"x_min":129,"x_max":871,"o":"m 586 1274 l 697 1256 q 633 1133 689 1182 q 500 1085 576 1085 q 367 1133 424 1085 q 303 1256 311 1182 l 414 1274 q 438 1207 414 1233 q 500 1181 461 1181 q 563 1207 539 1181 q 586 1274 586 1233 m 746 972 l 871 972 l 871 306 q 761 72 871 163 q 500 -19 651 -19 q 238 72 347 -19 q 129 306 129 163 l 129 972 l 254 972 l 254 306 q 327 153 254 213 q 500 94 400 94 q 673 153 600 94 q 746 306 746 213 l 746 972 z "},"ŭ":{"ha":833,"x_min":111,"x_max":722,"o":"m 499 1025 l 606 1007 q 544 890 597 936 q 417 843 490 843 q 290 890 343 843 q 228 1007 236 936 l 335 1025 q 358 960 335 986 q 417 933 381 933 q 476 960 453 933 q 499 1025 499 986 m 722 722 l 722 281 q 638 63 722 146 q 417 -19 553 -19 q 196 63 281 -19 q 111 281 111 146 l 111 722 l 232 722 l 232 281 q 283 142 232 194 q 417 89 333 89 q 551 142 500 89 q 601 281 601 194 l 601 722 l 722 722 z "},"Ů":{"ha":1000,"x_min":129,"x_max":871,"o":"m 559 1260 q 547 1273 559 1260 q 500 1285 535 1285 q 441 1260 465 1285 q 417 1201 417 1236 q 441 1142 417 1167 q 500 1118 465 1118 q 559 1142 535 1118 q 583 1201 583 1167 q 559 1260 583 1236 m 500 1350 q 608 1307 564 1350 q 651 1201 651 1264 q 608 1096 651 1139 q 500 1053 564 1053 q 393 1096 438 1053 q 349 1201 349 1139 q 393 1307 349 1264 q 500 1350 438 1350 m 746 972 l 871 972 l 871 306 q 761 72 871 163 q 500 -19 651 -19 q 238 72 347 -19 q 129 306 129 163 l 129 972 l 254 972 l 254 306 q 327 153 254 213 q 500 94 400 94 q 673 153 600 94 q 746 306 746 213 l 746 972 z "},"ů":{"ha":833,"x_min":111,"x_max":722,"o":"m 476 1027 q 464 1039 476 1027 q 417 1051 451 1051 q 358 1027 382 1051 q 333 968 333 1003 q 358 909 333 933 q 417 885 382 885 q 476 909 451 885 q 500 968 500 933 q 476 1027 500 1003 m 417 1117 q 524 1074 481 1117 q 568 968 568 1031 q 524 863 568 906 q 417 819 481 819 q 310 863 354 819 q 265 968 265 906 q 310 1074 265 1031 q 417 1117 354 1117 m 722 722 l 722 281 q 638 63 722 146 q 417 -19 553 -19 q 196 63 281 -19 q 111 281 111 146 l 111 722 l 232 722 l 232 281 q 283 142 232 194 q 417 89 333 89 q 551 142 500 89 q 601 281 601 194 l 601 722 l 722 722 z "},"Ű":{"ha":1000,"x_min":129,"x_max":871,"o":"m 336 1079 l 274 1144 l 451 1349 l 542 1256 l 336 1079 m 647 1079 l 585 1144 l 763 1349 l 853 1256 l 647 1079 m 746 972 l 871 972 l 871 306 q 761 72 871 163 q 500 -19 651 -19 q 238 72 347 -19 q 129 306 129 163 l 129 972 l 254 972 l 254 306 q 327 153 254 213 q 500 94 400 94 q 673 153 600 94 q 746 306 746 213 l 746 972 z "},"ű":{"ha":833,"x_min":111,"x_max":754,"o":"m 261 849 l 201 911 l 372 1107 l 458 1018 l 261 849 m 557 849 l 497 911 l 668 1107 l 754 1018 l 557 849 m 722 722 l 722 281 q 638 63 722 146 q 417 -19 553 -19 q 196 63 281 -19 q 111 281 111 146 l 111 722 l 232 722 l 232 281 q 283 142 232 194 q 417 89 333 89 q 551 142 500 89 q 601 281 601 194 l 601 722 l 722 722 z "},"Ų":{"ha":1000,"x_min":129,"x_max":871,"o":"m 746 972 l 871 972 l 871 306 q 827 147 871 217 q 708 33 783 76 q 688 15 706 31 q 665 -5 669 0 q 643 -26 660 -10 q 619 -49 626 -42 q 600 -72 613 -57 q 582 -99 588 -87 q 569 -124 576 -110 q 558 -153 561 -139 q 556 -181 556 -167 q 672 -253 556 -253 l 672 -349 q 506 -308 567 -349 q 444 -192 444 -268 q 476 -106 444 -154 q 557 -17 508 -57 q 500 -19 538 -19 q 238 72 347 -19 q 129 306 129 163 l 129 972 l 254 972 l 254 306 q 327 153 254 213 q 500 94 400 94 q 673 153 600 94 q 746 306 746 213 l 746 972 z "},"ų":{"ha":833,"x_min":111,"x_max":722,"o":"m 601 722 l 722 722 l 722 281 q 597 29 722 114 q 499 -61 547 -3 q 451 -175 451 -119 q 565 -246 451 -246 l 565 -339 q 403 -299 463 -339 q 343 -185 343 -260 q 373 -103 343 -150 q 449 -18 403 -57 q 417 -19 439 -19 q 196 63 281 -19 q 111 281 111 146 l 111 722 l 232 722 l 232 281 q 283 142 232 194 q 417 89 333 89 q 551 142 500 89 q 601 281 601 194 l 601 722 z "},"Ŵ":{"ha":1290,"x_min":50,"x_max":1240,"o":"m 703 1307 l 849 1139 l 785 1079 l 651 1199 l 517 1079 l 454 1139 l 599 1307 l 703 1307 m 1111 972 l 1240 972 l 964 0 l 836 0 l 647 543 l 454 0 l 326 0 l 50 972 l 183 972 l 400 163 l 588 704 l 494 972 l 615 972 l 894 163 l 1111 972 z "},"ŵ":{"ha":1064,"x_min":35,"x_max":1029,"o":"m 582 1067 l 722 906 l 661 849 l 533 963 l 404 849 l 343 906 l 482 1067 l 582 1067 m 913 722 l 1029 722 l 806 0 l 693 0 l 531 425 l 371 0 l 257 0 l 35 722 l 156 722 l 324 147 l 472 560 l 413 722 l 529 722 l 742 147 l 913 722 z "},"Ŷ":{"ha":815,"x_min":35,"x_max":783,"o":"m 463 1307 l 608 1139 l 544 1079 l 411 1199 l 276 1079 l 214 1139 l 358 1307 l 463 1307 m 783 972 l 367 111 l 500 111 l 500 0 l 229 0 l 229 94 l 378 396 l 321 396 l 35 972 l 174 972 l 414 474 l 650 972 l 783 972 z "},"ŷ":{"ha":790,"x_min":31,"x_max":765,"o":"m 446 1067 l 586 906 l 525 849 l 397 963 l 268 849 l 207 906 l 346 1067 l 446 1067 m 638 722 l 765 722 l 285 -418 l 156 -418 l 374 86 l 299 86 l 31 722 l 164 722 l 400 149 l 638 722 z "},"Ÿ":{"ha":815,"x_min":35,"x_max":783,"o":"m 274 1094 q 215 1118 239 1094 q 190 1176 190 1142 q 215 1235 190 1211 q 274 1260 239 1260 q 332 1235 308 1260 q 356 1176 356 1211 q 331 1118 356 1142 q 274 1094 307 1094 m 551 1094 q 492 1118 517 1094 q 468 1176 468 1142 q 492 1235 468 1211 q 551 1260 517 1260 q 610 1235 586 1260 q 633 1176 633 1211 q 609 1118 633 1142 q 551 1094 585 1094 m 783 972 l 367 111 l 500 111 l 500 0 l 229 0 l 229 94 l 378 396 l 321 396 l 35 972 l 174 972 l 414 474 l 650 972 l 783 972 z "},"Ź":{"ha":857,"x_min":75,"x_max":767,"o":"m 426 1079 l 364 1144 l 542 1349 l 632 1256 l 426 1079 m 651 499 q 767 278 767 410 q 669 63 767 146 q 424 -19 571 -19 q 190 59 286 -19 q 75 276 93 138 l 563 861 l 133 861 l 133 972 l 708 972 l 708 860 l 206 256 q 281 133 222 175 q 424 92 339 92 q 581 142 522 92 q 639 278 639 192 q 578 408 639 354 l 651 499 z "},"ź":{"ha":726,"x_min":60,"x_max":644,"o":"m 372 849 l 313 911 l 483 1107 l 569 1018 l 372 849 m 571 429 q 644 250 644 356 q 559 56 644 132 q 349 -19 474 -19 q 163 42 243 -19 q 60 196 83 103 l 450 617 l 114 617 l 114 722 l 592 722 l 592 618 l 192 185 q 349 86 235 86 q 474 132 424 86 q 524 250 524 178 q 490 343 524 300 l 571 429 z "},"Ż":{"ha":857,"x_min":75,"x_max":767,"o":"m 408 1093 q 348 1117 372 1093 q 324 1176 324 1142 q 349 1236 324 1211 q 408 1261 374 1261 q 467 1236 443 1261 q 492 1176 492 1211 q 467 1117 492 1142 q 408 1093 442 1093 m 651 499 q 767 278 767 410 q 669 63 767 146 q 424 -19 571 -19 q 190 59 286 -19 q 75 276 93 138 l 563 861 l 133 861 l 133 972 l 708 972 l 708 860 l 206 256 q 281 133 222 175 q 424 92 339 92 q 581 142 522 92 q 639 278 639 192 q 578 408 639 354 l 651 499 z "},"ż":{"ha":726,"x_min":60,"x_max":644,"o":"m 353 854 q 294 878 318 854 q 269 936 269 901 q 294 995 269 971 q 353 1019 318 1019 q 411 995 388 1019 q 435 936 435 971 q 410 878 435 901 q 353 854 386 854 m 571 429 q 644 250 644 356 q 559 56 644 132 q 349 -19 474 -19 q 163 42 243 -19 q 60 196 83 103 l 450 617 l 114 617 l 114 722 l 592 722 l 592 618 l 192 185 q 349 86 235 86 q 474 132 424 86 q 524 250 524 178 q 490 343 524 300 l 571 429 z "},"Ž":{"ha":857,"x_min":75,"x_max":767,"o":"m 615 1251 l 469 1083 l 365 1083 l 221 1251 l 283 1311 l 418 1192 l 551 1311 l 615 1251 m 651 499 q 767 278 767 410 q 669 63 767 146 q 424 -19 571 -19 q 190 59 286 -19 q 75 276 93 138 l 563 861 l 133 861 l 133 972 l 708 972 l 708 860 l 206 256 q 281 133 222 175 q 424 92 339 92 q 581 142 522 92 q 639 278 639 192 q 578 408 639 354 l 651 499 z "},"ž":{"ha":726,"x_min":60,"x_max":644,"o":"m 542 1018 l 401 857 l 301 857 l 163 1018 l 224 1075 l 353 961 l 481 1075 l 542 1018 m 571 429 q 644 250 644 356 q 559 56 644 132 q 349 -19 474 -19 q 163 42 243 -19 q 60 196 83 103 l 450 617 l 114 617 l 114 722 l 592 722 l 592 618 l 192 185 q 349 86 235 86 q 474 132 424 86 q 524 250 524 178 q 490 343 524 300 l 571 429 z "},"ſ":{"ha":372,"x_min":76,"x_max":606,"o":"m 340 1150 q 515 1099 440 1150 q 606 960 590 1047 l 485 936 q 436 1013 478 985 q 340 1042 394 1042 q 241 1007 281 1042 q 201 914 201 972 q 222 819 201 875 q 242 722 242 764 l 242 0 l 121 0 l 121 722 q 99 813 121 757 q 76 914 76 869 q 152 1085 76 1021 q 340 1150 228 1150 z "},"Ƶ":{"ha":857,"x_min":75,"x_max":767,"o":"m 639 279 l 767 279 q 669 63 767 146 q 425 -19 571 -19 q 190 59 286 -19 q 75 276 93 138 l 306 553 l 135 553 l 135 661 l 396 661 l 563 861 l 135 861 l 135 972 l 708 972 l 708 861 l 543 661 l 708 661 l 708 553 l 453 553 l 206 257 q 281 133 222 175 q 425 92 339 92 q 581 142 524 92 q 639 279 639 193 z "},"ƶ":{"ha":726,"x_min":60,"x_max":644,"o":"m 524 251 l 644 251 q 559 57 644 132 q 349 -18 474 -18 q 163 43 243 -18 q 60 197 83 104 l 233 385 l 114 385 l 114 483 l 325 483 l 450 618 l 114 618 l 114 722 l 592 722 l 592 619 l 467 483 l 592 483 l 592 385 l 375 385 l 192 185 q 349 86 235 86 q 474 132 424 86 q 524 251 524 178 z "},"Ș":{"ha":832,"x_min":63,"x_max":776,"o":"m 438 -150 l 338 -365 l 244 -329 l 318 -103 l 438 -150 m 597 52 q 552 16 597 52 q 374 -19 508 -19 q 151 52 239 -19 q 63 256 63 124 q 101 388 63 324 l 219 363 q 189 249 189 301 q 242 133 189 175 q 374 92 296 92 q 506 135 456 92 q 557 254 557 178 q 532 339 557 293 q 470 428 507 385 q 397 519 433 472 q 336 620 361 565 q 311 728 311 675 q 389 923 311 854 q 597 992 467 992 q 776 946 700 992 l 728 844 q 603 881 671 881 q 479 844 519 881 q 439 728 439 808 q 477 624 439 683 q 562 512 515 564 q 647 389 608 460 q 685 256 685 318 q 597 52 685 124 z "},"ș":{"ha":682,"x_min":51,"x_max":643,"o":"m 254 -354 l 350 -149 l 236 -103 l 165 -319 l 254 -354 m 506 636 q 415 611 444 636 q 386 525 386 586 q 427 438 386 493 q 509 317 468 382 q 550 193 550 251 q 479 37 550 93 q 301 -19 408 -19 q 123 37 194 -19 q 51 193 51 93 q 88 303 51 250 l 203 279 q 174 188 174 229 q 210 113 174 140 q 301 86 247 86 q 393 115 358 86 q 428 192 428 143 q 387 285 428 229 q 305 403 346 340 q 264 524 264 467 q 333 688 264 635 q 499 742 403 742 q 643 703 582 742 l 597 604 q 506 636 558 636 z "},"Ț":{"ha":792,"x_min":56,"x_max":736,"o":"m 344 -365 l 444 -150 l 325 -103 l 251 -329 l 344 -365 m 56 972 l 736 972 l 736 861 l 458 861 l 458 0 l 333 0 l 333 861 l 56 861 l 56 972 z "},"ț":{"ha":532,"x_min":42,"x_max":490,"o":"m 200 -354 l 296 -149 l 182 -103 l 111 -319 l 200 -354 m 490 722 l 490 614 l 288 614 l 288 0 l 167 0 l 167 614 l 42 614 l 42 722 l 167 722 l 167 931 l 288 931 l 288 722 l 490 722 z "},"ˆ":{"ha":417,"x_min":11,"x_max":406,"o":"m 260 1306 l 406 1138 l 342 1078 l 208 1197 l 74 1078 l 11 1138 l 156 1306 l 260 1306 z "},"ˇ":{"ha":417,"x_min":11,"x_max":406,"o":"m 406 1251 l 260 1083 l 156 1083 l 11 1251 l 74 1311 l 208 1192 l 342 1311 l 406 1251 z "},"˘":{"ha":408,"x_min":10,"x_max":399,"o":"m 288 1274 l 399 1256 q 334 1133 390 1182 q 201 1085 278 1085 q 72 1134 128 1085 q 10 1256 17 1183 l 121 1274 q 143 1207 121 1233 q 204 1181 165 1181 q 265 1207 243 1181 q 288 1274 288 1233 z "},"˙":{"ha":193,"x_min":13,"x_max":181,"o":"m 97 1093 q 37 1117 61 1093 q 13 1176 13 1142 q 38 1236 13 1211 q 97 1261 63 1261 q 156 1236 132 1261 q 181 1176 181 1211 q 156 1117 181 1142 q 97 1093 131 1093 z "},"˚":{"ha":322,"x_min":10,"x_max":313,"o":"m 220 1260 q 208 1273 220 1260 q 161 1285 196 1285 q 102 1260 126 1285 q 78 1201 78 1236 q 102 1142 78 1167 q 161 1118 126 1118 q 220 1142 196 1118 q 244 1201 244 1167 q 220 1260 244 1236 m 161 1350 q 269 1307 225 1350 q 313 1201 313 1264 q 269 1096 313 1139 q 161 1053 225 1053 q 54 1096 99 1053 q 10 1201 10 1139 q 54 1307 10 1264 q 161 1350 99 1350 z "},"˜":{"ha":460,"x_min":6,"x_max":454,"o":"m 360 1256 l 454 1242 q 317 1094 422 1094 q 227 1126 282 1094 q 146 1158 172 1158 q 100 1094 114 1158 l 6 1108 q 143 1256 38 1256 q 233 1224 178 1256 q 314 1192 288 1192 q 360 1256 347 1192 z "},"Ω":{"ha":1133,"x_min":86,"x_max":1047,"o":"m 1047 503 q 994 277 1047 386 q 851 111 942 168 l 1047 111 l 1047 0 l 660 0 l 660 111 q 846 260 775 153 q 917 503 917 368 q 817 768 917 658 q 567 878 718 878 q 316 768 415 878 q 217 503 217 658 q 288 260 217 368 q 474 111 358 153 l 474 0 l 86 0 l 86 111 l 282 111 q 139 277 192 168 q 86 503 86 386 q 227 848 86 704 q 567 992 368 992 q 906 848 765 992 q 1047 503 1047 704 z "},"Ѐ":{"ha":793,"x_min":139,"x_max":710,"o":"m 513 1144 l 450 1079 l 244 1256 l 335 1349 l 513 1144 m 264 111 l 710 111 l 710 0 l 139 0 l 139 972 l 701 972 l 701 861 l 264 861 l 264 560 l 686 560 l 686 449 l 264 449 l 264 111 z "},"Ё":{"ha":793,"x_min":139,"x_max":710,"o":"m 294 1094 q 235 1118 260 1094 q 211 1176 211 1142 q 235 1235 211 1211 q 294 1260 260 1260 q 353 1235 329 1260 q 376 1176 376 1211 q 352 1118 376 1142 q 294 1094 328 1094 m 569 1094 q 510 1118 535 1094 q 486 1176 486 1142 q 510 1235 486 1211 q 569 1260 535 1260 q 628 1235 604 1260 q 651 1176 651 1211 q 627 1118 651 1142 q 569 1094 603 1094 m 264 111 l 710 111 l 710 0 l 139 0 l 139 972 l 701 972 l 701 861 l 264 861 l 264 560 l 686 560 l 686 449 l 264 449 l 264 111 z "},"Ђ":{"ha":997,"x_min":56,"x_max":921,"o":"m 629 586 q 842 506 763 586 q 921 293 921 426 q 853 106 921 185 q 657 -10 786 26 l 610 92 q 796 293 796 146 q 753 426 796 378 q 629 475 710 475 q 422 410 521 475 l 422 0 l 297 0 l 297 861 l 56 861 l 56 972 l 663 972 l 663 861 l 422 861 l 422 529 q 629 586 532 586 z "},"Ѓ":{"ha":749,"x_min":76,"x_max":693,"o":"m 693 972 l 693 861 l 336 861 l 200 0 l 76 0 l 231 972 l 693 972 m 440 1079 l 378 1144 l 556 1349 l 646 1256 l 440 1079 z "},"Є":{"ha":1096,"x_min":86,"x_max":1026,"o":"m 901 267 l 1026 242 q 850 50 963 119 q 592 -19 738 -19 q 231 131 376 -19 q 86 494 86 281 q 232 848 86 704 q 592 992 378 992 q 846 926 735 992 q 1022 744 957 861 l 896 719 q 592 881 793 881 q 342 790 446 881 q 218 560 239 700 l 856 560 l 856 449 l 215 449 q 334 196 228 300 q 592 92 440 92 q 901 267 797 92 z "},"Ѕ":{"ha":832,"x_min":63,"x_max":776,"o":"m 597 52 q 552 16 597 52 q 374 -19 508 -19 q 151 52 239 -19 q 63 256 63 124 q 101 388 63 324 l 219 363 q 189 249 189 301 q 242 133 189 175 q 374 92 296 92 q 506 135 456 92 q 557 254 557 178 q 532 339 557 293 q 470 428 507 385 q 397 519 433 472 q 336 620 361 565 q 311 728 311 675 q 389 923 311 854 q 597 992 467 992 q 776 946 700 992 l 728 844 q 603 881 671 881 q 479 844 519 881 q 439 728 439 808 q 477 624 439 683 q 562 512 515 564 q 647 389 608 460 q 685 256 685 318 q 597 52 685 124 z "},"І":{"ha":403,"x_min":139,"x_max":264,"o":"m 139 972 l 264 972 l 264 0 l 139 0 l 139 972 z "},"Ї":{"ha":403,"x_min":0,"x_max":403,"o":"m 81 1094 q 23 1118 46 1094 q 0 1176 0 1142 q 23 1235 0 1211 q 81 1260 46 1260 q 137 1235 114 1260 q 160 1176 160 1211 q 137 1118 160 1142 q 81 1094 114 1094 m 324 1094 q 266 1118 289 1094 q 243 1176 243 1142 q 266 1235 243 1211 q 324 1260 289 1260 q 380 1235 357 1260 q 403 1176 403 1211 q 380 1118 403 1142 q 324 1094 357 1094 m 139 972 l 264 972 l 264 0 l 139 0 l 139 972 z "},"Ј":{"ha":711,"x_min":49,"x_max":579,"o":"m 454 972 l 579 972 l 579 260 q 508 56 579 131 q 313 -19 436 -19 q 130 44 200 -19 q 49 217 60 108 l 169 242 q 313 94 186 94 q 454 256 454 94 l 454 972 z "},"Љ":{"ha":1325,"x_min":56,"x_max":1256,"o":"m 908 572 q 1159 503 1063 572 q 1256 296 1256 433 q 1160 80 1256 160 q 921 0 1064 0 l 608 0 l 744 861 l 417 861 l 335 364 q 319 271 325 304 q 301 192 313 238 q 276 121 289 146 q 243 67 264 96 q 197 24 222 38 q 136 0 172 10 q 56 -10 100 -10 l 56 101 q 159 160 131 101 q 213 369 188 218 l 310 972 l 886 972 l 822 572 l 908 572 m 921 111 q 1069 160 1011 111 q 1128 296 1128 210 q 908 461 1128 461 l 806 461 l 750 111 l 921 111 z "},"Њ":{"ha":1333,"x_min":76,"x_max":1264,"o":"m 917 572 q 1167 503 1071 572 q 1264 296 1264 433 q 1168 80 1264 160 q 929 0 1072 0 l 618 0 l 690 461 l 274 461 l 200 0 l 76 0 l 231 972 l 354 972 l 290 572 l 708 572 l 772 972 l 896 972 l 832 572 l 917 572 m 929 111 q 1078 160 1019 111 q 1136 296 1136 210 q 917 461 1136 461 l 814 461 l 760 111 l 929 111 z "},"Ћ":{"ha":997,"x_min":56,"x_max":921,"o":"m 628 586 q 844 505 768 586 q 921 285 921 424 q 860 0 921 168 l 726 0 q 796 285 796 165 q 631 475 796 475 q 422 410 521 475 l 422 0 l 297 0 l 297 861 l 56 861 l 56 972 l 664 972 l 664 861 l 422 861 l 422 529 q 628 586 532 586 z "},"Ќ":{"ha":896,"x_min":139,"x_max":819,"o":"m 468 1079 l 406 1144 l 583 1349 l 674 1256 l 468 1079 m 467 563 q 622 520 554 563 q 725 417 689 478 q 784 274 761 356 q 813 128 807 192 q 819 0 819 64 l 692 0 q 682 157 692 85 q 649 301 672 229 q 578 413 626 372 q 464 454 531 454 q 264 360 347 454 l 264 0 l 139 0 l 139 972 l 264 972 l 264 501 l 714 992 l 797 918 l 467 563 z "},"Ѝ":{"ha":1046,"x_min":139,"x_max":907,"o":"m 776 972 l 907 972 l 907 0 l 782 0 l 782 790 l 256 0 l 139 0 l 139 972 l 264 972 l 264 201 l 776 972 m 604 1144 l 542 1079 l 336 1256 l 426 1349 l 604 1144 z "},"Ў":{"ha":815,"x_min":35,"x_max":783,"o":"m 783 972 l 367 111 l 500 111 l 500 0 l 229 0 l 229 94 l 378 396 l 321 396 l 35 972 l 174 972 l 414 474 l 650 972 l 783 972 m 500 1274 l 611 1256 q 547 1133 603 1182 q 414 1085 490 1085 q 281 1133 338 1085 q 217 1256 225 1182 l 328 1274 q 351 1207 328 1233 q 414 1181 375 1181 q 476 1207 453 1181 q 500 1274 500 1233 z "},"Џ":{"ha":996,"x_min":139,"x_max":857,"o":"m 857 972 l 857 0 l 558 0 l 558 -201 l 439 -201 l 439 0 l 139 0 l 139 972 l 264 972 l 264 111 l 732 111 l 732 972 l 857 972 z "},"А":{"ha":992,"x_min":43,"x_max":949,"o":"m 817 0 l 686 340 l 301 340 l 172 0 l 43 0 l 435 981 l 557 981 l 949 0 l 817 0 m 342 449 l 647 449 l 494 840 l 342 449 z "},"Б":{"ha":832,"x_min":76,"x_max":749,"o":"m 696 861 l 336 861 l 289 558 l 401 558 q 648 487 547 558 q 749 283 749 415 q 654 74 749 149 q 415 0 560 0 l 76 0 l 231 972 l 696 972 l 696 861 m 401 450 l 271 450 l 218 111 l 415 111 q 564 155 507 111 q 621 283 621 199 q 558 408 621 365 q 401 450 494 450 z "},"В":{"ha":843,"x_min":76,"x_max":760,"o":"m 715 722 q 681 600 715 658 q 589 511 647 542 q 760 271 760 428 q 664 70 760 140 q 424 0 568 0 l 76 0 l 229 972 l 421 972 q 634 908 553 972 q 715 722 715 844 m 333 864 l 285 558 l 404 558 q 540 601 486 558 q 593 717 593 644 q 547 826 593 789 q 421 864 500 864 l 333 864 m 424 108 q 574 149 514 108 q 635 271 635 190 q 569 401 635 353 q 404 450 504 450 l 268 450 l 214 108 l 424 108 z "},"Г":{"ha":749,"x_min":76,"x_max":693,"o":"m 693 972 l 693 861 l 336 861 l 200 0 l 76 0 l 231 972 l 693 972 z "},"Д":{"ha":999,"x_min":56,"x_max":936,"o":"m 831 108 l 936 108 l 936 -201 l 817 -201 l 817 0 l 175 0 l 175 -201 l 56 -201 l 56 108 l 143 108 q 199 224 172 138 q 238 390 225 311 l 329 972 l 831 972 l 831 108 m 708 108 l 708 864 l 433 864 l 357 381 q 322 222 347 311 q 279 108 297 133 l 708 108 z "},"Е":{"ha":793,"x_min":139,"x_max":710,"o":"m 264 111 l 710 111 l 710 0 l 139 0 l 139 972 l 701 972 l 701 861 l 264 861 l 264 560 l 686 560 l 686 449 l 264 449 l 264 111 z "},"Ж":{"ha":1283,"x_min":76,"x_max":1207,"o":"m 876 563 q 1006 534 949 563 q 1097 455 1063 506 q 1154 348 1131 404 q 1188 223 1178 292 q 1203 103 1199 154 q 1207 0 1207 53 l 1082 0 q 874 454 1082 454 q 703 397 769 454 l 703 0 l 581 0 l 581 397 q 410 454 514 454 q 201 0 201 454 l 76 0 q 81 103 76 53 q 95 223 85 154 q 129 348 106 292 q 187 455 153 404 q 278 534 221 506 q 407 563 335 563 l 94 918 l 179 992 l 581 529 l 581 972 l 703 972 l 703 529 l 1104 992 l 1189 918 l 876 563 z "},"З":{"ha":817,"x_min":56,"x_max":733,"o":"m 543 554 q 681 443 628 518 q 733 269 733 368 q 631 58 733 135 q 389 -19 529 -19 q 176 41 268 -19 q 56 211 83 101 l 181 236 q 257 131 197 169 q 389 92 317 92 q 541 140 476 92 q 606 268 606 189 q 435 492 606 419 q 338 456 397 474 l 285 551 q 342 570 325 564 q 397 590 360 576 q 451 617 433 604 q 492 650 469 631 q 524 694 514 669 q 533 747 533 718 q 490 847 533 814 q 372 881 446 881 q 197 813 285 881 l 136 908 q 378 992 243 992 q 581 923 501 992 q 661 735 661 854 q 543 554 661 638 z "},"И":{"ha":1046,"x_min":139,"x_max":907,"o":"m 776 972 l 907 972 l 907 0 l 782 0 l 782 790 l 256 0 l 139 0 l 139 972 l 264 972 l 264 201 l 776 972 z "},"Й":{"ha":1046,"x_min":139,"x_max":907,"o":"m 610 1274 l 721 1256 q 656 1133 713 1182 q 524 1085 600 1085 q 391 1133 447 1085 q 326 1256 335 1182 l 438 1274 q 461 1207 438 1233 q 524 1181 485 1181 q 586 1207 563 1181 q 610 1274 610 1233 m 776 972 l 907 972 l 907 0 l 782 0 l 782 790 l 256 0 l 139 0 l 139 972 l 264 972 l 264 201 l 776 972 z "},"К":{"ha":896,"x_min":139,"x_max":819,"o":"m 467 563 q 622 520 554 563 q 725 417 689 478 q 784 274 761 356 q 813 128 807 192 q 819 0 819 64 l 692 0 q 682 157 692 85 q 649 301 672 229 q 578 413 626 372 q 464 454 531 454 q 264 360 347 454 l 264 0 l 139 0 l 139 972 l 264 972 l 264 501 l 714 992 l 797 918 l 467 563 z "},"Л":{"ha":978,"x_min":56,"x_max":839,"o":"m 306 972 l 839 972 l 839 0 l 714 0 l 714 861 l 413 861 l 333 364 q 315 256 322 296 q 292 167 307 217 q 260 91 278 118 q 214 38 242 64 q 147 1 186 11 q 56 -10 107 -10 l 56 101 q 158 160 129 101 q 211 369 188 219 l 306 972 z "},"М":{"ha":1142,"x_min":139,"x_max":1003,"o":"m 896 972 l 1003 972 l 1003 0 l 878 0 l 878 767 l 610 396 l 529 396 l 261 767 l 261 0 l 139 0 l 139 972 l 246 972 l 571 528 l 896 972 z "},"Н":{"ha":996,"x_min":139,"x_max":857,"o":"m 732 972 l 857 972 l 857 0 l 732 0 l 732 449 l 264 449 l 264 0 l 139 0 l 139 972 l 264 972 l 264 560 l 732 560 l 732 972 z "},"О":{"ha":1204,"x_min":86,"x_max":1118,"o":"m 239 844 q 315 918 239 844 q 603 992 392 992 q 966 844 814 992 q 1118 486 1118 696 q 966 128 1118 276 q 603 -19 814 -19 q 239 128 392 -19 q 86 486 86 276 q 239 844 86 696 m 603 94 q 876 208 765 94 q 988 486 988 321 q 876 764 988 650 q 603 878 765 878 q 328 764 439 878 q 217 486 217 650 q 328 208 217 321 q 603 94 439 94 z "},"П":{"ha":996,"x_min":139,"x_max":857,"o":"m 139 972 l 857 972 l 857 0 l 732 0 l 732 861 l 264 861 l 264 0 l 139 0 l 139 972 z "},"Р":{"ha":839,"x_min":76,"x_max":776,"o":"m 231 972 l 456 972 q 685 897 594 972 q 776 692 776 821 q 686 473 776 557 q 456 389 596 389 l 261 389 l 200 0 l 76 0 l 231 972 m 279 500 l 456 500 q 597 552 544 500 q 649 692 649 604 q 596 816 649 771 q 456 861 543 861 l 336 861 l 279 500 z "},"С":{"ha":1114,"x_min":86,"x_max":1044,"o":"m 594 94 q 917 292 818 94 l 1044 267 q 865 57 983 133 q 594 -19 747 -19 q 234 131 382 -19 q 86 494 86 282 q 235 848 86 704 q 594 992 383 992 q 864 917 747 992 q 1042 713 981 842 l 914 688 q 594 878 815 878 q 324 768 432 878 q 217 494 217 658 q 324 210 217 326 q 594 94 431 94 z "},"Т":{"ha":792,"x_min":56,"x_max":736,"o":"m 56 972 l 736 972 l 736 861 l 458 861 l 458 0 l 333 0 l 333 861 l 56 861 l 56 972 z "},"У":{"ha":815,"x_min":35,"x_max":783,"o":"m 783 972 l 367 111 l 500 111 l 500 0 l 229 0 l 229 94 l 378 396 l 321 396 l 35 972 l 174 972 l 414 474 l 650 972 l 783 972 z "},"Ф":{"ha":1226,"x_min":86,"x_max":1140,"o":"m 675 872 q 1005 766 869 864 q 1140 497 1140 668 q 1005 228 1140 326 q 675 122 869 131 l 675 -19 l 553 -19 l 553 122 q 324 169 428 128 q 153 297 221 211 q 86 497 86 382 q 153 698 86 613 q 324 825 221 783 q 553 872 428 867 l 553 992 l 675 992 l 675 872 m 313 686 q 263 652 313 686 q 214 497 214 618 q 313 308 214 376 q 553 233 411 240 l 553 761 q 313 686 411 754 m 675 233 q 914 308 815 240 q 1013 497 1013 376 q 914 686 1013 618 q 675 761 815 754 l 675 233 z "},"Х":{"ha":1008,"x_min":49,"x_max":960,"o":"m 960 63 l 867 -19 l 501 415 l 140 -19 l 49 60 l 428 504 l 76 913 l 167 992 l 503 592 l 840 992 l 929 915 l 578 507 l 960 63 z "},"Ц":{"ha":1007,"x_min":139,"x_max":944,"o":"m 818 111 l 944 111 l 944 -201 l 825 -201 l 825 0 l 139 0 l 139 972 l 264 972 l 264 111 l 693 111 l 693 972 l 818 972 l 818 111 z "},"Ч":{"ha":881,"x_min":97,"x_max":742,"o":"m 617 972 l 742 972 l 742 0 l 617 0 l 617 435 q 400 372 529 372 q 177 449 257 372 q 97 661 97 525 l 97 972 l 222 972 l 222 661 q 268 531 222 579 q 397 483 314 483 q 617 556 518 483 l 617 972 z "},"Ш":{"ha":1347,"x_min":139,"x_max":1208,"o":"m 1208 0 l 139 0 l 139 972 l 264 972 l 264 111 l 613 111 l 613 972 l 738 972 l 738 111 l 1083 111 l 1083 972 l 1208 972 l 1208 0 z "},"Щ":{"ha":1397,"x_min":139,"x_max":1335,"o":"m 1208 111 l 1335 111 l 1335 -201 l 1215 -201 l 1215 0 l 139 0 l 139 972 l 264 972 l 264 111 l 611 111 l 611 972 l 736 972 l 736 111 l 1083 111 l 1083 972 l 1208 972 l 1208 111 z "},"Ъ":{"ha":840,"x_min":56,"x_max":771,"o":"m 424 585 q 672 509 572 585 q 771 294 771 433 q 675 80 771 160 q 436 0 579 0 l 129 0 l 265 861 l 56 861 l 56 972 l 407 972 l 346 585 l 424 585 m 436 111 q 585 160 526 111 q 643 294 643 210 q 581 428 643 383 q 424 474 519 474 l 328 474 l 271 111 l 436 111 z "},"Ы":{"ha":1185,"x_min":76,"x_max":1108,"o":"m 374 585 q 619 509 524 585 q 715 294 715 433 q 624 79 715 158 q 386 0 532 0 l 76 0 l 231 972 l 354 972 l 293 585 l 374 585 m 386 111 q 533 160 479 111 q 588 294 588 208 q 530 428 588 383 q 374 474 472 474 l 275 474 l 218 111 l 386 111 m 985 972 l 1108 972 l 954 0 l 831 0 l 985 972 z "},"Ь":{"ha":793,"x_min":76,"x_max":724,"o":"m 376 585 q 624 509 525 585 q 724 294 724 433 q 628 80 724 160 q 389 0 532 0 l 76 0 l 231 972 l 354 972 l 293 585 l 376 585 m 389 111 q 538 160 479 111 q 596 294 596 210 q 534 428 596 383 q 376 474 472 474 l 275 474 l 218 111 l 389 111 z "},"Э":{"ha":1090,"x_min":69,"x_max":1004,"o":"m 69 246 l 196 271 q 318 140 235 188 q 511 92 401 92 q 764 194 665 92 q 875 449 863 297 l 328 449 l 328 560 l 872 560 q 755 792 851 703 q 511 881 658 881 q 327 837 407 881 q 203 715 247 793 l 78 739 q 253 924 139 856 q 511 992 367 992 q 865 849 726 992 q 1004 494 1004 707 q 866 130 1004 279 q 511 -19 728 -19 q 244 51 363 -19 q 69 246 125 122 z "},"Ю":{"ha":1489,"x_min":76,"x_max":1403,"o":"m 913 992 q 1261 841 1119 992 q 1403 486 1403 690 q 1261 131 1403 282 q 913 -19 1119 -19 q 594 116 725 -19 q 450 449 464 251 l 271 449 l 200 0 l 76 0 l 231 972 l 354 972 l 289 560 l 454 560 q 607 868 479 744 q 913 992 735 992 m 913 94 q 1172 210 1071 94 q 1272 486 1272 326 q 1172 762 1272 646 q 913 878 1071 878 q 672 763 768 878 q 575 486 575 649 q 672 209 575 324 q 913 94 768 94 z "},"Я":{"ha":851,"x_min":56,"x_max":713,"o":"m 453 972 l 713 972 l 713 0 l 589 0 l 589 499 l 144 -19 l 56 57 l 360 400 q 193 508 261 429 q 125 692 125 588 q 219 897 125 821 q 453 972 313 972 m 253 692 q 307 558 253 613 q 439 497 361 504 l 589 665 l 589 861 l 453 861 q 309 815 365 861 q 253 692 253 769 z "},"а":{"ha":769,"x_min":71,"x_max":711,"o":"m 568 722 l 711 0 l 592 0 l 574 100 l 196 -19 q 106 85 142 25 q 71 210 71 146 q 156 404 71 329 q 368 479 242 479 q 504 442 447 479 l 469 617 l 94 617 l 94 722 l 568 722 m 236 103 l 551 203 l 531 301 q 461 353 510 332 q 368 374 413 374 q 242 328 292 374 q 192 210 192 283 q 236 103 192 150 z "},"б":{"ha":857,"x_min":86,"x_max":833,"o":"m 833 1140 q 799 1038 824 1082 q 747 969 775 994 q 674 924 719 944 q 596 896 628 904 q 510 876 564 888 q 276 758 351 843 q 196 519 201 674 q 306 603 239 572 q 444 633 372 633 q 685 540 586 633 q 783 307 783 447 q 678 74 783 167 q 428 -19 574 -19 q 183 77 279 -19 q 86 314 86 174 l 86 499 q 95 615 86 561 q 131 729 104 669 q 201 836 157 789 q 319 923 244 883 q 494 985 394 963 q 579 1006 550 997 q 641 1031 608 1014 q 689 1075 674 1049 q 708 1140 704 1101 l 833 1140 m 440 528 q 278 464 347 528 q 208 307 208 400 q 273 150 208 214 q 428 86 338 86 q 593 149 525 86 q 661 307 661 213 q 597 465 661 401 q 440 528 532 528 z "},"в":{"ha":718,"x_min":63,"x_max":646,"o":"m 518 385 q 646 203 646 325 q 570 51 646 103 q 386 0 494 0 l 63 0 l 176 722 l 374 722 q 538 674 472 722 q 603 536 603 625 q 518 385 603 438 m 374 621 l 278 621 l 246 425 l 358 425 q 449 453 411 425 q 486 526 486 481 q 456 597 486 572 q 374 621 425 621 m 196 103 l 386 103 q 487 129 447 103 q 526 207 526 156 q 481 292 526 261 q 371 324 436 324 l 231 324 l 196 103 z "},"г":{"ha":594,"x_min":63,"x_max":560,"o":"m 178 722 l 560 722 l 560 614 l 281 614 l 182 0 l 63 0 l 178 722 z "},"д":{"ha":867,"x_min":42,"x_max":818,"o":"m 707 106 l 818 106 l 818 -197 l 703 -197 l 703 0 l 157 0 l 157 -197 l 42 -197 l 42 106 l 131 106 q 186 222 160 135 q 225 388 213 308 l 276 722 l 707 722 l 707 106 m 589 106 l 589 617 l 378 617 l 342 378 q 306 217 329 306 q 264 106 282 129 l 589 106 z "},"е":{"ha":971,"x_min":76,"x_max":929,"o":"m 465 742 q 681 675 588 742 q 818 497 775 608 l 914 513 l 929 408 l 350 314 l 335 418 l 697 478 q 465 636 629 636 q 273 558 347 636 q 199 361 199 481 q 275 166 199 246 q 467 86 351 86 q 674 196 606 86 l 792 171 q 658 29 743 78 q 467 -19 574 -19 q 191 92 306 -19 q 76 361 76 203 q 189 632 76 522 q 465 742 301 742 z "},"ж":{"ha":1076,"x_min":67,"x_max":1010,"o":"m 765 432 q 1010 0 1010 413 l 888 0 q 882 128 888 74 q 861 232 876 183 q 816 306 846 281 q 743 332 786 332 q 599 271 656 332 l 599 0 l 481 0 l 481 271 q 336 332 424 332 q 263 306 293 332 q 217 232 232 281 q 195 128 201 183 q 189 0 189 72 l 67 0 q 125 303 67 186 q 314 432 183 421 l 96 667 l 178 742 l 481 389 l 481 722 l 599 722 l 599 389 l 901 742 l 983 667 l 765 432 z "},"з":{"ha":671,"x_min":42,"x_max":599,"o":"m 599 203 q 520 40 599 99 q 324 -19 442 -19 q 140 33 215 -19 q 42 178 64 85 l 163 201 q 324 86 190 86 q 432 116 388 86 q 476 203 476 146 q 356 350 476 310 q 282 324 313 329 l 228 414 q 290 431 267 424 q 349 456 313 439 q 403 496 385 472 q 422 550 422 519 q 387 614 422 592 q 300 636 351 636 q 156 576 236 636 l 96 668 q 304 742 193 742 q 475 691 407 742 q 543 546 543 640 q 461 411 543 476 q 599 203 599 346 z "},"и":{"ha":842,"x_min":118,"x_max":724,"o":"m 599 722 l 724 722 l 724 0 l 603 0 l 603 551 l 235 0 l 118 0 l 118 722 l 239 722 l 239 183 l 599 722 z "},"й":{"ha":842,"x_min":118,"x_max":724,"o":"m 503 1025 l 610 1007 q 548 890 601 936 q 421 843 494 843 q 294 890 347 843 q 232 1007 240 936 l 339 1025 q 362 960 339 986 q 421 933 385 933 q 480 960 457 933 q 503 1025 503 986 m 599 722 l 724 722 l 724 0 l 603 0 l 603 551 l 235 0 l 118 0 l 118 722 l 239 722 l 239 183 l 599 722 z "},"к":{"ha":758,"x_min":118,"x_max":692,"o":"m 425 433 q 581 358 518 425 q 667 201 643 292 q 692 0 692 111 l 569 0 q 396 332 569 332 q 239 265 303 332 l 239 0 l 118 0 l 118 722 l 239 722 l 239 388 l 576 742 l 658 665 l 425 433 z "},"л":{"ha":814,"x_min":42,"x_max":696,"o":"m 243 722 l 696 722 l 696 0 l 575 0 l 575 614 l 344 614 l 300 322 q 270 176 286 232 q 226 75 254 121 q 153 10 199 29 q 42 -10 108 -10 l 42 99 q 131 144 104 99 q 179 326 157 189 l 243 722 z "},"м":{"ha":949,"x_min":118,"x_max":831,"o":"m 711 722 l 831 722 l 831 0 l 710 0 l 710 547 l 508 260 l 439 260 l 236 547 l 236 0 l 118 0 l 118 722 l 236 722 l 475 392 l 711 722 z "},"н":{"ha":826,"x_min":118,"x_max":708,"o":"m 588 722 l 708 722 l 708 0 l 588 0 l 588 322 l 239 322 l 239 0 l 118 0 l 118 722 l 239 722 l 239 428 l 588 428 l 588 722 z "},"о":{"ha":933,"x_min":76,"x_max":857,"o":"m 191 631 q 248 686 191 631 q 467 742 306 742 q 742 631 628 742 q 857 361 857 521 q 742 92 857 203 q 467 -19 628 -19 q 191 92 306 -19 q 76 361 76 203 q 191 631 76 521 m 276 167 q 314 128 276 167 q 467 89 351 89 q 657 167 582 89 q 732 361 732 246 q 657 556 732 478 q 467 633 582 633 q 276 556 351 633 q 201 361 201 478 q 276 167 201 246 z "},"п":{"ha":826,"x_min":118,"x_max":708,"o":"m 118 0 l 118 722 l 708 722 l 708 0 l 588 0 l 588 614 l 239 614 l 239 0 l 118 0 z "},"р":{"ha":894,"x_min":-10,"x_max":821,"o":"m 483 742 q 722 649 622 742 q 821 415 821 556 q 717 182 821 275 q 472 89 613 89 q 210 218 300 89 l 113 -418 l -10 -418 l 131 450 q 247 661 151 581 q 483 742 343 742 m 472 194 q 631 258 564 194 q 699 415 699 322 q 635 573 699 510 q 481 636 572 636 q 315 572 385 636 q 244 415 244 508 q 310 258 244 321 q 472 194 376 194 z "},"с":{"ha":874,"x_min":76,"x_max":808,"o":"m 461 89 q 686 229 619 89 l 808 206 q 671 41 763 101 q 461 -19 579 -19 q 189 93 301 -19 q 76 365 76 206 q 189 633 76 525 q 461 742 301 742 q 667 683 578 742 q 804 521 757 624 l 682 497 q 461 633 614 633 q 275 558 349 633 q 201 365 201 482 q 274 169 201 249 q 461 89 347 89 z "},"т":{"ha":632,"x_min":35,"x_max":597,"o":"m 35 722 l 597 722 l 597 614 l 376 614 l 376 0 l 256 0 l 256 614 l 35 614 l 35 722 z "},"у":{"ha":793,"x_min":31,"x_max":765,"o":"m 638 722 l 765 722 l 285 -418 l 156 -418 l 374 86 l 299 86 l 31 722 l 164 722 l 400 149 l 638 722 z "},"ф":{"ha":1139,"x_min":74,"x_max":1065,"o":"m 789 742 q 988 649 911 742 q 1065 415 1065 556 q 988 183 1065 276 q 783 89 910 89 q 593 179 653 89 l 518 -312 l 639 -312 l 639 -418 l 382 -418 l 465 126 q 350 89 411 89 q 151 183 229 89 q 74 415 74 276 q 152 648 74 554 q 357 742 231 742 q 546 651 486 742 l 604 1035 l 485 1035 l 485 1140 l 740 1140 l 674 706 q 789 742 726 742 m 517 464 q 478 588 518 539 q 365 636 438 636 q 240 572 283 636 q 196 415 196 508 q 237 258 196 321 q 357 194 278 194 q 490 283 458 194 l 517 464 m 774 194 q 899 258 854 194 q 943 415 943 322 q 902 573 943 510 q 783 636 861 636 q 650 549 681 636 l 622 367 q 661 243 621 292 q 774 194 701 194 z "},"х":{"ha":800,"x_min":44,"x_max":756,"o":"m 756 57 l 671 -19 l 400 294 l 128 -19 l 44 54 l 329 372 l 63 665 l 150 742 l 401 451 l 650 742 l 735 668 l 472 374 l 756 57 z "},"ц":{"ha":849,"x_min":118,"x_max":800,"o":"m 681 108 l 800 108 l 800 -197 l 686 -197 l 686 0 l 118 0 l 118 722 l 239 722 l 239 108 l 560 108 l 560 722 l 681 722 l 681 108 z "},"ч":{"ha":732,"x_min":83,"x_max":614,"o":"m 493 722 l 614 722 l 614 0 l 493 0 l 493 315 q 336 267 425 267 q 155 329 226 267 q 83 497 83 392 l 83 722 l 204 722 l 204 497 q 240 406 204 439 q 333 372 276 372 q 493 433 435 372 l 493 722 z "},"ш":{"ha":1111,"x_min":118,"x_max":993,"o":"m 993 0 l 118 0 l 118 722 l 239 722 l 239 108 l 496 108 l 496 722 l 617 722 l 617 108 l 872 108 l 872 722 l 993 722 l 993 0 z "},"щ":{"ha":1161,"x_min":118,"x_max":1113,"o":"m 993 108 l 1113 108 l 1113 -197 l 999 -197 l 999 0 l 118 0 l 118 722 l 239 722 l 239 108 l 496 108 l 496 722 l 617 722 l 617 108 l 872 108 l 872 722 l 993 722 l 993 108 z "},"ъ":{"ha":724,"x_min":35,"x_max":665,"o":"m 390 454 q 585 393 504 454 q 665 225 665 332 q 590 59 665 118 q 399 0 514 0 l 128 0 l 226 617 l 35 617 l 35 722 l 363 722 l 319 454 l 390 454 m 399 106 q 505 135 465 106 q 544 225 544 165 q 500 316 544 283 q 390 349 456 349 l 303 349 l 264 106 l 399 106 z "},"ы":{"ha":982,"x_min":63,"x_max":919,"o":"m 800 722 l 919 722 l 806 0 l 686 0 l 800 722 m 328 454 q 512 392 435 454 q 589 225 589 329 q 517 60 589 121 q 335 0 444 0 l 63 0 l 178 722 l 297 722 l 254 454 l 328 454 m 335 106 q 431 136 394 106 q 468 225 468 167 q 427 314 468 279 q 328 349 386 349 l 238 349 l 199 106 l 335 106 z "},"ь":{"ha":671,"x_min":63,"x_max":613,"o":"m 338 454 q 531 393 450 454 q 613 225 613 332 q 537 59 613 118 q 346 0 461 0 l 63 0 l 178 722 l 297 722 l 254 454 l 338 454 m 346 106 q 451 135 411 106 q 492 225 492 165 q 447 316 492 283 q 338 349 403 349 l 238 349 l 199 106 l 346 106 z "},"э":{"ha":856,"x_min":65,"x_max":779,"o":"m 188 207 q 397 86 253 86 q 568 151 497 86 q 656 322 639 215 l 304 322 l 304 428 l 651 428 q 563 579 633 522 q 400 636 493 636 q 193 524 260 636 l 72 547 q 206 690 119 638 q 400 742 293 742 q 670 633 561 742 q 779 365 779 525 q 668 91 779 201 q 397 -19 557 -19 q 65 182 167 -19 l 188 207 z "},"ю":{"ha":1185,"x_min":63,"x_max":1111,"o":"m 738 742 q 1004 631 897 742 q 1111 361 1111 519 q 1003 92 1111 204 q 738 -19 896 -19 q 499 80 601 -19 q 383 322 397 179 l 233 322 l 182 0 l 63 0 l 178 722 l 297 722 l 250 428 l 388 428 q 509 651 410 561 q 738 742 608 742 m 738 89 q 918 168 850 89 q 986 361 986 247 q 918 555 986 476 q 738 633 850 633 q 569 553 638 633 q 501 361 501 474 q 569 169 501 249 q 738 89 638 89 z "},"я":{"ha":696,"x_min":35,"x_max":578,"o":"m 357 722 l 578 722 l 578 0 l 458 0 l 458 321 l 114 -19 l 35 56 l 279 293 q 156 371 210 315 q 101 504 101 426 q 177 663 101 603 q 357 722 253 722 m 458 465 l 458 621 l 357 621 q 262 588 300 621 q 224 504 224 556 q 365 376 224 397 l 458 465 z "},"ѐ":{"ha":971,"x_min":76,"x_max":929,"o":"m 518 911 l 458 849 l 261 1018 l 347 1107 l 518 911 m 465 742 q 681 675 588 742 q 818 497 775 608 l 914 513 l 929 408 l 350 314 l 335 418 l 697 478 q 465 636 629 636 q 273 558 347 636 q 199 361 199 481 q 275 166 199 246 q 467 86 351 86 q 674 196 606 86 l 792 171 q 658 29 743 78 q 467 -19 574 -19 q 191 92 306 -19 q 76 361 76 203 q 189 632 76 522 q 465 742 301 742 z "},"ё":{"ha":971,"x_min":76,"x_max":929,"o":"m 319 854 q 263 877 286 854 q 239 933 239 900 q 263 990 239 967 q 319 1013 286 1013 q 374 990 351 1013 q 397 933 397 967 q 374 877 397 900 q 319 854 351 854 m 608 854 q 551 877 575 854 q 528 933 528 900 q 551 990 528 967 q 608 1013 575 1013 q 663 990 640 1013 q 686 933 686 967 q 663 877 686 900 q 608 854 640 854 m 465 742 q 681 675 588 742 q 818 497 775 608 l 914 513 l 929 408 l 350 314 l 335 418 l 697 478 q 465 636 629 636 q 273 558 347 636 q 199 361 199 481 q 275 166 199 246 q 467 86 351 86 q 674 196 606 86 l 792 171 q 658 29 743 78 q 467 -19 574 -19 q 191 92 306 -19 q 76 361 76 203 q 189 632 76 522 q 465 742 301 742 z "},"ђ":{"ha":839,"x_min":118,"x_max":749,"o":"m 449 742 q 667 640 586 742 q 749 393 749 539 q 453 -257 749 47 l 361 -186 q 564 94 501 -44 q 626 394 626 232 q 578 567 626 500 q 438 633 531 633 q 327 595 381 633 q 239 493 274 557 l 239 0 l 118 0 l 118 1140 l 239 1140 l 239 1001 l 640 1001 l 640 896 l 239 896 l 239 647 q 330 715 272 688 q 449 742 388 742 z "},"ѓ":{"ha":594,"x_min":63,"x_max":565,"o":"m 368 849 l 308 911 l 479 1107 l 565 1018 l 368 849 m 178 722 l 560 722 l 560 614 l 281 614 l 182 0 l 63 0 l 178 722 z "},"є":{"ha":879,"x_min":76,"x_max":814,"o":"m 471 86 q 692 204 621 86 l 814 182 q 471 -19 713 -19 q 192 93 307 -19 q 76 365 76 206 q 190 633 76 525 q 468 742 304 742 q 670 690 582 742 q 806 547 758 639 l 683 524 q 594 606 651 575 q 468 636 538 636 q 296 579 369 636 q 204 428 222 522 l 613 428 l 613 322 l 201 322 q 292 153 217 219 q 471 86 367 86 z "},"ѕ":{"ha":682,"x_min":51,"x_max":643,"o":"m 506 636 q 415 611 444 636 q 386 525 386 586 q 427 438 386 493 q 509 317 468 382 q 550 193 550 251 q 479 37 550 93 q 301 -19 408 -19 q 123 37 194 -19 q 51 193 51 93 q 88 303 51 250 l 203 279 q 174 188 174 229 q 210 113 174 140 q 301 86 247 86 q 393 115 358 86 q 428 192 428 143 q 387 285 428 229 q 305 403 346 340 q 264 524 264 467 q 333 688 264 635 q 499 742 403 742 q 643 703 582 742 l 597 604 q 506 636 558 636 z "},"і":{"ha":357,"x_min":96,"x_max":261,"o":"m 118 722 l 239 722 l 239 0 l 118 0 l 118 722 m 179 854 q 120 878 144 854 q 96 936 96 901 q 120 995 96 971 q 179 1019 144 1019 q 238 995 214 1019 q 261 936 261 971 q 237 878 261 901 q 179 854 213 854 z "},"ї":{"ha":357,"x_min":-12,"x_max":369,"o":"m 64 854 q 9 877 31 854 q -12 933 -12 900 q 9 990 -12 967 q 64 1013 31 1013 q 119 990 97 1013 q 140 933 140 967 q 118 877 140 900 q 64 854 96 854 m 347 877 q 336 866 347 877 q 293 854 325 854 q 239 877 261 854 q 217 933 217 900 q 239 990 217 967 q 293 1013 261 1013 q 348 990 326 1013 q 369 933 369 967 q 347 877 369 900 m 118 722 l 239 722 l 239 0 l 118 0 l 118 722 z "},"ј":{"ha":357,"x_min":-40,"x_max":256,"o":"m 118 722 l 239 722 l 239 -196 q 184 -374 239 -310 q 24 -437 129 -437 q -40 -428 -11 -437 l -24 -319 q 24 -326 -1 -326 q 118 -196 118 -326 l 118 722 m 174 854 q 115 878 139 854 q 90 936 90 901 q 115 995 90 971 q 174 1019 139 1019 q 232 995 208 1019 q 256 936 256 971 q 231 878 256 901 q 174 854 207 854 z "},"љ":{"ha":1099,"x_min":42,"x_max":1040,"o":"m 765 454 q 959 393 878 454 q 1040 225 1040 332 q 965 59 1040 118 q 774 0 889 0 l 490 0 l 589 614 l 349 614 l 300 322 q 269 176 285 231 q 226 76 254 122 q 153 10 197 29 q 42 -10 108 -10 l 42 99 q 128 143 103 99 q 179 326 154 188 l 247 722 l 725 722 l 682 454 l 765 454 m 774 106 q 879 135 839 106 q 919 225 919 165 q 875 316 919 283 q 765 349 831 349 l 665 349 l 626 106 l 774 106 z "},"њ":{"ha":1107,"x_min":63,"x_max":1049,"o":"m 774 454 q 967 393 886 454 q 1049 225 1049 332 q 973 59 1049 118 q 782 0 897 0 l 499 0 l 554 349 l 238 349 l 182 0 l 63 0 l 178 722 l 297 722 l 254 454 l 571 454 l 614 722 l 733 722 l 690 454 l 774 454 m 782 106 q 888 135 847 106 q 928 225 928 165 q 883 316 928 283 q 774 349 839 349 l 674 349 l 635 106 l 782 106 z "},"ћ":{"ha":839,"x_min":118,"x_max":749,"o":"m 449 742 q 667 640 586 742 q 749 393 749 539 q 617 0 749 190 l 488 0 q 626 394 626 215 q 578 567 626 500 q 438 633 531 633 q 327 595 381 633 q 239 493 274 557 l 239 0 l 118 0 l 118 1140 l 239 1140 l 239 1001 l 640 1001 l 640 896 l 239 896 l 239 647 q 330 715 272 688 q 449 742 388 742 z "},"ќ":{"ha":758,"x_min":118,"x_max":692,"o":"m 403 849 l 343 911 l 514 1107 l 600 1018 l 403 849 m 425 433 q 581 358 518 425 q 667 201 643 292 q 692 0 692 111 l 569 0 q 396 332 569 332 q 239 265 303 332 l 239 0 l 118 0 l 118 722 l 239 722 l 239 388 l 576 742 l 658 665 l 425 433 z "},"ѝ":{"ha":842,"x_min":118,"x_max":724,"o":"m 493 911 l 433 849 l 236 1018 l 322 1107 l 493 911 m 599 722 l 724 722 l 724 0 l 603 0 l 603 551 l 235 0 l 118 0 l 118 722 l 239 722 l 239 183 l 599 722 z "},"ў":{"ha":793,"x_min":31,"x_max":765,"o":"m 482 1025 l 589 1007 q 527 890 581 936 q 400 843 474 843 q 273 890 326 843 q 211 1007 219 936 l 318 1025 q 341 960 318 986 q 400 933 364 933 q 459 960 436 933 q 482 1025 482 986 m 638 722 l 765 722 l 285 -418 l 156 -418 l 374 86 l 299 86 l 31 722 l 164 722 l 400 147 l 638 722 z "},"џ":{"ha":826,"x_min":118,"x_max":708,"o":"m 708 722 l 708 0 l 469 0 l 469 -197 l 356 -197 l 356 0 l 118 0 l 118 722 l 239 722 l 239 108 l 588 108 l 588 722 l 708 722 z "},"Ґ":{"ha":749,"x_min":76,"x_max":693,"o":"m 576 1111 l 693 1111 l 693 861 l 336 861 l 200 0 l 76 0 l 231 972 l 576 972 l 576 1111 z "},"ґ":{"ha":593,"x_min":63,"x_max":558,"o":"m 447 874 l 558 874 l 558 614 l 279 614 l 181 0 l 63 0 l 176 722 l 447 722 l 447 874 z "},"Ғ":{"ha":806,"x_min":56,"x_max":750,"o":"m 750 861 l 393 861 l 343 546 l 600 546 l 600 438 l 325 438 l 257 0 l 133 0 l 201 438 l 56 438 l 56 546 l 219 546 l 288 972 l 750 972 l 750 861 z "},"ғ":{"ha":643,"x_min":42,"x_max":608,"o":"m 608 614 l 329 614 l 293 389 l 497 389 l 497 288 l 276 288 l 231 0 l 111 0 l 157 288 l 42 288 l 42 389 l 174 389 l 226 722 l 608 722 l 608 614 z "},"Ҥ":{"ha":1290,"x_min":76,"x_max":1235,"o":"m 772 972 l 1235 972 l 1235 861 l 878 861 l 742 0 l 618 0 l 689 449 l 272 449 l 200 0 l 76 0 l 231 972 l 354 972 l 289 560 l 707 560 l 772 972 z "},"ҥ":{"ha":1031,"x_min":63,"x_max":996,"o":"m 614 722 l 996 722 l 996 614 l 717 614 l 618 0 l 499 0 l 550 322 l 233 322 l 182 0 l 63 0 l 178 722 l 297 722 l 250 428 l 567 428 l 614 722 z "},"Ӝ":{"ha":1283,"x_min":76,"x_max":1207,"o":"m 876 563 q 1006 534 949 563 q 1097 455 1063 506 q 1154 348 1131 404 q 1188 223 1178 292 q 1203 103 1199 154 q 1207 0 1207 53 l 1082 0 q 874 454 1082 454 q 703 397 769 454 l 703 0 l 581 0 l 581 397 q 410 454 514 454 q 201 0 201 454 l 76 0 q 81 103 76 53 q 95 223 85 154 q 129 348 106 292 q 187 455 153 404 q 278 534 221 506 q 407 563 335 563 l 94 918 l 179 992 l 581 529 l 581 972 l 703 972 l 703 529 l 1104 992 l 1189 918 l 876 563 m 486 1094 q 427 1118 451 1094 q 403 1176 403 1142 q 427 1235 403 1211 q 486 1260 451 1260 q 544 1235 521 1260 q 568 1176 568 1211 q 544 1118 568 1142 q 486 1094 519 1094 m 797 1094 q 738 1118 763 1094 q 714 1176 714 1142 q 738 1235 714 1211 q 797 1260 763 1260 q 856 1235 832 1260 q 879 1176 879 1211 q 855 1118 879 1142 q 797 1094 831 1094 z "},"ӝ":{"ha":1076,"x_min":67,"x_max":1010,"o":"m 765 432 q 1010 0 1010 413 l 888 0 q 882 128 888 74 q 861 232 876 183 q 816 306 846 281 q 743 332 786 332 q 599 271 656 332 l 599 0 l 481 0 l 481 271 q 336 332 424 332 q 263 306 293 332 q 217 232 232 281 q 195 128 201 183 q 189 0 189 72 l 67 0 q 125 303 67 186 q 314 432 183 421 l 96 667 l 178 742 l 481 389 l 481 722 l 599 722 l 599 389 l 901 742 l 983 667 l 765 432 m 396 854 q 339 877 363 854 q 315 933 315 900 q 339 990 315 967 q 396 1013 363 1013 q 451 990 428 1013 q 474 933 474 967 q 451 877 474 900 q 396 854 428 854 m 683 854 q 626 877 650 854 q 603 933 603 900 q 626 990 603 967 q 683 1013 650 1013 q 738 990 715 1013 q 761 933 761 967 q 738 877 761 900 q 683 854 715 854 z "},"Ӟ":{"ha":817,"x_min":56,"x_max":733,"o":"m 543 554 q 681 443 628 518 q 733 269 733 368 q 631 58 733 135 q 389 -19 529 -19 q 176 41 268 -19 q 56 211 83 101 l 181 236 q 257 131 197 169 q 389 92 317 92 q 541 140 476 92 q 606 268 606 189 q 435 492 606 419 q 338 456 397 474 l 285 551 q 342 570 325 564 q 397 590 360 576 q 451 617 433 604 q 492 650 469 631 q 524 694 514 669 q 533 747 533 718 q 490 847 533 814 q 372 881 446 881 q 197 813 285 881 l 136 908 q 378 992 243 992 q 581 923 501 992 q 661 735 661 854 q 543 554 661 638 m 250 1094 q 191 1118 215 1094 q 167 1176 167 1142 q 191 1235 167 1211 q 250 1260 215 1260 q 308 1235 285 1260 q 332 1176 332 1211 q 308 1118 332 1142 q 250 1094 283 1094 m 515 1094 q 456 1118 481 1094 q 432 1176 432 1142 q 456 1235 432 1211 q 515 1260 481 1260 q 574 1235 550 1260 q 597 1176 597 1211 q 573 1118 597 1142 q 515 1094 549 1094 z "},"ӟ":{"ha":671,"x_min":42,"x_max":599,"o":"m 599 203 q 520 40 599 99 q 324 -19 442 -19 q 140 33 215 -19 q 42 178 64 85 l 163 201 q 324 86 190 86 q 432 116 388 86 q 476 203 476 146 q 356 350 476 310 q 282 324 313 329 l 228 414 q 290 431 267 424 q 349 456 313 439 q 403 496 385 472 q 422 550 422 519 q 387 614 422 592 q 300 636 351 636 q 156 576 236 636 l 96 668 q 304 742 193 742 q 475 691 407 742 q 543 546 543 640 q 461 411 543 476 q 599 203 599 346 m 189 854 q 132 877 156 854 q 108 933 108 900 q 132 990 108 967 q 189 1013 156 1013 q 244 990 221 1013 q 267 933 267 967 q 244 877 267 900 q 189 854 221 854 m 432 854 q 375 877 399 854 q 351 933 351 900 q 375 990 351 967 q 432 1013 399 1013 q 487 990 464 1013 q 510 933 510 967 q 487 877 510 900 q 432 854 464 854 z "},"Ӥ":{"ha":1046,"x_min":139,"x_max":907,"o":"m 776 972 l 907 972 l 907 0 l 782 0 l 782 790 l 256 0 l 139 0 l 139 972 l 264 972 l 264 201 l 776 972 m 383 1094 q 324 1118 349 1094 q 300 1176 300 1142 q 324 1235 300 1211 q 383 1260 349 1260 q 442 1235 418 1260 q 465 1176 465 1211 q 441 1118 465 1142 q 383 1094 417 1094 m 664 1094 q 605 1118 629 1094 q 581 1176 581 1142 q 605 1235 581 1211 q 664 1260 629 1260 q 722 1235 699 1260 q 746 1176 746 1211 q 722 1118 746 1142 q 664 1094 697 1094 z "},"ӥ":{"ha":842,"x_min":118,"x_max":724,"o":"m 599 722 l 724 722 l 724 0 l 603 0 l 603 551 l 235 0 l 118 0 l 118 722 l 239 722 l 239 183 l 599 722 m 293 854 q 236 877 260 854 q 213 933 213 900 q 236 990 213 967 q 293 1013 260 1013 q 348 990 325 1013 q 371 933 371 967 q 348 877 371 900 q 293 854 325 854 m 551 854 q 494 877 518 854 q 471 933 471 900 q 494 990 471 967 q 551 1013 518 1013 q 606 990 583 1013 q 629 933 629 967 q 606 877 629 900 q 551 854 583 854 z "},"Ӧ":{"ha":1204,"x_min":86,"x_max":1118,"o":"m 239 844 q 315 918 239 844 q 603 992 392 992 q 966 844 814 992 q 1118 486 1118 696 q 966 128 1118 276 q 603 -19 814 -19 q 239 128 392 -19 q 86 486 86 276 q 239 844 86 696 m 603 94 q 876 208 765 94 q 988 486 988 321 q 876 764 988 650 q 603 878 765 878 q 328 764 439 878 q 217 486 217 650 q 328 208 217 321 q 603 94 439 94 m 451 1094 q 392 1118 417 1094 q 368 1176 368 1142 q 392 1235 368 1211 q 451 1260 417 1260 q 510 1235 486 1260 q 533 1176 533 1211 q 509 1118 533 1142 q 451 1094 485 1094 m 754 1094 q 695 1118 719 1094 q 671 1176 671 1142 q 695 1235 671 1211 q 754 1260 719 1260 q 813 1235 789 1260 q 836 1176 836 1211 q 812 1118 836 1142 q 754 1094 788 1094 z "},"ӧ":{"ha":933,"x_min":76,"x_max":857,"o":"m 324 854 q 267 877 290 854 q 243 933 243 900 q 267 990 243 967 q 324 1013 290 1013 q 378 990 356 1013 q 401 933 401 967 q 378 877 401 900 q 324 854 356 854 m 613 854 q 556 877 579 854 q 532 933 532 900 q 556 990 532 967 q 613 1013 579 1013 q 667 990 644 1013 q 690 933 690 967 q 667 877 690 900 q 613 854 644 854 m 191 631 q 248 686 191 631 q 467 742 306 742 q 742 631 628 742 q 857 361 857 521 q 742 92 857 203 q 467 -19 628 -19 q 191 92 306 -19 q 76 361 76 203 q 191 631 76 521 m 276 167 q 314 128 276 167 q 467 89 351 89 q 657 167 582 89 q 732 361 732 246 q 657 556 732 478 q 467 633 582 633 q 276 556 351 633 q 201 361 201 478 q 276 167 201 246 z "},"Ӱ":{"ha":815,"x_min":35,"x_max":783,"o":"m 274 1094 q 215 1118 239 1094 q 190 1176 190 1142 q 215 1235 190 1211 q 274 1260 239 1260 q 332 1235 308 1260 q 356 1176 356 1211 q 331 1118 356 1142 q 274 1094 307 1094 m 551 1094 q 492 1118 517 1094 q 468 1176 468 1142 q 492 1235 468 1211 q 551 1260 517 1260 q 610 1235 586 1260 q 633 1176 633 1211 q 609 1118 633 1142 q 551 1094 585 1094 m 783 972 l 367 111 l 500 111 l 500 0 l 229 0 l 229 94 l 378 396 l 321 396 l 35 972 l 174 972 l 414 474 l 650 972 l 783 972 z "},"ӱ":{"ha":793,"x_min":31,"x_max":765,"o":"m 638 722 l 765 722 l 285 -418 l 156 -418 l 374 86 l 299 86 l 31 722 l 164 722 l 400 149 l 638 722 m 261 854 q 204 877 228 854 q 181 933 181 900 q 204 990 181 967 q 261 1013 228 1013 q 316 990 293 1013 q 339 933 339 967 q 316 877 339 900 q 261 854 293 854 m 544 854 q 488 877 511 854 q 464 933 464 900 q 488 990 464 967 q 544 1013 511 1013 q 599 990 576 1013 q 622 933 622 967 q 599 877 622 900 q 544 854 576 854 z "},"Ӵ":{"ha":881,"x_min":97,"x_max":742,"o":"m 617 972 l 742 972 l 742 0 l 617 0 l 617 435 q 400 372 529 372 q 177 449 257 372 q 97 661 97 525 l 97 972 l 222 972 l 222 661 q 268 531 222 579 q 397 483 314 483 q 617 556 518 483 l 617 972 m 286 1094 q 227 1118 251 1094 q 203 1176 203 1142 q 227 1235 203 1211 q 286 1260 251 1260 q 344 1235 321 1260 q 368 1176 368 1211 q 344 1118 368 1142 q 286 1094 319 1094 m 553 1094 q 494 1118 518 1094 q 469 1176 469 1142 q 494 1235 469 1211 q 553 1260 518 1260 q 611 1235 588 1260 q 635 1176 635 1211 q 610 1118 635 1142 q 553 1094 586 1094 z "},"ӵ":{"ha":732,"x_min":83,"x_max":614,"o":"m 493 722 l 614 722 l 614 0 l 493 0 l 493 315 q 336 267 425 267 q 155 329 226 267 q 83 497 83 392 l 83 722 l 204 722 l 204 497 q 240 406 204 439 q 333 372 276 372 q 493 432 436 372 l 493 722 m 229 854 q 172 877 196 854 q 149 933 149 900 q 172 990 149 967 q 229 1013 196 1013 q 284 990 261 1013 q 307 933 307 967 q 284 877 307 900 q 229 854 261 854 m 472 854 q 415 877 439 854 q 392 933 392 900 q 415 990 392 967 q 472 1013 439 1013 q 527 990 504 1013 q 550 933 550 967 q 527 877 550 900 q 472 854 504 854 z "},"ẞ":{"ha":921,"x_min":139,"x_max":838,"o":"m 590 554 q 767 462 697 535 q 838 275 838 389 q 752 60 838 140 q 536 -19 667 -19 q 385 17 457 -19 l 426 122 q 536 92 478 92 q 662 144 614 93 q 710 275 710 196 q 660 401 710 354 q 529 449 610 449 l 457 449 l 457 521 l 599 861 l 264 861 l 264 0 l 139 0 l 139 972 l 719 972 l 719 865 l 590 554 z "},"–":{"ha":931,"x_min":97,"x_max":833,"o":"m 97 471 l 833 471 l 833 365 l 97 365 l 97 471 z "},"—":{"ha":1208,"x_min":97,"x_max":1111,"o":"m 97 471 l 1111 471 l 1111 365 l 97 365 l 97 471 z "},"‘":{"ha":349,"x_min":83,"x_max":272,"o":"m 272 908 q 203 788 203 863 q 272 667 203 713 l 210 585 q 119 674 154 618 q 83 788 83 731 q 119 901 83 844 q 210 992 154 958 l 272 908 z "},"’":{"ha":349,"x_min":76,"x_max":265,"o":"m 76 667 q 146 788 146 713 q 76 908 146 863 l 139 992 q 230 901 194 958 q 265 788 265 844 q 230 674 265 731 q 139 585 194 618 l 76 667 z "},"‚":{"ha":349,"x_min":76,"x_max":265,"o":"m 76 -121 q 146 0 146 -75 q 76 121 146 75 l 139 204 q 230 114 194 171 q 265 0 265 57 q 230 -113 265 -57 q 139 -203 194 -169 l 76 -121 z "},"“":{"ha":600,"x_min":83,"x_max":524,"o":"m 272 908 q 203 788 203 863 q 272 667 203 713 l 210 585 q 119 674 154 618 q 83 788 83 731 q 119 901 83 844 q 210 992 154 958 l 272 908 m 524 908 q 454 788 454 863 q 524 667 454 713 l 461 585 q 370 674 406 618 q 335 788 335 731 q 370 901 335 844 q 461 992 406 958 l 524 908 z "},"”":{"ha":600,"x_min":76,"x_max":517,"o":"m 328 667 q 397 788 397 713 q 328 908 397 863 l 390 992 q 481 901 446 958 q 517 788 517 844 q 481 674 517 731 q 390 585 446 618 l 328 667 m 76 667 q 146 788 146 713 q 76 908 146 863 l 139 992 q 230 901 194 958 q 265 788 265 844 q 230 674 265 731 q 139 585 194 618 l 76 667 z "},"„":{"ha":600,"x_min":76,"x_max":517,"o":"m 328 -121 q 397 0 397 -75 q 328 121 397 75 l 390 204 q 481 114 446 171 q 517 0 517 57 q 481 -113 517 -57 q 390 -203 446 -169 l 328 -121 m 76 -121 q 146 0 146 -75 q 76 121 146 75 l 139 204 q 230 114 194 171 q 265 0 265 57 q 230 -113 265 -57 q 139 -203 194 -169 l 76 -121 z "},"†":{"ha":749,"x_min":97,"x_max":651,"o":"m 651 904 l 651 801 l 432 801 l 432 0 l 317 0 l 317 801 l 97 801 l 97 904 l 317 904 l 317 1140 l 432 1140 l 432 904 l 651 904 z "},"‡":{"ha":749,"x_min":97,"x_max":651,"o":"m 651 801 l 432 801 l 432 339 l 651 339 l 651 236 l 432 236 l 432 0 l 317 0 l 317 236 l 97 236 l 97 339 l 317 339 l 317 801 l 97 801 l 97 904 l 317 904 l 317 1140 l 432 1140 l 432 904 l 651 904 l 651 801 z "},"•":{"ha":518,"x_min":83,"x_max":435,"o":"m 135 611 q 160 637 135 611 q 258 663 186 663 q 383 611 331 663 q 435 488 435 560 q 383 363 435 414 q 258 311 332 311 q 135 363 186 311 q 83 488 83 414 q 135 611 83 560 z "},"…":{"ha":1090,"x_min":104,"x_max":986,"o":"m 264 142 q 278 128 264 142 q 292 75 292 114 q 264 8 292 36 q 197 -19 236 -19 q 131 8 158 -19 q 104 75 104 36 q 131 142 104 114 q 197 169 158 169 q 264 142 236 169 m 611 142 q 625 128 611 142 q 639 75 639 114 q 611 8 639 36 q 544 -19 583 -19 q 478 8 506 -19 q 451 75 451 36 q 478 142 451 114 q 544 169 506 169 q 611 142 583 169 m 958 142 q 972 128 958 142 q 986 75 986 114 q 958 8 986 36 q 892 -19 931 -19 q 826 8 853 -19 q 799 75 799 36 q 826 142 799 114 q 892 169 853 169 q 958 142 931 169 z "},"‰":{"ha":1963,"x_min":83,"x_max":1879,"o":"m 974 947 l 482 -19 l 396 25 l 888 992 l 974 947 m 524 558 q 486 522 524 558 q 342 486 449 486 q 159 558 235 486 q 83 735 83 631 q 159 912 83 839 q 342 985 235 985 q 524 912 449 985 q 600 735 600 839 q 524 558 600 631 m 454 850 q 433 873 454 850 q 342 896 411 896 q 229 850 272 896 q 186 735 186 804 q 230 621 186 667 q 342 575 274 575 q 453 621 410 575 q 497 735 497 667 q 454 850 497 804 m 1210 60 q 1173 24 1210 60 q 1028 -12 1135 -12 q 845 60 921 -12 q 769 236 769 132 q 845 413 769 340 q 1028 486 921 486 q 1210 414 1135 486 q 1286 236 1286 342 q 1210 60 1286 132 m 1028 397 q 917 351 960 397 q 874 236 874 306 q 917 122 874 168 q 1028 76 960 76 q 1141 122 1097 76 q 1185 236 1185 168 q 1141 351 1185 306 q 1028 397 1097 397 m 1803 60 q 1766 24 1803 60 q 1621 -12 1728 -12 q 1438 60 1514 -12 q 1363 236 1363 132 q 1438 413 1363 340 q 1621 486 1514 486 q 1803 414 1728 486 q 1879 236 1879 342 q 1803 60 1879 132 m 1621 397 q 1510 351 1553 397 q 1467 236 1467 306 q 1510 122 1467 168 q 1621 76 1553 76 q 1734 122 1690 76 q 1778 236 1778 168 q 1734 351 1778 306 q 1621 397 1690 397 z "},"‹":{"ha":542,"x_min":97,"x_max":458,"o":"m 97 415 l 383 699 l 458 624 l 203 376 l 458 128 l 383 54 l 97 339 l 97 415 z "},"›":{"ha":542,"x_min":83,"x_max":444,"o":"m 158 699 l 444 415 l 444 339 l 158 54 l 83 128 l 339 376 l 83 624 l 158 699 z "},"⁄":{"ha":592,"x_min":7,"x_max":585,"o":"m 585 947 l 93 -19 l 7 25 l 499 992 l 585 947 z "},"⁰":{"ha":600,"x_min":69,"x_max":531,"o":"m 133 1042 q 164 1085 133 1042 q 300 1128 196 1128 q 467 1042 404 1128 q 531 829 531 957 q 468 615 531 700 q 300 529 406 529 q 132 615 194 529 q 69 829 69 700 q 133 1042 69 957 m 203 678 q 218 648 203 678 q 300 618 233 618 q 397 678 367 618 q 428 829 428 738 q 397 980 428 921 q 300 1039 367 1039 q 203 980 233 1039 q 172 829 172 921 q 203 678 172 738 z "},"⁴":{"ha":558,"x_min":56,"x_max":503,"o":"m 411 753 l 503 753 l 503 668 l 397 668 l 378 542 l 285 542 l 304 668 l 56 668 l 56 747 l 346 1115 l 458 1115 l 168 753 l 318 753 l 338 865 l 431 865 l 411 753 z "},"⁵":{"ha":524,"x_min":51,"x_max":454,"o":"m 251 529 q 120 570 178 529 q 51 683 63 611 l 149 699 q 251 617 163 617 q 325 642 296 617 q 354 708 354 668 q 325 778 354 751 q 251 804 296 804 l 111 804 l 163 1115 l 449 1115 l 449 1029 l 243 1029 l 219 889 l 251 889 q 396 840 338 889 q 454 708 454 790 q 396 578 454 628 q 251 529 338 529 z "},"⁶":{"ha":547,"x_min":72,"x_max":475,"o":"m 475 708 q 417 578 475 628 q 274 529 360 529 q 130 578 188 529 q 72 708 72 628 q 119 832 72 765 l 321 1115 l 436 1115 l 272 889 l 278 889 q 419 838 363 889 q 475 708 475 788 m 349 641 q 363 654 349 641 q 378 708 378 667 q 348 777 378 750 q 274 804 318 804 q 199 777 228 804 q 169 708 169 750 q 199 641 169 667 q 274 615 228 615 q 349 641 319 615 z "},"⁷":{"ha":485,"x_min":63,"x_max":422,"o":"m 422 1117 l 422 1044 l 211 543 l 111 543 l 317 1031 l 63 1031 l 63 1117 l 422 1117 z "},"⁸":{"ha":558,"x_min":76,"x_max":482,"o":"m 482 710 q 424 578 482 628 q 281 529 367 529 q 135 578 193 529 q 76 710 76 628 q 98 791 76 753 q 157 851 119 829 q 96 967 96 897 q 151 1083 96 1038 q 281 1128 206 1128 q 409 1082 354 1128 q 464 967 464 1036 q 403 851 464 894 q 482 710 482 803 m 281 889 q 342 911 317 889 q 367 967 367 933 q 342 1022 367 1000 q 281 1043 317 1043 q 218 1022 243 1043 q 193 967 193 1000 q 218 911 193 933 q 281 889 243 889 m 382 710 q 353 778 382 750 q 281 807 324 807 q 207 778 238 807 q 176 710 176 750 q 206 642 176 668 q 281 615 236 615 q 353 642 325 615 q 382 710 382 668 z "},"⁹":{"ha":547,"x_min":72,"x_max":475,"o":"m 72 949 q 130 1078 72 1029 q 274 1128 188 1128 q 417 1078 360 1128 q 475 949 475 1029 q 428 825 475 892 l 226 542 l 111 542 l 275 768 l 269 768 q 128 819 185 768 q 72 949 72 869 m 199 1016 q 184 1003 199 1016 q 169 949 169 990 q 199 880 169 907 q 274 853 229 853 q 349 880 319 853 q 378 949 378 907 q 349 1016 378 990 q 274 1042 319 1042 q 199 1016 228 1042 z "},"⁺":{"ha":503,"x_min":56,"x_max":447,"o":"m 292 1028 l 292 869 l 447 869 l 447 792 l 292 792 l 292 636 l 214 636 l 214 792 l 56 792 l 56 869 l 214 869 l 214 1028 l 292 1028 z "},"⁻":{"ha":503,"x_min":56,"x_max":447,"o":"m 56 869 l 447 869 l 447 792 l 56 792 l 56 869 z "},"⁼":{"ha":503,"x_min":56,"x_max":447,"o":"m 56 960 l 447 960 l 447 882 l 56 882 l 56 960 m 56 779 l 447 779 l 447 701 l 56 701 l 56 779 z "},"⁽":{"ha":324,"x_min":63,"x_max":289,"o":"m 289 1172 q 160 829 160 1024 q 289 486 160 635 l 222 438 q 63 829 63 604 q 104 1038 63 936 q 222 1219 146 1140 l 289 1172 z "},"⁾":{"ha":317,"x_min":35,"x_max":261,"o":"m 35 1172 l 101 1219 q 219 1038 178 1140 q 261 829 261 936 q 101 438 261 604 l 35 486 q 164 829 164 635 q 35 1172 164 1024 z "},"₀":{"ha":600,"x_min":69,"x_max":531,"o":"m 133 317 q 164 360 133 317 q 300 403 196 403 q 467 317 404 403 q 531 104 531 232 q 468 -110 531 -25 q 300 -196 406 -196 q 132 -110 194 -196 q 69 104 69 -25 q 133 317 69 232 m 203 -47 q 218 -77 203 -47 q 300 -107 233 -107 q 397 -47 367 -107 q 428 104 428 13 q 397 255 428 196 q 300 314 367 314 q 203 255 233 314 q 172 104 172 196 q 203 -47 172 13 z "},"₁":{"ha":413,"x_min":63,"x_max":322,"o":"m 242 -97 l 322 -97 l 322 -183 l 63 -183 l 63 -97 l 144 -97 l 208 297 l 82 278 l 82 365 l 322 403 l 242 -97 z "},"₂":{"ha":492,"x_min":56,"x_max":429,"o":"m 186 -96 l 426 -96 l 426 -183 l 56 -183 l 56 -111 l 286 151 q 320 195 311 176 q 329 244 329 214 q 307 295 329 276 q 250 314 285 314 q 156 219 171 314 l 57 235 q 123 358 74 313 q 250 403 172 403 q 377 359 325 403 q 429 244 429 315 q 358 99 429 181 l 186 -96 z "},"₃":{"ha":532,"x_min":60,"x_max":463,"o":"m 463 -15 q 404 -146 463 -96 q 260 -196 346 -196 q 129 -153 185 -196 q 60 -42 74 -111 l 157 -26 q 260 -108 174 -108 q 333 -82 304 -108 q 363 -15 363 -56 q 333 53 363 26 q 260 81 304 81 l 190 81 l 190 160 l 319 304 l 101 304 l 101 390 l 444 390 l 444 317 l 303 161 q 417 101 372 151 q 463 -15 463 51 z "},"₄":{"ha":558,"x_min":56,"x_max":503,"o":"m 411 28 l 503 28 l 503 -57 l 397 -57 l 378 -183 l 285 -183 l 304 -57 l 56 -57 l 56 22 l 346 390 l 458 390 l 168 28 l 318 28 l 338 140 l 431 140 l 411 28 z "},"₅":{"ha":524,"x_min":51,"x_max":454,"o":"m 251 -196 q 120 -155 178 -196 q 51 -42 63 -114 l 149 -26 q 251 -108 163 -108 q 325 -83 296 -108 q 354 -17 354 -57 q 325 53 354 26 q 251 79 296 79 l 111 79 l 163 390 l 449 390 l 449 304 l 243 304 l 219 164 l 251 164 q 396 115 338 164 q 454 -17 454 65 q 396 -147 454 -97 q 251 -196 338 -196 z "},"₆":{"ha":547,"x_min":72,"x_max":475,"o":"m 475 -17 q 417 -147 475 -97 q 274 -196 360 -196 q 130 -147 188 -196 q 72 -17 72 -97 q 119 107 72 40 l 321 390 l 436 390 l 272 164 l 278 164 q 419 113 363 164 q 475 -17 475 63 m 349 -84 q 363 -71 349 -84 q 378 -17 378 -58 q 348 52 378 25 q 274 79 318 79 q 199 52 228 79 q 169 -17 169 25 q 199 -84 169 -58 q 274 -110 228 -110 q 349 -84 319 -110 z "},"₇":{"ha":485,"x_min":63,"x_max":422,"o":"m 422 390 l 422 318 l 211 -183 l 111 -183 l 317 304 l 63 304 l 63 390 l 422 390 z "},"₈":{"ha":558,"x_min":76,"x_max":482,"o":"m 482 -15 q 424 -147 482 -97 q 281 -196 367 -196 q 135 -147 193 -196 q 76 -15 76 -97 q 98 66 76 28 q 157 126 119 104 q 96 242 96 172 q 151 358 96 313 q 281 403 206 403 q 409 357 354 403 q 464 242 464 311 q 403 126 464 169 q 482 -15 482 78 m 281 164 q 342 186 317 164 q 367 242 367 208 q 342 297 367 275 q 281 318 317 318 q 218 297 243 318 q 193 242 193 275 q 218 186 193 208 q 281 164 243 164 m 382 -15 q 353 53 382 25 q 281 82 324 82 q 207 53 238 82 q 176 -15 176 25 q 206 -83 176 -57 q 281 -110 236 -110 q 353 -83 325 -110 q 382 -15 382 -57 z "},"₉":{"ha":547,"x_min":72,"x_max":475,"o":"m 72 224 q 130 353 72 304 q 274 403 188 403 q 417 353 360 403 q 475 224 475 304 q 428 100 475 167 l 226 -183 l 111 -183 l 275 43 l 269 43 q 128 94 185 43 q 72 224 72 144 m 199 291 q 184 278 199 291 q 169 224 169 265 q 199 155 169 182 q 274 128 229 128 q 349 155 319 128 q 378 224 378 182 q 349 291 378 265 q 274 317 319 317 q 199 291 228 317 z "},"₊":{"ha":503,"x_min":56,"x_max":447,"o":"m 292 303 l 292 144 l 447 144 l 447 67 l 292 67 l 292 -89 l 214 -89 l 214 67 l 56 67 l 56 144 l 214 144 l 214 303 l 292 303 z "},"₋":{"ha":503,"x_min":56,"x_max":447,"o":"m 56 144 l 447 144 l 447 67 l 56 67 l 56 144 z "},"₌":{"ha":503,"x_min":56,"x_max":447,"o":"m 56 235 l 447 235 l 447 157 l 56 157 l 56 235 m 56 54 l 447 54 l 447 -24 l 56 -24 l 56 54 z "},"₍":{"ha":317,"x_min":56,"x_max":282,"o":"m 215 494 l 282 447 q 153 104 153 299 q 282 -239 153 -90 l 215 -287 q 56 104 56 -121 q 97 313 56 211 q 215 494 139 415 z "},"₎":{"ha":317,"x_min":35,"x_max":261,"o":"m 35 447 l 101 494 q 219 313 178 415 q 261 104 261 211 q 101 -287 261 -121 l 35 -239 q 164 104 164 -90 q 35 447 164 299 z "},"€":{"ha":1039,"x_min":56,"x_max":963,"o":"m 422 326 q 768 92 514 92 q 951 126 874 92 l 951 11 q 768 -19 872 -19 q 468 74 593 -19 q 292 326 343 167 l 56 326 l 74 432 l 272 432 q 274 561 265 501 l 92 561 l 110 667 l 296 667 q 474 903 344 815 q 769 992 604 992 q 963 957 874 992 l 943 846 q 769 881 863 881 q 560 824 651 881 q 429 667 469 767 l 797 667 l 779 561 l 404 561 q 403 432 390 500 l 760 432 l 742 326 l 422 326 z "},"₴":{"ha":811,"x_min":69,"x_max":742,"o":"m 742 561 l 543 561 q 428 432 521 532 l 742 432 l 742 326 l 344 326 q 324 254 324 292 q 374 137 324 182 q 503 92 425 92 q 651 135 586 92 l 699 32 q 503 -19 622 -19 q 285 55 372 -19 q 199 256 199 129 q 211 326 199 292 l 69 326 l 69 432 l 274 432 q 389 561 281 440 l 69 561 l 69 667 l 467 667 q 483 728 483 697 q 444 843 483 806 q 321 881 404 881 q 161 825 240 881 l 113 924 q 326 992 200 992 q 531 922 456 992 q 607 728 607 851 q 599 667 607 696 l 742 667 l 742 561 z "},"₽":{"ha":921,"x_min":63,"x_max":839,"o":"m 536 442 l 354 442 l 333 310 l 736 310 l 736 207 l 317 207 l 285 0 l 161 0 l 193 207 l 63 207 l 63 310 l 210 310 l 231 442 l 63 442 l 63 547 l 247 547 l 315 972 l 536 972 q 753 900 667 972 q 839 704 839 828 q 753 512 839 582 q 536 442 668 442 m 422 864 l 371 547 l 536 547 q 666 588 618 547 q 714 704 714 628 q 666 823 714 782 q 536 864 618 864 l 422 864 z "},"№":{"ha":1574,"x_min":139,"x_max":1490,"o":"m 815 972 l 938 972 l 938 0 l 838 0 l 261 793 l 261 0 l 139 0 l 139 972 l 268 972 l 815 218 l 815 972 m 1274 982 q 1434 908 1378 982 q 1490 713 1490 835 q 1434 517 1490 590 q 1274 443 1378 443 q 1114 517 1171 443 q 1057 713 1057 590 q 1114 908 1057 835 q 1274 982 1171 982 m 1157 713 q 1157 621 1157 713 q 1274 529 1157 529 q 1390 713 1390 529 q 1274 896 1390 896 q 1157 713 1157 896 m 1057 322 l 1490 322 l 1490 229 l 1057 229 l 1057 322 z "},"℗":{"ha":1013,"x_min":90,"x_max":922,"o":"m 212 860 q 273 921 212 860 q 506 982 333 982 q 800 860 678 982 q 922 567 922 739 q 800 273 922 394 q 506 151 678 151 q 212 273 333 151 q 90 567 90 394 q 212 860 90 739 m 506 218 q 751 321 650 218 q 853 567 853 424 q 751 813 853 711 q 506 915 649 915 q 260 813 361 915 q 160 567 160 710 q 262 321 160 424 q 506 218 364 218 m 689 667 q 644 560 689 601 q 531 518 599 518 l 444 518 l 417 343 l 344 343 l 418 804 l 531 804 q 643 767 597 804 q 689 667 689 731 m 531 582 q 591 606 568 582 q 614 667 614 629 q 591 721 614 701 q 531 740 568 740 l 478 740 l 453 582 l 531 582 z "},"™":{"ha":981,"x_min":69,"x_max":897,"o":"m 69 972 l 400 972 l 400 906 l 272 906 l 272 511 l 197 511 l 197 906 l 69 906 l 69 972 m 836 972 l 897 972 l 897 511 l 824 511 l 824 851 l 713 699 l 667 699 l 556 851 l 556 511 l 483 511 l 483 972 l 546 972 l 690 775 l 836 972 z "},"Ω":{"ha":1133,"x_min":86,"x_max":1047,"o":"m 1047 503 q 994 277 1047 386 q 851 111 942 168 l 1047 111 l 1047 0 l 660 0 l 660 111 q 846 260 775 153 q 917 503 917 368 q 817 768 917 658 q 567 878 718 878 q 316 768 415 878 q 217 503 217 658 q 288 260 217 368 q 474 111 358 153 l 474 0 l 86 0 l 86 111 l 282 111 q 139 277 192 168 q 86 503 86 386 q 227 848 86 704 q 567 992 368 992 q 906 848 765 992 q 1047 503 1047 704 z "},"℮":{"ha":913,"x_min":83,"x_max":829,"o":"m 465 50 q 601 78 536 50 q 704 161 667 107 l 783 144 q 651 23 736 65 q 465 -19 565 -19 q 196 91 308 -19 q 83 361 83 201 q 192 633 83 524 q 465 742 301 742 q 721 638 613 742 q 829 390 829 533 l 829 342 l 250 342 l 250 142 q 465 50 338 50 m 250 589 l 250 408 l 663 408 l 663 590 q 465 675 588 675 q 250 589 332 675 z "},"⅓":{"ha":1183,"x_min":69,"x_max":1107,"o":"m 833 947 l 342 -19 l 256 25 l 747 992 l 833 947 m 249 486 l 329 486 l 329 400 l 69 400 l 69 486 l 151 486 l 215 881 l 89 861 l 89 949 l 329 986 l 249 486 m 1107 167 q 1049 36 1107 86 q 904 -14 990 -14 q 774 28 829 -14 q 704 140 718 71 l 801 156 q 904 74 818 74 q 978 100 949 74 q 1007 167 1007 126 q 978 235 1007 208 q 904 263 949 263 l 835 263 l 835 342 l 964 486 l 746 486 l 746 572 l 1089 572 l 1089 499 l 947 343 q 1062 283 1017 333 q 1107 167 1107 233 z "},"⅔":{"ha":1283,"x_min":69,"x_max":1207,"o":"m 200 488 l 440 488 l 440 400 l 69 400 l 69 472 l 300 735 q 334 778 325 760 q 343 828 343 797 q 321 878 343 860 q 264 897 299 897 q 169 803 185 897 l 71 818 q 137 941 88 896 q 264 986 186 986 q 391 942 339 986 q 443 828 443 899 q 372 682 443 764 l 200 488 m 933 947 l 442 -19 l 356 25 l 847 992 l 933 947 m 1207 167 q 1149 36 1207 86 q 1004 -14 1090 -14 q 874 28 929 -14 q 804 140 818 71 l 901 156 q 1004 74 918 74 q 1078 100 1049 74 q 1107 167 1107 126 q 1078 235 1107 208 q 1004 263 1049 263 l 935 263 l 935 342 l 1064 486 l 846 486 l 846 572 l 1189 572 l 1189 499 l 1047 343 q 1162 283 1117 333 q 1207 167 1207 233 z "},"⅛":{"ha":1188,"x_min":69,"x_max":1104,"o":"m 835 947 l 343 -19 l 257 25 l 747 992 l 835 947 m 249 486 l 329 486 l 329 400 l 69 400 l 69 486 l 151 486 l 215 881 l 89 861 l 89 949 l 329 986 l 249 486 m 1104 167 q 1047 35 1104 85 q 903 -14 989 -14 q 757 35 815 -14 q 699 167 699 85 q 720 248 699 210 q 779 308 742 286 q 718 424 718 354 q 773 540 718 494 q 903 585 828 585 q 1031 539 976 585 q 1086 424 1086 493 q 1025 308 1086 351 q 1104 167 1104 260 m 903 346 q 964 368 939 346 q 989 424 989 390 q 964 478 989 457 q 903 500 939 500 q 840 478 865 500 q 815 424 815 457 q 840 368 815 390 q 903 346 865 346 m 1004 167 q 975 235 1004 207 q 903 264 946 264 q 829 235 860 264 q 799 167 799 207 q 828 99 799 125 q 903 72 858 72 q 976 99 947 72 q 1004 167 1004 125 z "},"⅜":{"ha":1281,"x_min":69,"x_max":1197,"o":"m 472 567 q 414 436 472 486 q 269 386 356 386 q 139 428 194 386 q 69 540 83 471 l 167 556 q 269 474 183 474 q 343 500 314 474 q 372 567 372 526 q 343 635 372 608 q 269 663 314 663 l 200 663 l 200 742 l 329 886 l 111 886 l 111 972 l 454 972 l 454 899 l 313 743 q 427 683 382 733 q 472 567 472 633 m 836 992 l 922 947 l 432 -19 l 344 25 l 836 992 m 1118 308 q 1197 167 1197 260 q 1140 35 1197 85 q 996 -14 1082 -14 q 850 35 908 -14 q 792 167 792 85 q 813 248 792 210 q 872 308 835 286 q 811 424 811 354 q 866 540 811 494 q 996 585 921 585 q 1124 539 1069 585 q 1179 424 1179 493 q 1118 308 1179 351 m 996 500 q 933 478 958 500 q 908 424 908 457 q 933 368 908 390 q 996 346 958 346 q 1057 368 1032 346 q 1082 424 1082 390 q 1057 478 1082 457 q 996 500 1032 500 m 922 99 q 936 85 922 99 q 996 72 951 72 q 1069 99 1040 72 q 1097 167 1097 125 q 1068 235 1097 207 q 996 264 1039 264 q 922 235 953 264 q 892 167 892 207 q 922 99 892 125 z "},"⅝":{"ha":1281,"x_min":69,"x_max":1197,"o":"m 838 992 l 924 947 l 432 -19 l 346 25 l 838 992 m 1118 308 q 1197 167 1197 260 q 1140 35 1197 85 q 996 -14 1082 -14 q 850 35 908 -14 q 792 167 792 85 q 813 248 792 210 q 872 308 835 286 q 811 424 811 354 q 866 540 811 494 q 996 585 921 585 q 1124 539 1069 585 q 1179 424 1179 493 q 1118 308 1179 351 m 996 500 q 933 478 958 500 q 908 424 908 457 q 933 368 908 390 q 996 346 958 346 q 1057 368 1032 346 q 1082 424 1082 390 q 1057 478 1082 457 q 996 500 1032 500 m 922 99 q 936 85 922 99 q 996 72 951 72 q 1069 99 1040 72 q 1097 167 1097 125 q 1068 235 1097 207 q 996 264 1039 264 q 922 235 953 264 q 892 167 892 207 q 922 99 892 125 m 269 386 q 138 427 196 386 q 69 540 81 468 l 167 556 q 269 474 181 474 q 343 499 314 474 q 372 565 372 525 q 343 635 372 608 q 269 661 314 661 l 129 661 l 181 972 l 467 972 l 467 886 l 261 886 l 238 746 l 269 746 q 414 697 356 746 q 472 565 472 647 q 414 435 472 485 q 269 386 356 386 z "},"⅞":{"ha":1128,"x_min":69,"x_max":1044,"o":"m 771 947 l 279 -19 l 193 25 l 685 992 l 771 947 m 1044 167 q 987 35 1044 85 q 843 -14 929 -14 q 697 35 756 -14 q 639 167 639 85 q 660 248 639 210 q 719 308 682 286 q 658 424 658 354 q 713 540 658 494 q 843 585 768 585 q 972 539 917 585 q 1026 424 1026 493 q 965 308 1026 351 q 1044 167 1044 260 m 843 346 q 904 368 879 346 q 929 424 929 390 q 904 478 929 457 q 843 500 879 500 q 781 478 806 500 q 756 424 756 457 q 781 368 756 390 q 843 346 806 346 m 944 167 q 915 235 944 207 q 843 264 886 264 q 769 235 800 264 q 739 167 739 207 q 769 99 739 125 q 843 72 799 72 q 916 99 888 72 q 944 167 944 125 m 429 972 l 429 900 l 218 399 l 118 399 l 324 886 l 69 886 l 69 972 l 429 972 z "},"←":{"ha":1042,"x_min":104,"x_max":938,"o":"m 318 132 l 104 461 l 104 515 l 318 844 l 406 789 l 238 539 l 938 539 l 938 436 l 238 436 l 406 188 l 318 132 z "},"↑":{"ha":921,"x_min":104,"x_max":817,"o":"m 104 686 l 433 901 l 488 901 l 817 686 l 761 599 l 511 767 l 511 68 l 408 68 l 408 767 l 160 599 l 104 686 z "},"→":{"ha":1042,"x_min":104,"x_max":938,"o":"m 724 844 l 938 515 l 938 461 l 724 132 l 636 188 l 804 438 l 104 438 l 104 540 l 804 540 l 636 789 l 724 844 z "},"↓":{"ha":921,"x_min":104,"x_max":817,"o":"m 433 68 l 104 283 l 160 371 l 408 203 l 408 901 l 511 901 l 511 203 l 761 371 l 817 283 l 488 68 l 433 68 z "},"↔":{"ha":1042,"x_min":104,"x_max":938,"o":"m 724 846 l 938 515 l 938 463 l 724 132 l 636 188 l 804 438 l 239 438 l 407 188 l 319 132 l 104 463 l 104 515 l 319 846 l 407 789 l 239 540 l 804 540 l 636 789 l 724 846 z "},"↕":{"ha":921,"x_min":104,"x_max":817,"o":"m 104 688 l 433 901 l 488 901 l 817 688 l 761 599 l 511 767 l 511 203 l 761 369 l 817 282 l 488 68 l 433 68 l 104 282 l 160 369 l 408 203 l 408 767 l 160 599 l 104 688 z "},"↖":{"ha":935,"x_min":104,"x_max":831,"o":"m 224 769 l 608 851 l 631 750 l 336 692 l 831 197 l 758 125 l 264 619 l 206 325 l 104 347 l 186 732 l 224 769 z "},"↗":{"ha":935,"x_min":104,"x_max":831,"o":"m 326 851 l 711 769 l 749 732 l 831 347 l 729 325 l 671 619 l 176 125 l 104 197 l 599 692 l 304 750 l 326 851 z "},"↘":{"ha":935,"x_min":104,"x_max":831,"o":"m 711 207 l 326 125 l 304 226 l 599 285 l 104 779 l 176 851 l 671 357 l 729 651 l 831 629 l 749 244 l 711 207 z "},"↙":{"ha":935,"x_min":104,"x_max":831,"o":"m 608 125 l 224 207 l 186 244 l 104 629 l 206 651 l 264 357 l 758 851 l 831 779 l 336 285 l 631 226 l 608 125 z "},"∂":{"ha":850,"x_min":76,"x_max":774,"o":"m 694 567 q 772 346 765 411 q 774 310 774 333 q 669 75 774 169 q 424 -19 565 -19 q 179 74 282 -19 q 76 306 76 168 q 182 538 76 443 q 426 633 288 633 q 547 613 494 633 l 318 1110 l 426 1156 l 694 567 m 425 86 q 586 150 519 86 q 653 307 653 214 q 587 463 653 399 q 428 528 521 528 q 267 463 335 528 q 199 306 199 399 q 265 150 199 214 q 425 86 332 86 z "},"∆":{"ha":992,"x_min":43,"x_max":949,"o":"m 560 972 l 949 0 l 43 0 l 431 972 l 560 972 m 215 111 l 774 111 l 496 840 l 215 111 z "},"∏":{"ha":996,"x_min":139,"x_max":857,"o":"m 139 972 l 857 972 l 857 -418 l 732 -418 l 732 861 l 264 861 l 264 -418 l 139 -418 l 139 972 z "},"∑":{"ha":788,"x_min":69,"x_max":732,"o":"m 732 972 l 732 861 l 207 861 l 583 278 l 207 -307 l 732 -307 l 732 -418 l 69 -418 l 69 -307 l 444 278 l 69 861 l 69 972 l 732 972 z "},"−":{"ha":819,"x_min":83,"x_max":736,"o":"m 83 500 l 736 500 l 736 394 l 83 394 l 83 500 z "},"∕":{"ha":594,"x_min":21,"x_max":574,"o":"m 471 1143 l 574 1108 l 124 -253 l 21 -218 l 471 1143 z "},"√":{"ha":1056,"x_min":76,"x_max":1000,"o":"m 683 1140 l 1000 1140 l 1000 1035 l 771 1035 l 460 0 l 347 0 l 211 451 l 76 451 l 76 557 l 296 557 l 403 188 l 683 1140 z "},"∞":{"ha":1196,"x_min":83,"x_max":1113,"o":"m 856 726 q 1039 660 965 726 q 1113 486 1113 593 q 1039 313 1113 379 q 856 246 965 246 q 597 397 703 246 q 340 246 494 246 q 157 313 231 246 q 83 486 83 379 q 157 660 83 593 q 340 726 231 726 q 597 575 494 726 q 856 726 703 726 m 349 351 q 456 392 404 351 q 539 486 508 433 q 456 580 508 539 q 349 621 404 621 q 246 583 286 621 q 206 486 206 546 q 246 389 206 426 q 349 351 286 351 m 847 351 q 950 389 910 351 q 990 486 990 426 q 950 583 990 546 q 847 621 910 621 q 740 580 792 621 q 657 486 688 539 q 740 392 688 433 q 847 351 792 351 z "},"∫":{"ha":654,"x_min":-46,"x_max":633,"o":"m 540 1150 q 633 1132 592 1150 l 617 1021 q 540 1036 574 1036 q 436 872 463 1036 l 271 -167 q 47 -428 229 -428 q -46 -408 -1 -428 l -29 -299 q 47 -314 10 -314 q 151 -150 124 -314 l 317 890 q 540 1150 358 1150 z "},"≈":{"ha":839,"x_min":76,"x_max":763,"o":"m 694 397 l 763 317 q 574 224 661 224 q 421 263 521 224 q 267 301 321 301 q 210 287 235 301 q 144 238 185 272 l 76 317 q 267 410 178 410 q 419 371 319 410 q 574 332 518 332 q 694 397 625 332 m 694 664 l 763 583 q 574 490 661 490 q 421 529 521 490 q 267 568 321 568 q 210 553 235 568 q 144 504 185 539 l 76 583 q 267 676 178 676 q 419 638 319 676 q 574 599 518 599 q 694 664 625 599 z "},"≠":{"ha":819,"x_min":83,"x_max":736,"o":"m 736 528 l 506 528 l 424 367 l 736 367 l 736 261 l 369 261 l 258 42 l 172 86 l 261 261 l 83 261 l 83 367 l 315 367 l 397 528 l 83 528 l 83 633 l 450 633 l 561 851 l 647 807 l 558 633 l 736 633 l 736 528 z "},"≤":{"ha":822,"x_min":83,"x_max":739,"o":"m 83 135 l 739 135 l 739 29 l 83 29 l 83 135 m 83 569 l 701 803 l 739 701 l 215 514 l 739 326 l 701 225 l 83 458 l 83 569 z "},"≥":{"ha":822,"x_min":83,"x_max":739,"o":"m 83 135 l 739 135 l 739 29 l 83 29 l 83 135 m 121 803 l 739 569 l 739 458 l 121 225 l 83 326 l 607 514 l 83 701 l 121 803 z "},"◊":{"ha":978,"x_min":83,"x_max":894,"o":"m 489 992 l 894 486 l 489 -19 l 83 486 l 489 992 m 229 486 l 489 158 l 749 486 l 489 814 l 229 486 z "},"ﬅ":{"ha":897,"x_min":76,"x_max":856,"o":"m 653 722 l 856 722 l 856 614 l 653 614 l 653 0 l 532 0 l 532 614 l 407 614 l 407 722 l 532 722 l 532 889 q 474 1006 518 971 q 351 1042 429 1042 q 244 1008 286 1042 q 201 914 201 975 q 222 819 201 882 q 242 722 242 757 l 242 0 l 121 0 l 121 722 q 99 817 121 756 q 76 914 76 879 q 155 1087 76 1024 q 351 1150 233 1150 q 653 913 607 1150 l 653 722 z "}}}
